<svg version="1.1" xmlns="http://www.w3.org/2000/svg" width="24" height="24" viewBox="0 0 24 24">
<path d="M15.471 4.148c-0.868 0.347-1.231 1.325-0.807 2.169 0.038 0.074 0.97 1.038 2.072 2.144l2.004 2.009-17.557 0.021-0.197 0.091c-0.639 0.295-1.020 0.977-0.911 1.633 0.023 0.14 0.084 0.341 0.135 0.445 0.13 0.265 0.466 0.593 0.742 0.722l0.23 0.108 17.558 0.021-2.004 2.009c-1.103 1.105-2.035 2.070-2.072 2.143-0.188 0.374-0.232 0.839-0.115 1.189 0.305 0.902 1.256 1.313 2.126 0.918 0.202-0.092 0.622-0.497 3.616-3.492 2.969-2.969 3.401-3.416 3.491-3.613 0.215-0.472 0.215-0.879 0-1.351-0.089-0.197-0.521-0.643-3.491-3.613-3.853-3.853-3.559-3.603-4.248-3.621-0.299-0.008-0.422 0.006-0.572 0.067z"></path>
</svg>
