<svg version="1.1" xmlns="http://www.w3.org/2000/svg" width="24" height="24" viewBox="0 0 24 24">
<path d="M21.275 0.608c-0.012 0-0.023-0.007-0.036-0.007h-12.439c-2.159 0-3.915 1.756-3.915 3.916v4.057c-2.903 1.137-4.885 3.956-4.885 7.138 0 4.239 3.447 7.688 7.686 7.688 2.742 0 5.269-1.491 6.63-3.828h3.835c1.271 0 2.305-1.034 2.305-2.305v-10.424h2.552c0.549 0 0.992-0.444 0.992-0.992v-2.481c0.001-1.512-1.218-2.74-2.725-2.761l0-0zM7.686 21.413c-3.144 0-5.701-2.557-5.701-5.701 0-2.556 1.709-4.816 4.168-5.497 0.493-0.142 1.009-0.214 1.533-0.214 3.15 0 5.712 2.561 5.712 5.712 0 0.856-0.185 1.676-0.556 2.443-0.936 1.978-2.96 3.257-5.157 3.257l-0-0zM18.471 17.266c0 0.179-0.141 0.318-0.321 0.318h-3.008c0.154-0.608 0.24-1.232 0.24-1.873 0-4.244-3.453-7.697-7.697-7.697-0.274 0-0.546 0.028-0.816 0.058l0.001-3.556c0-1.064 0.866-1.93 1.93-1.93h9.798c-0.074 0.251-0.127 0.51-0.127 0.783l-0 13.897zM22.017 4.856h-1.559l-0.001-1.134v-0.353c0-0.43 0.35-0.78 0.78-0.78s0.78 0.35 0.78 0.78l0 1.487z" fill="#002434"/>
<path d="M8.167 10.773v1.306h1.764c0.244 0 0.441 0.195 0.441 0.435s-0.197 0.435-0.441 0.435h-1.764v2.177h0.662c0.526 0 1.031 0.206 1.403 0.574s0.581 0.866 0.581 1.385-0.209 1.018-0.581 1.385c-0.372 0.367-0.877 0.574-1.403 0.574h-0.662v1.306c0 0.24-0.197 0.435-0.441 0.435s-0.441-0.195-0.441-0.435v-1.306h-2.205c-0.244 0-0.441-0.195-0.441-0.435s0.197-0.435 0.441-0.435h2.205v-2.177h-0.662c-0.526 0-1.031-0.206-1.403-0.574s-0.581-0.866-0.581-1.385c0-0.52 0.209-1.018 0.581-1.385s0.877-0.574 1.403-0.574h0.662v-1.306c0-0.24 0.197-0.435 0.441-0.435s0.441 0.195 0.441 0.435zM7.285 12.95h-0.662c-0.292 0-0.573 0.115-0.78 0.319s-0.323 0.481-0.323 0.77c0 0.289 0.116 0.566 0.323 0.77s0.487 0.319 0.78 0.319h0.662v-2.177zM8.167 15.998v2.177h0.662c0.292 0 0.573-0.115 0.78-0.319s0.323-0.481 0.323-0.77-0.116-0.566-0.323-0.77c-0.207-0.204-0.487-0.319-0.78-0.319h-0.662z" fill="#002434"/>
</svg>
