<svg width="24" height="24" viewBox="0 0 24 24" fill="none" xmlns="http://www.w3.org/2000/svg">
    <path d="M6.503 2.042c-.654.111-1.336.5-1.781 1.015a2.613 2.613 0 0 0-.487.794c-.249.604-.235.076-.235 9.08 0 9.221-.026 8.445.299 8.77a.975.975 0 0 0 1.022.238c.097-.034 1.587-1.071 3.425-2.384L12 17.232l3.254 2.323c1.838 1.313 3.328 2.35 3.425 2.384a.975.975 0 0 0 1.022-.238c.325-.325.299.451.299-8.77 0-9.004.014-8.476-.235-9.08a2.934 2.934 0 0 0-1.469-1.539c-.653-.314-.125-.289-6.176-.297-2.981-.003-5.509.008-5.617.027M17.34 4.066c.116.04.263.135.362.234.323.323.299-.313.288 7.653l-.01 7.093-2.765-1.976c-1.69-1.206-2.828-1.993-2.925-2.022A1.2 1.2 0 0 0 12 15a1.2 1.2 0 0 0-.29.048c-.097.029-1.235.816-2.925 2.022L6.02 19.046l-.01-7.093c-.011-7.967-.036-7.33.289-7.654.313-.314-.094-.292 5.684-.296 4.706-.003 5.18.003 5.357.063M9.249 7.073c-.31.111-.477.269-.636.6-.087.182-.099.254-.086.5.01.167.048.354.092.447.045.097.412.5.926 1.02l.852.86-.852.86c-.515.521-.881.923-.926 1.02-.044.093-.082.28-.092.447-.013.242 0 .321.083.5.197.43.54.651 1.01.651.463 0 .557-.063 1.527-1.027l.853-.847.853.847c.97.964 1.064 1.027 1.527 1.027.47 0 .813-.221 1.01-.651.083-.179.096-.258.083-.5a1.432 1.432 0 0 0-.092-.447c-.045-.097-.412-.5-.926-1.02l-.851-.86.85-.86c.509-.515.881-.924.927-1.02.044-.094.082-.278.092-.447.013-.242 0-.321-.083-.5-.197-.43-.54-.651-1.01-.651-.463 0-.557.063-1.527 1.027L12 8.896l-.853-.847c-.924-.918-1.045-1.003-1.462-1.034a1.008 1.008 0 0 0-.436.058" fill="#002434" fill-rule="evenodd"/>
</svg>
