<svg width="18" height="18" viewBox="0 0 18 18" fill="none" xmlns="http://www.w3.org/2000/svg">
<path fill-rule="evenodd" clip-rule="evenodd" d="M0 4.5C0 3.25736 1.00736 2.25 2.25 2.25H15.75C16.9926 2.25 18 3.25736 18 4.5V13.5C18 14.7426 16.9926 15.75 15.75 15.75H2.25C1.00736 15.75 0 14.7426 0 13.5V4.5ZM1.5 4.5C1.5 4.08579 1.83579 3.75 2.25 3.75H15.75C16.1642 3.75 16.5 4.08579 16.5 4.5V6.75H1.5V4.5ZM16.5 8.25V13.5C16.5 13.9142 16.1642 14.25 15.75 14.25H2.25C1.83579 14.25 1.5 13.9142 1.5 13.5V8.25H16.5Z" fill="#002434" />
</svg>
