<svg xmlns="http://www.w3.org/2000/svg" width="20" height="20" viewBox="0 0 20 20" fill="none">
  <g clip-path="url(#clip0_5319_452)">
    <path fill-rule="evenodd" clip-rule="evenodd" d="M1.42259 0.244078C1.09715 -0.0813592 0.569515 -0.0813592 0.244078 0.244078C-0.0813592 0.569515 -0.0813592 1.09715 0.244078 1.42259L3.80706 4.98557C2.29974 6.28305 1.04196 7.84874 0.099037 9.60597C-0.0289912 9.84457 -0.0331156 10.1305 0.0879774 10.3727L0.833333 10C0.0879774 10.3727 0.0886418 10.374 0.0886418 10.374L0.0896159 10.3759L0.0924917 10.3816L0.101948 10.4001C0.109896 10.4156 0.121131 10.4372 0.135628 10.4646C0.164617 10.5194 0.206686 10.5973 0.261643 10.695C0.371493 10.8903 0.533208 11.1654 0.74528 11.4938C1.16839 12.1489 1.79736 13.0245 2.62122 13.9033C4.25373 15.6446 6.75041 17.5 10 17.5L10.0136 17.4999C11.7373 17.4717 13.4135 16.9613 14.8551 16.0336L18.5774 19.7559C18.9028 20.0814 19.4305 20.0814 19.7559 19.7559C20.0814 19.4305 20.0814 18.9028 19.7559 18.5774L15.541 14.3625L15.5393 14.3607L5.63926 4.46074L5.63776 4.45925L1.42259 0.244078ZM13.6428 14.8213L11.7081 12.8866C11.5758 12.9696 11.4376 13.0433 11.2943 13.1071C10.8854 13.2893 10.444 13.3873 9.99644 13.3952C9.54887 13.4031 9.1043 13.3207 8.68924 13.1531C8.27418 12.9854 7.89714 12.7359 7.58062 12.4194C7.26409 12.1029 7.01456 11.7258 6.84691 11.3108C6.67926 10.8957 6.59693 10.4511 6.60482 10.0036C6.61272 9.55598 6.71069 9.11459 6.89287 8.70571C6.95671 8.56243 7.03044 8.42417 7.11337 8.29187L4.98925 6.16775C3.70859 7.25114 2.62446 8.54846 1.78548 10.0026C1.87637 10.1596 1.9966 10.3592 2.14535 10.5896C2.52953 11.1844 3.09847 11.9755 3.83711 12.7634C5.32829 14.354 7.4126 15.8307 9.9932 15.8333C11.2811 15.8111 12.5364 15.4603 13.6428 14.8213ZM8.35658 9.53508C8.3031 9.69544 8.27422 9.86331 8.27123 10.033C8.26728 10.2567 8.30845 10.479 8.39227 10.6866C8.4761 10.8941 8.60086 11.0826 8.75913 11.2409C8.91739 11.3991 9.10591 11.5239 9.31344 11.6077C9.52097 11.6915 9.74326 11.7327 9.96704 11.7288C10.1367 11.7258 10.3046 11.6969 10.4649 11.6434L8.35658 9.53508Z" fill="#45606E"/>
    <path fill-rule="evenodd" clip-rule="evenodd" d="M8.43993 4.34473C8.95064 4.22518 9.47352 4.16543 9.99804 4.16666L10 4.16666C12.5837 4.16666 14.6704 5.64463 16.1629 7.23661C16.9015 8.0245 17.4705 8.81557 17.8547 9.41043C18.0036 9.64112 18.124 9.84103 18.215 9.99814C17.7838 10.7485 17.2866 11.4592 16.729 12.1218C16.4327 12.4739 16.478 12.9996 16.8301 13.296C17.1823 13.5923 17.708 13.547 18.0043 13.1949C18.7325 12.3294 19.3684 11.3903 19.9016 10.3928C20.029 10.1545 20.0329 9.86908 19.912 9.62732L19.1667 10C19.912 9.62732 19.9114 9.62599 19.9114 9.62599L19.9104 9.62405L19.9075 9.61836L19.8981 9.59985C19.8901 9.58439 19.8789 9.56276 19.8644 9.53536C19.8354 9.48058 19.7933 9.40269 19.7384 9.30499C19.6285 9.1097 19.4668 8.83459 19.2547 8.50622C18.8316 7.85109 18.2026 6.97549 17.3788 6.09671C15.7464 4.35553 13.2501 2.50036 10.001 2.5C9.34759 2.49854 8.69626 2.57301 8.06007 2.72193C7.61195 2.82682 7.3337 3.27513 7.4386 3.72326C7.54349 4.17138 7.9918 4.44962 8.43993 4.34473ZM10.001 2.5H10V3.33333L10.002 2.5L10.001 2.5Z" fill="#45606E"/>
  </g>
  <defs>
    <clipPath id="clip0_5319_452">
      <rect width="20" height="20" fill="none"/>
    </clipPath>
  </defs>
</svg>
