<svg xmlns="http://www.w3.org/2000/svg"
     width="24" height="24" viewBox="0 0 24 24" fill="none">
    <path d="M11.66 1.064c-.097.035-1.994 1.485-4.798 3.667-4.276 3.327-4.646 3.625-4.74 3.808l-.102.199V20.54l.094.3a3.086 3.086 0 0 0 2.046 2.046l.3.094h15.08l.3-.094a3.086 3.086 0 0 0 2.046-2.046l.094-.3V8.738l-.102-.199c-.094-.183-.464-.481-4.74-3.808-3.236-2.518-4.692-3.627-4.815-3.67a.992.992 0 0 0-.663.003m4.36 5.331L20 9.491v5.308c0 4.382-.01 5.34-.055 5.491a1.02 1.02 0 0 1-.461.582l-.184.108-1.649.012-1.65.011-.01-4.651-.011-4.652-.108-.184a1.209 1.209 0 0 0-.254-.295C15.324 10.997 15.372 11 12 11s-3.324-.003-3.618.221c-.08.061-.195.194-.254.295l-.108.184-.011 4.652-.01 4.651-1.65-.011L4.7 20.98l-.184-.108a1.199 1.199 0 0 1-.291-.249c-.237-.311-.225.004-.225-5.802v-5.33l3.99-3.105c2.194-1.707 4.003-3.1 4.02-3.095.016.005 1.821 1.402 4.01 3.104M14 17v4h-4v-8h4v4" fill-rule="evenodd" fill="#002434" stroke="none"/>
</svg>
