<svg xmlns="http://www.w3.org/2000/svg" width="24" height="22" viewBox="0 0 24 22" fill="none">
    <path fill-rule="evenodd" clip-rule="evenodd" d="M8.46522 0.114574C8.32625 0.0414086 8.16796 0 8 0C7.81313 0 7.63824 0.0512563 7.4886 0.140477L0.503861 4.13176C0.192286 4.3098 0 4.64114 0 5V21C0 21.3565 0.189758 21.686 0.498073 21.8649C0.806388 22.0438 1.18664 22.0451 1.49614 21.8682L8.03147 18.1338L15.5348 21.8854C15.6646 21.9538 15.8112 21.9944 15.9669 21.9995C15.9779 21.9998 15.989 22 16 22C16.1869 22 16.3618 21.9487 16.5114 21.8595L23.4961 17.8682C23.8077 17.6902 24 17.3589 24 17V1C24 0.64353 23.8102 0.314012 23.5019 0.13509C23.1936 -0.0438317 22.8134 -0.0451016 22.5039 0.131757L15.9685 3.86623L8.46522 0.114574ZM7 2.72318L2 5.58032V19.2768L7 16.4197V2.72318ZM9 16.382V2.61803L15 5.61803V19.382L9 16.382ZM22 16.4197L17 19.2768V5.58032L22 2.72318V16.4197Z" fill="#002434"/>
</svg>
