<svg version="1.1" xmlns="http://www.w3.org/2000/svg" width="24" height="24" viewBox="0 0 24 24">
<path d="M8.727 0h6.545c1.205 0 2.182 0.977 2.182 2.182h1.091c0.868 0 1.7 0.345 2.314 0.959s0.959 1.446 0.959 2.314v15.273c0 0.868-0.345 1.7-0.959 2.314s-1.446 0.959-2.314 0.959h-13.091c-0.868 0-1.7-0.345-2.314-0.959s-0.959-1.446-0.959-2.314v-15.273c0-0.868 0.345-1.7 0.959-2.314s1.446-0.959 2.314-0.959h1.091c0-1.205 0.977-2.182 2.182-2.182zM17.454 4.364c0 1.205-0.977 2.182-2.182 2.182h-6.545c-1.205 0-2.182-0.977-2.182-2.182h-1.091c-0.289 0-0.567 0.115-0.771 0.32s-0.32 0.482-0.32 0.771v15.273c0 0.289 0.115 0.567 0.32 0.771s0.482 0.319 0.771 0.319h13.091c0.289 0 0.567-0.115 0.771-0.319s0.32-0.482 0.32-0.771v-15.273c0-0.289-0.115-0.567-0.32-0.771s-0.482-0.32-0.771-0.32h-1.091zM8.727 4.364h6.545v-2.182h-6.545v2.182z" fill="#002434"/>
<path d="M10.084 17.794c0.017 0.020 0.035 0.039 0.054 0.058 0.426 0.426 1.117 0.426 1.543 0l6.171-6.171c0.426-0.426 0.426-1.117 0-1.543s-1.117-0.426-1.543 0l-5.408 5.408-2.494-2.494c-0.426-0.426-1.117-0.426-1.543 0s-0.426 1.117 0 1.543l3.086 3.086c0.042 0.042 0.087 0.080 0.134 0.114z" fill="#002434"/>
</svg>
