<?xml version="1.0" encoding="UTF-8"?>
<svg width="167px" height="32px" viewBox="0 0 167 32" version="1.1" xmlns="http://www.w3.org/2000/svg" xmlns:xlink="http://www.w3.org/1999/xlink">
    <title>demob2b-logo</title>
    <defs>
        <polygon id="path-1" points="0 0 25.0757 0 25.0757 24.89 0 24.89"></polygon>
        <polygon id="path-3" points="0.7586 0 12.0756 0 12.0756 7.4169 0.7586 7.4169"></polygon>
    </defs>
    <g id="Logos" stroke="none" stroke-width="1" fill="none" fill-rule="evenodd">
        <g id="Artboard" transform="translate(-334.000000, -126.000000)">
            <g id="demob2b-logo" transform="translate(334.000000, 126.000000)">
                <g id="Icon">
                    <g id="Group">
                        <mask id="mask-2" fill="white">
                            <use xlink:href="#path-1"></use>
                        </mask>
                        <g id="Clip-8"></g>
                        <path d="M6.9927,19.862 L20.0487,7.061 C21.4497,5.686 23.7007,5.708 25.0757,7.11 L19.1487,1.066 C17.7747,-0.336 15.5227,-0.358 14.1207,1.016 L1.0657,13.818 C-0.3363,15.193 -0.3583,17.444 1.0167,18.846 L6.9437,24.89 C5.5687,23.488 5.5907,21.237 6.9927,19.862" id="Fill-7" fill="#FBB91E" mask="url(#mask-2)"></path>
                    </g>
                    <path d="M11.9707,24.9392 L25.0267,12.1382 C26.4287,10.7632 26.4497,8.5122 25.0757,7.1102 L31.0027,13.1542 C32.3767,14.5562 32.3547,16.8072 30.9527,18.1822 L17.8977,30.9832 C16.4957,32.3582 14.2447,32.3352 12.8697,30.9342 L6.9437,24.8902 C8.3177,26.2922 10.5697,26.3142 11.9707,24.9392" id="Fill-10" fill="#DE8F26"></path>
                    <path d="M31.0025,13.154 L25.0755,7.11 C26.4505,8.512 26.4285,10.763 25.0265,12.138 L24.6635,12.494 L28.1015,15.999 C29.4765,17.401 29.4535,19.652 28.0515,21.027 L30.9525,18.182 C32.3545,16.807 32.3775,14.556 31.0025,13.154" id="Fill-12" fill="#AC7229"></path>
                    <g id="Group" transform="translate(13.000000, 0.000000)">
                        <mask id="mask-4" fill="white">
                            <use xlink:href="#path-3"></use>
                        </mask>
                        <g id="Clip-15"></g>
                        <path d="M3.2476,3.9109 L6.6856,7.4169 L7.0486,7.0609 C8.4496,5.6859 10.7006,5.7079 12.0756,7.1099 L6.1486,1.0659 C4.7746,-0.3361 2.5226,-0.3581 1.1216,1.0159 L0.7586,1.3719 L3.2476,3.9109 Z" id="Fill-14" fill="#FEC741" mask="url(#mask-4)"></path>
                    </g>
                </g>
                <path d="M47.475,26 C54.225,26 56.225,24.4 56.225,20.075 L56.225,13.4 C56.225,9.075 54.225,7.525 47.5,7.525 L38.975,7.525 L38.975,9.95 L40.4,10 L40.4,23.525 L38.975,23.575 L38.975,26 L47.475,26 Z M47.475,23.525 L43.575,23.525 L43.575,10 L47.5,10 C51.8,10 53,10.75 53,13.775 L53,19.675 C53,22.7 51.8,23.525 47.475,23.525 Z M72.7,26 C73.075,26 73.325,25.75 73.325,25.375 L73.325,21.7 L70.675,21.7 L70.625,23.525 L62.625,23.525 L62.625,17.825 L68.25,17.825 L68.3,19.1 L70.875,19.1 L70.875,14.075 L68.3,14.075 L68.25,15.375 L62.625,15.375 L62.625,10 L70.65,10 L70.7,11.85 L73.35,11.85 L73.35,8.15 C73.35,7.775 73.1,7.525 72.725,7.525 L58.025,7.525 L58.025,9.95 L59.425,10 L59.425,23.525 L58.025,23.575 L58.025,26 L72.7,26 Z M80.725,26 L80.725,23.575 L79.35,23.525 L79.35,10.95 L79.375,10.95 L84.9,24.175 L87.275,24.175 L92.7,10.95 L92.725,10.95 L92.725,23.525 L91.35,23.575 L91.35,26 L97.3,26 L97.3,23.575 L95.925,23.525 L95.925,10 L97.3,9.95 L97.3,7.525 L92.625,7.525 C92,7.525 91.625,7.775 91.475,8.15 L86.375,20.225 L86.35,20.225 L81.15,8.15 C81,7.775 80.625,7.525 80,7.525 L75.075,7.525 L75.075,9.95 L76.475,10 L76.475,23.525 L75.075,23.575 L75.075,26 L80.725,26 Z M107.6,26.4 C114.225,26.4 116.075,24.1 116.075,20.375 L116.075,13.075 C116.075,9.35 114.225,7.125 107.6,7.125 C100.975,7.125 99.125,9.4 99.125,13.125 L99.125,20.45 C99.125,24.175 100.975,26.4 107.6,26.4 Z M107.6,23.85 C103.45,23.85 102.325,22.9 102.325,20.075 L102.325,13.5 C102.325,10.675 103.45,9.675 107.6,9.675 C111.725,9.675 112.85,10.625 112.85,13.45 L112.85,20.025 C112.85,22.85 111.725,23.85 107.6,23.85 Z" id="DEMO" fill="#FBB91E" fill-rule="nonzero"></path>
                <path d="M127.775,26 C132.725,26 134.6,24.65 134.6,21.9 L134.6,20 C134.6,17.625 133.3,16.575 129.625,16.425 C132.75,16.25 133.775,15 133.775,13 L133.775,11.175 C133.775,8.5 132.4,7.575 127.5,7.575 L119.05,7.575 L119.05,9.275 L120.6,9.325 L120.6,24.275 L119.1,24.3 L119.1,26 L127.775,26 Z M127.1,15.675 L122.85,15.675 L122.85,9.325 L127.1,9.325 C130.65,9.325 131.575,9.825 131.575,11.725 L131.575,13.05 C131.575,14.975 130.55,15.675 127.1,15.675 Z M127.35,24.275 L122.85,24.275 L122.85,17.4 L127.35,17.4 C131.125,17.4 132.3,17.95 132.3,20.025 L132.3,21.5 C132.3,23.575 131.075,24.275 127.35,24.275 Z M149.75,26 L149.75,22 L147.7,22 L147.65,24.15 L139.5,24.15 L139.5,24.1 L146.125,17.875 C147.6,16.525 148.95,15.025 148.95,12.975 L148.95,11.675 C148.95,9.325 147.9,7.175 142.925,7.175 C137.975,7.175 136.35,9.225 136.35,11.95 L136.35,13.2 L138.375,13.2 L138.375,11.95 C138.375,10.2 139.4,8.95 142.675,8.95 C145.975,8.95 146.8,10.275 146.8,11.85 L146.8,13.175 C146.8,14.45 145.8,15.65 144.7,16.7 L136.85,24.175 L136.85,25.55 C136.85,25.825 137.025,26 137.3,26 L149.75,26 Z M159.825,26 C164.775,26 166.65,24.65 166.65,21.9 L166.65,20 C166.65,17.625 165.35,16.575 161.675,16.425 C164.8,16.25 165.825,15 165.825,13 L165.825,11.175 C165.825,8.5 164.45,7.575 159.55,7.575 L151.1,7.575 L151.1,9.275 L152.65,9.325 L152.65,24.275 L151.15,24.3 L151.15,26 L159.825,26 Z M159.15,15.675 L154.9,15.675 L154.9,9.325 L159.15,9.325 C162.7,9.325 163.625,9.825 163.625,11.725 L163.625,13.05 C163.625,14.975 162.6,15.675 159.15,15.675 Z M159.4,24.275 L154.9,24.275 L154.9,17.4 L159.4,17.4 C163.175,17.4 164.35,17.95 164.35,20.025 L164.35,21.5 C164.35,23.575 163.125,24.275 159.4,24.275 Z" id="B2B" fill="#CA5B27" fill-rule="nonzero"></path>
            </g>
        </g>
    </g>
</svg>