<svg width="42" height="28" viewBox="0 0 42 28" fill="none" xmlns="http://www.w3.org/2000/svg">
<g id="amex">
<g clip-path="url(#clip0_9854_570)">
<rect x="0.666992" width="40.8333" height="28" rx="1.75" fill="#006FCF"/>
<path id="Vector" d="M36.4188 13.3834H39.504V6.21484H36.1466V7.21299L35.5114 6.21484H32.6077V7.48521L32.0633 6.21484H26.7096C26.5281 6.21484 26.3466 6.30558 26.1651 6.30558C25.9837 6.30558 25.8929 6.39633 25.7114 6.48707C25.53 6.57781 25.4392 6.57781 25.2577 6.66855V6.21484H9.92255L9.46884 7.39447L9.01514 6.21484H5.38551V7.48521L4.84107 6.21484H1.93736L0.666992 9.30003V13.3834H2.75403L3.11699 12.3852H3.84292L4.20588 13.3834H20.1762V12.476L20.8114 13.3834H25.2577V12.8389C25.3485 12.9297 25.53 12.9297 25.6207 13.0204C25.7114 13.1111 25.8929 13.1111 25.9837 13.2019C26.1651 13.2926 26.3466 13.2926 26.5281 13.2926H29.7948L30.1577 12.2945H30.8837L31.2466 13.2926H35.6929V12.3852L36.4188 13.3834ZM41.4096 22.4574V15.7426H16.4559L15.8207 16.65L15.1855 15.7426H7.92625V22.9111H15.1855L15.8207 22.0037L16.4559 22.9111H20.9929V21.3686H20.8114C21.4466 21.3686 21.9911 21.2778 22.4448 21.0963V23.0019H25.7114V22.0945L26.3466 23.0019H39.867C40.4114 22.8204 40.9559 22.7297 41.4096 22.4574Z" fill="white"/>
<path id="Vector_2" d="M39.867 20.7334H37.417V21.7316H39.7762C40.7744 21.7316 41.4096 21.0964 41.4096 20.189C41.4096 19.2816 40.8651 18.8279 39.9577 18.8279H38.8688C38.5966 18.8279 38.4151 18.6464 38.4151 18.3742C38.4151 18.1019 38.5966 17.9205 38.8688 17.9205H40.9559L41.4096 16.9223H38.9596C37.9614 16.9223 37.3262 17.5575 37.3262 18.3742C37.3262 19.2816 37.8707 19.7353 38.7781 19.7353H39.867C40.1392 19.7353 40.3207 19.9168 40.3207 20.189C40.4114 20.5519 40.2299 20.7334 39.867 20.7334ZM35.4207 20.7334H32.9707V21.7316H35.33C36.3281 21.7316 36.9633 21.0964 36.9633 20.189C36.9633 19.2816 36.4188 18.8279 35.5114 18.8279H34.4225C34.1503 18.8279 33.9688 18.6464 33.9688 18.3742C33.9688 18.1019 34.1503 17.9205 34.4225 17.9205H36.5096L36.9633 16.9223H34.5133C33.5151 16.9223 32.88 17.5575 32.88 18.3742C32.88 19.2816 33.4244 19.7353 34.3318 19.7353H35.4207C35.6929 19.7353 35.8744 19.9168 35.8744 20.189C35.9651 20.5519 35.6929 20.7334 35.4207 20.7334ZM32.2448 17.8297V16.8316H28.4337V21.6408H32.2448V20.6427H29.5225V19.6445H32.154V18.6464H29.5225V17.739H32.2448V17.8297ZM26.0744 17.8297C26.5281 17.8297 26.7096 18.1019 26.7096 18.3742C26.7096 18.6464 26.5281 18.9186 26.0744 18.9186H24.7133V17.739L26.0744 17.8297ZM24.7133 19.9168H25.2577L26.7096 21.6408H28.0707L26.4374 19.826C27.254 19.6445 27.7077 19.1001 27.7077 18.3742C27.7077 17.4668 27.0725 16.8316 26.0744 16.8316H23.5337V21.6408H24.6225L24.7133 19.9168ZM21.8096 18.4649C21.8096 18.8279 21.6281 19.1001 21.1744 19.1001H19.7225V17.8297H21.0837C21.5374 17.8297 21.8096 18.1019 21.8096 18.4649ZM18.6337 16.8316V21.6408H19.7225V20.0075H21.1744C22.1725 20.0075 22.8985 19.3723 22.8985 18.3742C22.8985 17.4668 22.2633 16.7408 21.2651 16.7408L18.6337 16.8316ZM17.0003 21.6408H18.3614L16.4559 19.1908L18.3614 16.8316H17.0003L15.8207 18.3742L14.6411 16.8316H13.28L15.1855 19.1908L13.28 21.5501H14.6411L15.8207 20.0075L17.0003 21.6408ZM12.917 17.8297V16.8316H9.10588V21.6408H12.917V20.6427H10.1948V19.6445H12.8262V18.6464H10.1948V17.739H12.917V17.8297ZM34.967 9.30009L36.8725 12.2038H38.2337V7.39453H37.1448V10.5705L36.8725 10.1168L35.1485 7.39453H33.6966V12.2038H34.7855V8.93712L34.967 9.30009ZM30.2485 9.20935L30.6114 8.2112L30.9744 9.20935L31.4281 10.2982H29.7948L30.2485 9.20935ZM32.154 12.2038H33.3337L31.2466 7.39453H29.7948L27.7077 12.2038H28.8874L29.3411 11.2056H31.7003L32.154 12.2038ZM27.0725 12.2038L27.5262 11.2056H27.254C26.4374 11.2056 25.9837 10.6612 25.9837 9.84453V9.75379C25.9837 8.93712 26.4374 8.39268 27.254 8.39268H28.4337V7.39453H27.1633C25.7114 7.39453 24.8948 8.39268 24.8948 9.75379V9.84453C24.8948 11.2964 25.7114 12.2038 27.0725 12.2038ZM22.9892 12.2038H24.0781V7.48527H22.9892V12.2038ZM20.63 8.39268C21.0837 8.39268 21.2651 8.6649 21.2651 8.93712C21.2651 9.20935 21.0837 9.48157 20.63 9.48157H19.2688V8.30194L20.63 8.39268ZM19.2688 10.4797H19.8133L21.2651 12.2038H22.6262L20.9929 10.389C21.8096 10.2075 22.2633 9.66305 22.2633 8.93712C22.2633 8.02972 21.6281 7.39453 20.63 7.39453H18.0892V12.2038H19.1781L19.2688 10.4797ZM17.2725 8.39268V7.39453H13.4614V12.2038H17.2725V11.2056H14.5503V10.2075H17.1818V9.20935H14.5503V8.30194H17.2725V8.39268ZM9.01514 12.2038H10.0133L11.3744 8.30194V12.2038H12.4633V7.39453H10.6485L9.55958 10.6612L8.4707 7.39453H6.65588V12.2038H7.74477V8.30194L9.01514 12.2038ZM3.11699 9.20935L3.47995 8.2112L3.84292 9.20935L4.29662 10.2982H2.66329L3.11699 9.20935ZM5.02255 12.2038H6.20218L4.11514 7.39453H2.75403L0.666992 12.2038H1.84662L2.30033 11.2056H4.65958L5.02255 12.2038Z" fill="#006FCF"/>
</g>
</g>
<defs>
<clipPath id="clip0_9854_570">
<rect x="0.666992" width="40.8333" height="28" rx="1.75" fill="white"/>
</clipPath>
</defs>
</svg>
