<svg width="46" height="28" viewBox="0 0 46 28" fill="none" xmlns="http://www.w3.org/2000/svg">
<g clip-path="url(#clip0_14001_42942)">
<path d="M9.00725 0H20.1685C21.7265 0 22.6955 1.26991 22.3321 2.83309L17.1357 25.1431C16.769 26.7008 15.2091 27.9718 13.65 27.9718H2.48983C0.933995 27.9718 -0.0372112 26.7008 0.326243 25.1431L5.52478 2.83309C5.88823 1.26991 7.44733 0 9.00725 0Z" fill="#E21836"/>
<path d="M19.2399 0H32.0751C33.6328 0 32.9304 1.26991 32.564 2.83309L27.3684 25.1431C27.0039 26.7008 27.1176 27.9718 25.5566 27.9718H12.7214C11.1604 27.9718 10.1944 26.7008 10.5611 25.1431L15.7564 2.83309C16.1253 1.26991 17.6811 0 19.2399 0Z" fill="#00447C"/>
<path d="M31.5656 0H42.7268C44.287 0 45.2561 1.26991 44.8896 2.83309L39.6941 25.1431C39.3274 26.7008 37.7663 27.9718 36.2064 27.9718H25.0504C23.4893 27.9718 22.5211 26.7008 22.8868 25.1431L28.0831 2.83309C28.4466 1.26991 30.0046 0 31.5656 0Z" fill="#007B84"/>
<path d="M11.9224 7.14974C10.7747 7.16144 10.4357 7.14974 10.3274 7.12417C10.2858 7.32195 9.51127 10.8947 9.50909 10.8977C9.34232 11.6206 9.22099 12.1358 8.80884 12.4685C8.57488 12.6619 8.30175 12.7553 7.98508 12.7553C7.47609 12.7553 7.17956 12.5025 7.12977 12.0232L7.12025 11.8586C7.12025 11.8586 7.27532 10.8904 7.27532 10.8849C7.27532 10.8849 8.08819 7.62909 8.23374 7.19871C8.24135 7.17423 8.24353 7.16144 8.24543 7.14974C6.66321 7.16362 6.38273 7.14974 6.36342 7.12417C6.35281 7.15926 6.31363 7.36112 6.31363 7.36112L5.48362 11.0308L5.41234 11.342L5.27441 12.36C5.27441 12.662 5.33372 12.9084 5.45179 13.1168C5.82993 13.7776 6.9086 13.8766 7.5188 13.8766C8.30501 13.8766 9.04253 13.7096 9.54092 13.4046C10.406 12.8935 10.6324 12.0945 10.8342 11.3844L10.9278 11.0201C10.9278 11.0201 11.7652 7.63861 11.9075 7.19871C11.9129 7.17423 11.9151 7.16144 11.9224 7.14974ZM14.7715 9.87766C14.5696 9.87766 14.2007 9.92663 13.8694 10.089C13.7491 10.1508 13.6354 10.2221 13.5154 10.2931L13.6237 9.90215L13.5644 9.83631C12.8617 9.97859 12.7045 9.99763 12.0554 10.089L12.001 10.1252C11.9256 10.7501 11.8587 11.2199 11.5793 12.4482C11.4729 12.9009 11.3625 13.358 11.2517 13.8096L11.2817 13.867C11.9468 13.8319 12.1487 13.8319 12.7268 13.8414L12.7736 13.7905C12.847 13.4143 12.8565 13.3261 13.0192 12.5641C13.0957 12.2028 13.2551 11.409 13.3337 11.1264C13.4782 11.0594 13.6207 10.9936 13.7567 10.9936C14.0807 10.9936 14.0413 11.2763 14.0288 11.3889C14.0149 11.578 13.8968 12.1955 13.7758 12.7257L13.695 13.068C13.6387 13.3207 13.5769 13.5663 13.5206 13.8169L13.5451 13.867C14.2007 13.8319 14.4007 13.8319 14.9605 13.8414L15.0264 13.7905C15.1276 13.2029 15.1572 13.0456 15.3368 12.1901L15.4271 11.797C15.6026 11.0276 15.6907 10.6375 15.558 10.3197C15.4176 9.96363 15.0808 9.87766 14.7715 9.87766ZM17.9542 10.6832C17.6057 10.7501 17.3834 10.7947 17.1625 10.8235C16.9435 10.8586 16.73 10.8905 16.3932 10.9373L16.3665 10.9615L16.3421 10.9808C16.307 11.2316 16.2825 11.4484 16.236 11.7033C16.1965 11.967 16.1358 12.2665 16.0371 12.6969C15.9606 13.0263 15.9212 13.1411 15.8777 13.257C15.8352 13.3729 15.7884 13.4855 15.7025 13.8095L15.7226 13.8394L15.7395 13.8669C16.0542 13.852 16.2602 13.8414 16.4718 13.8394C16.6832 13.8318 16.9022 13.8394 17.2412 13.8414L17.2708 13.8171L17.3026 13.7905C17.3516 13.4983 17.359 13.4197 17.3889 13.2771C17.4185 13.1242 17.4697 12.9126 17.5951 12.3473C17.6544 12.0818 17.7205 11.8171 17.782 11.5461C17.8459 11.2762 17.9128 11.0104 17.9765 10.7449L17.967 10.7128L17.9542 10.6832ZM17.9616 9.5971C17.645 9.4102 17.0892 9.46951 16.7151 9.72768C16.3421 9.98069 16.2997 10.3398 16.6153 10.5291C16.9265 10.7109 17.4845 10.6567 17.8553 10.3964C18.2274 10.1379 18.2739 9.78209 17.9616 9.5971ZM19.8767 13.9255C20.5174 13.9255 21.1741 13.7489 21.6684 13.225C22.0487 12.8 22.2231 12.1678 22.2835 11.9075C22.4802 11.0445 22.327 10.6416 22.1347 10.3962C21.8425 10.0222 21.3262 9.9022 20.7905 9.9022C20.4684 9.9022 19.7012 9.93403 19.1019 10.4866C18.6715 10.8851 18.4727 11.4259 18.3527 11.9445C18.2316 12.4728 18.0923 13.4238 18.967 13.7778C19.2368 13.8937 19.6259 13.9255 19.8767 13.9255ZM19.8266 11.9839C19.9744 11.3304 20.1487 10.782 20.5938 10.782C20.9426 10.782 20.9679 11.1901 20.8128 11.8457C20.7851 11.9912 20.6577 12.5323 20.4855 12.7628C20.3653 12.9328 20.223 13.0359 20.0658 13.0359C20.019 13.0359 19.7407 13.0359 19.7363 12.6227C19.7341 12.4186 19.7758 12.2102 19.8266 11.9839ZM23.885 13.8415L23.9351 13.7906C24.0061 13.4143 24.0178 13.3259 24.175 12.5642C24.2537 12.2029 24.4163 11.4091 24.4928 11.1264C24.6375 11.0592 24.7776 10.9934 24.918 10.9934C25.2398 10.9934 25.2006 11.2761 25.1879 11.3887C25.1762 11.578 25.0581 12.1953 24.9349 12.7255L24.8584 13.0678C24.7999 13.3208 24.7363 13.5662 24.68 13.817L24.7044 13.867C25.3622 13.8319 25.5546 13.8319 26.1177 13.8415L26.1857 13.7906C26.2845 13.2027 26.3111 13.0455 26.4961 12.1901L26.5843 11.7968C26.7606 11.0274 26.8498 10.6376 26.7192 10.3198C26.5748 9.96371 26.2358 9.87774 25.9308 9.87774C25.7287 9.87774 25.3579 9.92644 25.0284 10.0891C24.9106 10.1509 24.7926 10.2219 24.6767 10.2932L24.7776 9.90223L24.7235 9.83612C24.0211 9.97867 23.8605 9.99772 23.2123 10.0891L23.1625 10.1253C23.0839 10.7502 23.0199 11.2197 22.7405 12.4483C22.6342 12.901 22.5237 13.358 22.4133 13.8096L22.4429 13.867C23.1092 13.8319 23.308 13.8319 23.885 13.8415ZM28.7181 13.8669C28.7594 13.665 29.0051 12.4686 29.0073 12.4686C29.0073 12.4686 29.2165 11.5907 29.2292 11.5589C29.2292 11.5589 29.2951 11.4674 29.3609 11.4313H29.4578C30.3716 11.4313 31.4034 11.4313 32.2122 10.8363C32.7626 10.4282 33.1388 9.82565 33.3067 9.0933C33.3502 8.91375 33.3823 8.70019 33.3823 8.48663C33.3823 8.20615 33.326 7.92867 33.1633 7.71185C32.7509 7.13484 31.9296 7.12423 30.9815 7.11987C30.9785 7.11987 30.5141 7.12423 30.5141 7.12423C29.3005 7.13919 28.8138 7.13484 28.6139 7.11035C28.597 7.19877 28.5652 7.35601 28.5652 7.35601C28.5652 7.35601 28.1305 9.37079 28.1305 9.37405C28.1305 9.37405 27.0901 13.6577 27.0412 13.8596C28.1008 13.8468 28.5353 13.8468 28.7181 13.8669ZM29.5236 10.2879C29.5236 10.2879 29.9858 8.27716 29.9836 8.28478L29.9986 8.18167L30.0051 8.10305L30.1898 8.12209C30.1898 8.12209 31.1431 8.20398 31.1654 8.20615C31.5416 8.3517 31.6967 8.72685 31.5884 9.21654C31.4897 9.66405 31.1994 10.0403 30.8264 10.222C30.5193 10.376 30.1431 10.3888 29.7554 10.3888H29.5046L29.5236 10.2879ZM32.4014 12.0211C32.2793 12.5418 32.1389 13.4929 33.0092 13.8319C33.2867 13.95 33.5353 13.985 33.788 13.9723C34.0549 13.9578 34.3022 13.824 34.5313 13.6314C34.5106 13.7106 34.4899 13.7897 34.4692 13.8692L34.5087 13.92C35.1347 13.8936 35.3289 13.8936 36.0071 13.8988L36.0686 13.852C36.1676 13.2698 36.2609 12.7045 36.5183 11.5908C36.6437 11.0573 36.7689 10.529 36.8975 9.99766L36.8774 9.93917C36.1772 10.0689 35.99 10.0967 35.3164 10.1922L35.2653 10.2338C35.2585 10.2879 35.2514 10.3399 35.2448 10.3919C35.1401 10.2226 34.9883 10.0782 34.7541 9.98814C34.4546 9.87034 33.751 10.0221 33.1463 10.5728C32.7213 10.9659 32.5173 11.5045 32.4014 12.0211ZM33.8721 12.053C34.022 11.4112 34.1942 10.8682 34.6404 10.8682C34.9225 10.8682 35.071 11.1286 35.0408 11.5725C35.0169 11.6833 34.991 11.8 34.9603 11.9319C34.9157 12.1226 34.8672 12.3117 34.8202 12.501C34.7723 12.6305 34.7165 12.7527 34.6553 12.834C34.5405 12.9967 34.2674 13.0976 34.1101 13.0976C34.0655 13.0976 33.7902 13.0976 33.7807 12.6917C33.7785 12.4896 33.8201 12.2815 33.8721 12.053ZM41.5521 9.93398L41.498 9.87222C40.8051 10.0126 40.6797 10.0349 40.0431 10.1209L39.9963 10.1677C39.9941 10.1753 39.9922 10.187 39.9889 10.1976L39.9868 10.187C39.5128 11.2803 39.5267 11.0445 39.141 11.9052C39.1388 11.8661 39.1388 11.8416 39.1366 11.7999L39.04 9.93398L38.9794 9.87222C38.2535 10.0126 38.2364 10.0349 37.5661 10.1209L37.5139 10.1677C37.5065 10.19 37.5065 10.2145 37.5022 10.2411L37.5065 10.2506C37.5903 10.6788 37.5702 10.5834 37.6542 11.2591C37.6934 11.5907 37.7456 11.9243 37.7848 12.2518C37.8509 12.8 37.8879 13.0699 37.9687 13.9064C37.516 14.6534 37.4088 14.9361 36.973 15.5917L36.976 15.5983L36.6691 16.0836C36.6341 16.1347 36.6022 16.1698 36.5576 16.1848C36.5086 16.209 36.445 16.2134 36.3566 16.2134H36.1865L35.9338 17.054L36.8008 17.0689C37.3098 17.0668 37.6297 16.8287 37.8019 16.5088L38.3471 15.5746H38.3384L38.3958 15.5088C38.7625 14.7193 41.5521 9.93398 41.5521 9.93398ZM32.4014 20.9743H32.0336L33.3949 16.4717H33.8465L33.9899 16.0078L34.0037 16.5236C33.9869 16.8425 34.2377 17.1251 34.8966 17.0783H35.6586L35.9209 16.2113H35.6341C35.4693 16.2113 35.3928 16.1697 35.4023 16.0805L35.3885 15.5557H33.9774V15.5584C33.5211 15.5679 32.1587 15.6022 31.8829 15.6757C31.5491 15.7616 31.1973 16.0146 31.1973 16.0146L31.3355 15.5502H30.0155L29.7405 16.4717L28.361 21.0431H28.0933L27.8307 21.9039H30.4598L30.3717 22.1909H31.6671L31.7531 21.9039H32.1166L32.4014 20.9743ZM31.3227 17.3866C31.1113 17.445 30.718 17.6224 30.718 17.6224L31.0678 16.4717H32.1166L31.8636 17.3101C31.8636 17.3101 31.5395 17.3292 31.3227 17.3866ZM31.3429 19.0305C31.3429 19.0305 31.0134 19.0719 30.7966 19.1209C30.583 19.1856 30.1826 19.3896 30.1826 19.3896L30.5439 18.1921H31.598L31.3429 19.0305ZM30.7552 20.9849H29.7032L30.0082 19.9743H31.0569L30.7552 20.9849ZM33.2887 18.1921H34.8051L34.5872 18.8978H33.0507L32.82 19.6693H34.1644L33.1464 21.1027C33.0751 21.208 33.0112 21.2453 32.9402 21.2749C32.8689 21.3111 32.7753 21.3535 32.6671 21.3535H32.2941L32.0378 22.1985H33.0134C33.5205 22.1985 33.82 21.9678 34.0412 21.665L34.7393 20.7096L34.8891 21.6797C34.921 21.8614 35.0516 21.9678 35.14 22.0092C35.2376 22.0581 35.3386 22.1422 35.4811 22.1547C35.634 22.1612 35.7445 22.1664 35.8179 22.1664H36.2973L36.5851 21.2208H36.396C36.2875 21.2208 36.1006 21.2026 36.0687 21.1685C36.0369 21.1272 36.0369 21.0635 36.0198 20.9667L35.8677 19.9944H35.245L35.5181 19.6693H37.0516L37.2875 18.8978H35.8677L36.0889 18.1921H37.5043L37.7669 17.3218H33.5469L33.2887 18.1921ZM20.4812 21.1814L20.8352 20.004H22.2898L22.5556 19.1283H21.0996L21.3219 18.4035H22.7447L23.0083 17.5556H19.4483L19.1901 18.4035H19.9989L19.7832 19.1283H18.9722L18.7034 20.019H19.5119L19.0402 21.5767C18.9766 21.7829 19.0701 21.8615 19.1294 21.9573C19.1901 22.0506 19.2516 22.1124 19.3898 22.1474C19.5323 22.1793 19.63 22.1983 19.7628 22.1983H21.4027L21.6948 21.2282L20.9679 21.328C20.8276 21.328 20.4388 21.3112 20.4812 21.1814ZM20.6481 15.5449L20.2795 16.2112C20.2006 16.3567 20.1296 16.447 20.0656 16.4887C20.0093 16.5238 19.8978 16.5384 19.7362 16.5384H19.5438L19.2868 17.3908H19.9255C20.2327 17.3908 20.4685 17.2781 20.5812 17.2218C20.7022 17.1571 20.7341 17.1941 20.8276 17.1038L21.0434 16.9169H23.038L23.3027 16.0294H21.8426L22.0975 15.5449H20.6481ZM23.5928 21.1985C23.5588 21.1496 23.5833 21.0633 23.6353 20.8838L24.1804 19.0793H26.1199C26.4025 19.0752 26.6066 19.0719 26.7393 19.0624C26.8819 19.0475 27.0369 18.9966 27.2059 18.9052C27.3803 18.8094 27.4695 18.7085 27.5448 18.5926C27.6289 18.477 27.7638 18.224 27.8797 17.8339L28.565 15.5503L26.5524 15.562C26.5524 15.562 25.9327 15.6534 25.6598 15.7543C25.3845 15.867 24.9911 16.1814 24.9911 16.1814L25.1729 15.5555H23.9296L22.1891 21.328C22.1273 21.5522 22.086 21.7149 22.0764 21.8125C22.0732 21.9178 22.2092 22.022 22.2973 22.1006C22.4015 22.1793 22.5555 22.1665 22.7032 22.1793C22.8586 22.1909 23.0795 22.1983 23.3844 22.1983H24.3399L24.6331 21.208L23.7778 21.2888C23.6864 21.2888 23.6203 21.2399 23.5928 21.1985ZM24.5322 17.8605H26.5693L26.4398 18.2664C26.4216 18.2759 26.378 18.2463 26.1707 18.2708H24.4068L24.5322 17.8605ZM24.9403 16.4992H26.9945L26.8468 16.9881C26.8468 16.9881 25.8786 16.9785 25.7235 17.0071C25.0412 17.1252 24.6427 17.4897 24.6427 17.4897L24.9403 16.4992ZM26.4854 19.6256C26.4685 19.6863 26.4419 19.7233 26.4046 19.751C26.3632 19.7777 26.2963 19.7872 26.1965 19.7872H25.9062L25.9233 19.2929H24.716L24.667 21.7095C24.6651 21.8839 24.682 21.9848 24.8096 22.0656C24.9372 22.1665 25.3303 22.1793 25.8594 22.1793H26.616L26.8891 21.2748L26.2305 21.311L26.0115 21.3237C25.9816 21.311 25.953 21.2993 25.9212 21.2674C25.8934 21.24 25.8466 21.2568 25.8542 21.0824L25.8594 20.463L26.5501 20.4344C26.9231 20.4344 27.0825 20.3131 27.2186 20.1975C27.3483 20.0868 27.3908 19.9594 27.4397 19.7872L27.5556 19.2388H26.6064L26.4854 19.6256Z" fill="#FEFEFE"/>
</g>
<defs>
<clipPath id="clip0_14001_42942">
<rect width="44.8" height="28" fill="white" transform="translate(0.25)"/>
</clipPath>
</defs>
</svg>
