<svg width="41" height="28" viewBox="0 0 41 28" fill="none" xmlns="http://www.w3.org/2000/svg">
<rect x="0.341471" y="0.291667" width="40.25" height="27.4167" rx="1.45833" fill="white"/>
<rect x="0.341471" y="0.291667" width="40.25" height="27.4167" rx="1.45833" stroke="#D4DCDD" stroke-width="0.583333"/>
<path d="M22.1953 17.1681C26.0684 17.1869 29.6035 14.0104 29.6035 10.1455C29.6035 5.9198 26.0684 2.99886 22.1953 3H18.8619C14.9429 2.99886 11.7168 5.92036 11.7168 10.1455C11.7168 14.0112 14.9429 17.1869 18.8619 17.1681H22.1953Z" fill="#0064A7"/>
<path d="M20.349 13.9089V6.23515C21.8915 6.82669 22.9867 8.32016 22.9893 10.0719C22.9866 11.8235 21.8914 13.316 20.349 13.9089ZM14.7676 10.0718C14.771 8.3213 15.8645 6.82871 17.4061 6.23523V13.9075C15.8646 13.3143 14.771 11.8227 14.7676 10.0718ZM18.8779 3.58594C15.2966 3.58707 12.3942 6.48967 12.3936 10.0718C12.3943 13.6535 15.2966 16.5554 18.8779 16.5566C22.4604 16.5554 25.363 13.6535 25.3634 10.0718C25.363 6.48967 22.4604 3.58707 18.8779 3.58594Z" fill="white"/>
<path d="M4.47231 23.0037C4.47231 23.5804 4.88475 23.6478 5.25153 23.6478C6.87 23.6478 7.40119 22.4268 7.40119 21.3107C7.40119 19.9101 6.50233 18.8993 5.05695 18.8993C4.74922 18.8993 4.60776 18.9212 4.47231 18.929V23.0037ZM3.7381 19.4902C3.7381 18.8165 3.38657 18.8608 3.0498 18.8538V18.6592C3.3418 18.6734 3.64118 18.6734 3.93366 18.6734C4.24812 18.6734 4.675 18.6592 5.22972 18.6592C7.16946 18.6592 8.22559 19.9543 8.22559 21.2808C8.22559 22.0226 7.79125 23.8877 5.13952 23.8877C4.75774 23.8877 4.40531 23.8727 4.0533 23.8727C3.71661 23.8727 3.38649 23.88 3.0498 23.8877V23.6929C3.49875 23.6478 3.71661 23.6329 3.7381 23.1235V19.4902Z" fill="#1D1D1B"/>
<path d="M9.28989 19.3105C9.09474 19.3105 8.92279 19.1306 8.92279 18.9358C8.92279 18.7483 9.10293 18.5757 9.28989 18.5757C9.48407 18.5757 9.65675 18.7334 9.65675 18.9358C9.65683 19.1384 9.49169 19.3105 9.28989 19.3105ZM8.48828 23.6923H8.63063C8.83989 23.6923 8.98987 23.6923 8.98987 23.4446V21.415C8.98987 21.0857 8.87769 21.04 8.60038 20.891V20.7711C8.95239 20.6656 9.37222 20.5239 9.40174 20.5014C9.45454 20.4715 9.49907 20.4636 9.53687 20.4636C9.57386 20.4636 9.58927 20.5087 9.58927 20.569V23.4446C9.58927 23.6923 9.754 23.6923 9.964 23.6923H10.091V23.8871C9.83617 23.8871 9.57378 23.8721 9.3049 23.8721C9.03496 23.8721 8.76535 23.8794 8.48828 23.8871V23.6923Z" fill="#1D1D1B"/>
<path d="M10.8021 21.4605C10.8021 21.1837 10.7193 21.109 10.368 20.9667V20.8243C10.6896 20.7194 10.9963 20.6219 11.3562 20.4644C11.3788 20.4644 11.4007 20.4798 11.4007 20.5391V21.0262C11.8282 20.7194 12.1953 20.4644 12.6978 20.4644C13.3339 20.4644 13.5587 20.929 13.5587 21.5133V23.4453C13.5587 23.6931 13.7235 23.6931 13.9332 23.6931H14.0683V23.8878C13.8053 23.8878 13.5434 23.8728 13.2743 23.8728C13.0041 23.8728 12.7346 23.8801 12.4648 23.8878V23.6931H12.5998C12.8098 23.6931 12.9589 23.6931 12.9589 23.4453V21.506C12.9589 21.0786 12.6979 20.8691 12.2705 20.8691C12.0308 20.8691 11.6488 21.0636 11.4007 21.2288V23.4453C11.4007 23.6931 11.5663 23.6931 11.7761 23.6931H11.9108V23.8878C11.6487 23.8878 11.3861 23.8728 11.1164 23.8728C10.8473 23.8728 10.5771 23.8801 10.3076 23.8878V23.6931H10.4427C10.6524 23.6931 10.8021 23.6931 10.8021 23.4453V21.4605Z" fill="#1D1D1B"/>
<path d="M15.9646 21.5806C16.1517 21.5806 16.1735 21.4831 16.1735 21.3935C16.1735 21.0114 15.9415 20.7042 15.5218 20.7042C15.0652 20.7042 14.7506 21.0407 14.6607 21.5806H15.9646ZM14.6387 21.8206C14.6231 21.8882 14.6231 22.0001 14.6387 22.2552C14.6828 22.9666 15.1406 23.5508 15.739 23.5508C16.1517 23.5508 16.4741 23.3258 16.7508 23.0489L16.8554 23.1538C16.5106 23.6108 16.0839 24.0003 15.4701 24.0003C14.2787 24.0003 14.0391 22.8466 14.0391 22.3674C14.0391 20.8988 15.0276 20.4644 15.5516 20.4644C16.1589 20.4644 16.8111 20.8463 16.8179 21.6404C16.8179 21.6858 16.8179 21.7302 16.8112 21.7757L16.743 21.8206H14.6387Z" fill="#1D1D1B"/>
<path d="M16.9903 23.6931H17.1927C17.4018 23.6931 17.5518 23.6931 17.5518 23.4453V21.3411C17.5518 21.1091 17.2747 21.0637 17.1621 21.004V20.8917C17.709 20.6594 18.0087 20.4644 18.0771 20.4644C18.121 20.4644 18.1435 20.4868 18.1435 20.5622V21.2362H18.1594C18.3461 20.9441 18.661 20.4644 19.1177 20.4644C19.3051 20.4644 19.5446 20.5915 19.5446 20.8612C19.5446 21.0637 19.4025 21.2441 19.1928 21.2441C18.9596 21.2441 18.9596 21.0637 18.6978 21.0637C18.5703 21.0637 18.151 21.2362 18.151 21.6858V23.4453C18.151 23.6931 18.3006 23.6931 18.5106 23.6931H18.9298V23.8878C18.5176 23.8801 18.2043 23.8728 17.8816 23.8728C17.5746 23.8728 17.2599 23.8801 16.9902 23.8878V23.6931H16.9903Z" fill="#1D1D1B"/>
<path d="M19.8736 22.8466C19.971 23.3407 20.2704 23.7604 20.8175 23.7604C21.2588 23.7604 21.4235 23.4907 21.4235 23.2287C21.4235 22.3448 19.7912 22.6292 19.7912 21.4236C19.7912 21.0039 20.1287 20.4644 20.9523 20.4644C21.1916 20.4644 21.5137 20.532 21.8057 20.682L21.8582 21.4453H21.6861C21.6113 20.974 21.3491 20.7045 20.8694 20.7045C20.5696 20.7045 20.2853 20.8767 20.2853 21.1987C20.2853 22.0757 22.0232 21.8053 22.0232 22.9814C22.0232 23.4756 21.6263 24.0003 20.7346 24.0003C20.4351 24.0003 20.083 23.8955 19.8211 23.7457L19.7383 22.8844L19.8736 22.8466Z" fill="#1D1D1B"/>
<path d="M28.7876 20.0139H28.6006C28.458 19.1382 27.8361 18.7857 26.9977 18.7857C26.1358 18.7857 24.8845 19.3621 24.8845 21.16C24.8845 22.6737 25.9642 23.7595 27.117 23.7595C27.8584 23.7595 28.4732 23.2505 28.6231 22.4634L28.7952 22.5083L28.6231 23.602C28.3083 23.7973 27.4619 23.9994 26.9672 23.9994C25.2149 23.9994 24.1064 22.8682 24.1064 21.1828C24.1064 19.647 25.4769 18.5454 26.9449 18.5454C27.5515 18.5454 28.136 18.7407 28.7124 18.9432L28.7876 20.0139Z" fill="#1D1D1B"/>
<path d="M29.0576 23.6921H29.1994C29.4097 23.6921 29.5595 23.6921 29.5595 23.4443V19.2728C29.5595 18.7857 29.4471 18.7708 29.1625 18.6884V18.5686C29.462 18.4714 29.7766 18.3366 29.9338 18.2462C30.0158 18.2015 30.0761 18.1636 30.0982 18.1636C30.1436 18.1636 30.1588 18.2088 30.1588 18.2689V23.4443C30.1588 23.6921 30.3234 23.6921 30.5334 23.6921H30.66V23.8869C30.4061 23.8869 30.1436 23.8718 29.8742 23.8718C29.6047 23.8718 29.3349 23.8791 29.0576 23.8869V23.6921Z" fill="#1D1D1B"/>
<path d="M33.8672 23.4746C33.8672 23.6099 33.9492 23.617 34.0765 23.617C34.1665 23.617 34.2786 23.6099 34.3764 23.6099V23.7674C34.0538 23.7973 33.4396 23.9546 33.2973 23.9994L33.2598 23.9769V23.3702C32.8109 23.7372 32.4661 23.9994 31.9335 23.9994C31.529 23.9994 31.1098 23.7373 31.1098 23.1083V21.1902C31.1098 20.9954 31.08 20.8082 30.6611 20.771V20.6284C30.9308 20.621 31.529 20.5762 31.6268 20.5762C31.7098 20.5762 31.7098 20.6284 31.7098 20.7933V22.7256C31.7098 22.9505 31.7098 23.5946 32.361 23.5946C32.6156 23.5946 32.9527 23.3999 33.267 23.1383V21.1225C33.267 20.973 32.9076 20.891 32.6385 20.8161V20.681C33.3119 20.6359 33.732 20.5762 33.8068 20.5762C33.8671 20.5762 33.8671 20.6284 33.8671 20.7112V23.4746H33.8672Z" fill="#1D1D1B"/>
<path d="M35.3578 23.0404C35.3578 23.3251 35.6273 23.8049 36.1292 23.8049C36.9307 23.8049 37.2676 23.0181 37.2676 22.3511C37.2676 21.5424 36.6539 20.8684 36.0697 20.8684C35.7916 20.8684 35.5599 21.0486 35.3578 21.2209V23.0404ZM35.3578 21.0029C35.6571 20.7486 36.062 20.4637 36.4739 20.4637C37.3429 20.4637 37.8669 21.2209 37.8669 22.0369C37.8669 23.0182 37.1478 23.9997 36.0763 23.9997C35.5227 23.9997 35.2305 23.8199 35.0354 23.7375L34.811 23.9095L34.6543 23.8274C34.7204 23.3854 34.7587 22.9508 34.7587 22.4939V19.2732C34.7587 18.786 34.6458 18.7711 34.3613 18.6888V18.5689C34.6616 18.4717 34.9756 18.3369 35.1329 18.2466C35.2154 18.2019 35.275 18.1641 35.2981 18.1641C35.343 18.1641 35.3578 18.2093 35.3578 18.2692V21.0029Z" fill="#1D1D1B"/>
</svg>
