<svg width="41" height="28" viewBox="0 0 41 28" fill="none" xmlns="http://www.w3.org/2000/svg">
<rect x="0.291667" y="0.291667" width="40.25" height="27.4167" rx="1.45833" fill="white"/>
<rect x="0.291667" y="0.291667" width="40.25" height="27.4167" rx="1.45833" stroke="#D4DCDD" stroke-width="0.583333"/>
<path fill-rule="evenodd" clip-rule="evenodd" d="M28.0512 14.4457H28.0695H28.1049H28.1403H28.1758H28.2112H28.2466H28.282H28.3174H28.3528H28.3882H28.4237H28.4591H28.4945H28.5299H28.5653H28.6007H28.6361H28.6716H28.707H28.7424H28.7778H28.8132H28.8486H28.8841H28.9195H28.9549H28.9903H29.0257H29.0611H29.0966H29.132H29.1674H29.2028H29.2382H29.2737H29.3091H29.3445H29.3799H29.4153H29.4507H29.4862H29.5216H29.557H29.5924H29.6278H29.6632H29.6987H29.7341H29.7695H29.8049H29.8403H29.8757H29.9111H29.9466H29.982H30.0174H30.0528H30.0882H30.1236H30.159H30.1885L30.1945 14.4459C30.2054 14.4461 30.2173 14.4466 30.2299 14.4473C30.2413 14.4479 30.2531 14.4487 30.2653 14.4496C30.277 14.4505 30.2888 14.4515 30.3007 14.4525C30.3127 14.4536 30.3245 14.4548 30.3361 14.4561C30.3483 14.4575 30.3602 14.4589 30.3715 14.4604C30.3842 14.4621 30.3962 14.4639 30.407 14.4657C30.4148 14.4671 30.422 14.4684 30.4284 14.4698L30.4424 14.473C30.4542 14.4757 30.466 14.4787 30.4778 14.482C30.4897 14.4852 30.5015 14.4887 30.5132 14.4925C30.5251 14.4962 30.5369 14.5003 30.5486 14.5045C30.5605 14.5088 30.5723 14.5134 30.584 14.5182C30.596 14.523 30.6078 14.5282 30.6195 14.5335C30.6314 14.539 30.6432 14.5446 30.6549 14.5506C30.6668 14.5566 30.6786 14.5629 30.6903 14.5695C30.7022 14.5762 30.7141 14.5833 30.7257 14.5905C30.7377 14.598 30.7495 14.6056 30.7611 14.6136C30.7731 14.6218 30.7849 14.6303 30.7965 14.639C30.8085 14.6481 30.8204 14.6574 30.832 14.6671C30.844 14.6771 30.8558 14.6875 30.8674 14.6981C30.8795 14.7092 30.8913 14.7206 30.9028 14.7323C30.915 14.7446 30.9267 14.7574 30.9382 14.7704C30.9504 14.7843 30.9622 14.7986 30.9736 14.8132C30.9859 14.829 30.9977 14.8451 31.0091 14.8617C31.0214 14.8799 31.0333 14.8986 31.0445 14.9177C31.0571 14.9393 31.0689 14.9615 31.0799 14.9844C31.0929 15.0114 31.1048 15.0393 31.1153 15.0679C31.1295 15.1064 31.1413 15.1464 31.1507 15.1876C31.1669 15.259 31.1756 15.3342 31.1756 15.4128C31.1756 15.4917 31.1669 15.5673 31.1507 15.639C31.1413 15.6803 31.1295 15.7203 31.1153 15.7589C31.1047 15.7876 31.0929 15.8155 31.0799 15.8427C31.0689 15.8655 31.0571 15.8877 31.0445 15.9094C31.0333 15.9286 31.0215 15.9472 31.0091 15.9654C30.9977 15.982 30.9859 15.9982 30.9736 16.0139C30.9622 16.0286 30.9504 16.0428 30.9382 16.0567C30.9267 16.0697 30.9149 16.0825 30.9028 16.0948C30.8913 16.1065 30.8794 16.1179 30.8674 16.129C30.8558 16.1396 30.844 16.1498 30.832 16.1598C30.8204 16.1695 30.8086 16.1788 30.7965 16.1878C30.7849 16.1966 30.7731 16.205 30.7611 16.2132C30.7495 16.2211 30.7377 16.2288 30.7257 16.2362C30.7141 16.2434 30.7022 16.2504 30.6903 16.257C30.6786 16.2636 30.6668 16.2699 30.6549 16.2759C30.6432 16.2818 30.6314 16.2874 30.6195 16.2929C30.6078 16.2982 30.596 16.3032 30.584 16.3081C30.5723 16.3128 30.5605 16.3173 30.5486 16.3216C30.5369 16.3258 30.5251 16.3297 30.5132 16.3335C30.5015 16.3372 30.4897 16.3406 30.4778 16.3438C30.466 16.347 30.4542 16.3499 30.4424 16.3527L30.4284 16.3558C30.422 16.3573 30.4148 16.3587 30.407 16.3601C30.3962 16.362 30.3842 16.3638 30.3715 16.3655C30.3602 16.3671 30.3483 16.3685 30.3361 16.3699C30.3245 16.3712 30.3127 16.3724 30.3007 16.3734C30.2888 16.3745 30.277 16.3755 30.2653 16.3763C30.2531 16.3772 30.2413 16.3779 30.2299 16.3785C30.2173 16.3792 30.2054 16.3796 30.1945 16.3799L30.1755 16.3801H30.159H30.1236H30.0882H30.0528H30.0174H29.982H29.9466H29.9111H29.8757H29.8403H29.8049H29.7695H29.7341H29.6987H29.6632H29.6278H29.5924H29.557H29.5216H29.4862H29.4507H29.4153H29.3799H29.3445H29.3091H29.2737H29.2382H29.2028H29.1674H29.132H29.0966H29.0611H29.0257H28.9903H28.9549H28.9195H28.8841H28.8486H28.8132H28.7778H28.7424H28.707H28.6716H28.6361H28.6007H28.5653H28.5299H28.4945H28.4591H28.4237H28.3882H28.3528H28.3174H28.282H28.2466H28.2112H28.1758H28.1403H28.1049H28.0695H28.0512V14.4457ZM30.9029 12.2564C30.9172 12.3213 30.9248 12.3901 30.9248 12.4625C30.9248 12.5348 30.9172 12.6035 30.9029 12.6684C30.8938 12.7101 30.8819 12.7501 30.8675 12.7886C30.857 12.8166 30.8452 12.8437 30.8321 12.8699C30.8211 12.8919 30.8093 12.9132 30.7967 12.9339C30.7855 12.9521 30.7736 12.9698 30.7612 12.987C30.7499 13.0027 30.7381 13.0179 30.7258 13.0326C30.7144 13.0463 30.7026 13.0597 30.6904 13.0726C30.679 13.0847 30.6672 13.0965 30.655 13.1079C30.6435 13.1188 30.6317 13.1293 30.6196 13.1395C30.608 13.1492 30.5962 13.1586 30.5842 13.1677C30.5726 13.1765 30.5608 13.185 30.5488 13.1932C30.5372 13.2012 30.5253 13.2088 30.5133 13.2161C30.5017 13.2233 30.4899 13.2302 30.4779 13.2368C30.4663 13.2433 30.4545 13.2495 30.4425 13.2554C30.4308 13.2612 30.419 13.2667 30.4071 13.2721C30.3954 13.2772 30.3836 13.2822 30.3717 13.2869C30.36 13.2915 30.3482 13.2958 30.3363 13.3C30.3246 13.3041 30.3128 13.3079 30.3009 13.3115C30.2891 13.315 30.2773 13.3184 30.2654 13.3215C30.2537 13.3245 30.2419 13.3273 30.23 13.3299C30.2183 13.3325 30.2065 13.3348 30.1946 13.3369L30.186 13.3384C30.1791 13.3396 30.17 13.341 30.1592 13.3423C30.1487 13.3437 30.1367 13.345 30.1238 13.3463C30.1126 13.3475 30.1007 13.3486 30.0884 13.3496C30.0768 13.3506 30.0649 13.3514 30.0529 13.3522C30.0411 13.353 30.0291 13.3536 30.0175 13.3541C30.0053 13.3546 29.9934 13.3549 29.9821 13.3549L29.9765 13.355H29.9467H29.9113H29.8759H29.8405H29.805H29.7696H29.7342H29.6988H29.6634H29.628H29.5926H29.5571H29.5217H29.4863H29.4509H29.4155H29.3801H29.3447H29.3092H29.2738H29.2384H29.203H29.1676H29.1322H29.0967H29.0613H29.0259H28.9905H28.9551H28.9197H28.8843H28.8488H28.8134H28.778H28.7426H28.7072H28.6718H28.6364H28.6009H28.5655H28.5301H28.4947H28.4593H28.4239H28.3885H28.353H28.3176H28.2822H28.2468H28.2114H28.176H28.1406H28.1051H28.0697H28.0512V11.5699H28.0697H28.1051H28.1406H28.176H28.2114H28.2468H28.2822H28.3176H28.353H28.3885H28.4239H28.4593H28.4947H28.5301H28.5655H28.6009H28.6364H28.6718H28.7072H28.7426H28.778H28.8134H28.8488H28.8843H28.9197H28.9551H28.9905H29.0259H29.0613H29.0967H29.1322H29.1676H29.203H29.2384H29.2738H29.3092H29.3447H29.3801H29.4155H29.4509H29.4863H29.5217H29.5571H29.5926H29.628H29.6634H29.6988H29.7342H29.7696H29.805H29.8405H29.8759H29.9113H29.9467H29.9821H29.9971L30.0175 11.5706C30.0291 11.571 30.0411 11.5717 30.0529 11.5725C30.0649 11.5733 30.0768 11.5741 30.0884 11.5751C30.1007 11.5761 30.1126 11.5772 30.1238 11.5783C30.1367 11.5795 30.1487 11.5808 30.1592 11.582C30.17 11.5832 30.1791 11.5844 30.186 11.5854L30.1946 11.5869C30.2065 11.5891 30.2183 11.5915 30.23 11.5941C30.2419 11.5967 30.2537 11.5995 30.2654 11.6026C30.2773 11.6057 30.2891 11.6091 30.3009 11.6126C30.3128 11.6163 30.3246 11.6201 30.3363 11.6242C30.3482 11.6284 30.36 11.6328 30.3717 11.6374C30.3836 11.6421 30.3954 11.6471 30.4071 11.6523C30.419 11.6577 30.4308 11.6632 30.4425 11.669C30.4545 11.675 30.4663 11.6811 30.4779 11.6876C30.4899 11.6942 30.5017 11.7012 30.5133 11.7083C30.5253 11.7157 30.5372 11.7233 30.5488 11.7312C30.5608 11.7394 30.5726 11.748 30.5842 11.7568C30.5962 11.7659 30.608 11.7753 30.6196 11.7851C30.6317 11.7953 30.6435 11.8058 30.655 11.8167C30.6672 11.8281 30.679 11.8398 30.6904 11.852C30.7026 11.8649 30.7144 11.8782 30.7258 11.892C30.7381 11.9067 30.7499 11.9219 30.7612 11.9376C30.7736 11.9548 30.7855 11.9725 30.7967 11.9908C30.8093 12.0114 30.8211 12.0327 30.8321 12.0547C30.8452 12.0809 30.857 12.1081 30.8675 12.1361C30.8819 12.1745 30.8938 12.2146 30.9029 12.2564ZM35.295 3H35.3095L35.3095 21.3334C35.3095 21.4429 35.3044 21.5512 35.295 21.6583C35.2867 21.7526 35.2749 21.8458 35.2596 21.9379C35.2493 21.9997 35.2375 22.061 35.2242 22.1218C35.2133 22.1712 35.2015 22.2203 35.1887 22.269C35.1777 22.311 35.1658 22.3527 35.1533 22.3941C35.142 22.4315 35.1303 22.4688 35.1179 22.5057C35.1066 22.5392 35.0947 22.5724 35.0825 22.6054C35.0711 22.6362 35.0592 22.6667 35.0471 22.6971C35.0356 22.7257 35.0238 22.754 35.0116 22.7822C35.0001 22.8089 34.9883 22.8354 34.9762 22.8618C34.9647 22.8869 34.9529 22.9119 34.9408 22.9367C34.9292 22.9605 34.9174 22.9841 34.9054 23.0076C34.8938 23.0301 34.882 23.0525 34.87 23.0747C34.8584 23.0961 34.8465 23.1172 34.8345 23.1384C34.8229 23.1588 34.8111 23.1791 34.7991 23.1993C34.7875 23.2189 34.7757 23.2385 34.7637 23.2579C34.752 23.2768 34.7403 23.2956 34.7283 23.3143C34.7166 23.3324 34.7047 23.3503 34.6928 23.3681C34.6812 23.3855 34.6693 23.4027 34.6574 23.4199C34.6457 23.4368 34.6339 23.4536 34.622 23.4703C34.6103 23.4865 34.5985 23.5027 34.5866 23.5188C34.5749 23.5344 34.563 23.5499 34.5511 23.5653C34.5394 23.5806 34.5276 23.5958 34.5157 23.6108C34.504 23.6255 34.4922 23.6402 34.4803 23.6547C34.4686 23.669 34.4567 23.6831 34.4449 23.6971C34.4331 23.711 34.4214 23.725 34.4094 23.7387C34.3978 23.7521 34.3859 23.7653 34.374 23.7786C34.3623 23.7916 34.3505 23.8046 34.3386 23.8175C34.3269 23.8303 34.3151 23.843 34.3032 23.8555C34.2915 23.8679 34.2796 23.88 34.2678 23.8921C34.256 23.9042 34.2443 23.9164 34.2323 23.9283C34.2206 23.9399 34.2088 23.9513 34.1969 23.9628C34.1852 23.9742 34.1734 23.9857 34.1615 23.9969C34.1498 24.008 34.1379 24.0189 34.1261 24.0299C34.1143 24.0407 34.1025 24.0514 34.0906 24.0621C34.0789 24.0726 34.0671 24.0831 34.0552 24.0935C34.0435 24.1037 34.0317 24.1139 34.0198 24.124C34.008 24.134 33.9963 24.144 33.9844 24.1539C33.9727 24.1637 33.9608 24.1733 33.949 24.1829C33.9372 24.1924 33.9254 24.2019 33.9136 24.2113C33.9018 24.2206 33.89 24.2297 33.8781 24.2388C33.8664 24.2479 33.8546 24.2569 33.8427 24.2659C33.831 24.2747 33.8191 24.2833 33.8073 24.292C33.7955 24.3006 33.7837 24.3093 33.7718 24.3178C33.7601 24.3262 33.7483 24.3344 33.7364 24.3426C33.7246 24.3508 33.7129 24.3591 33.701 24.3672C33.6893 24.3752 33.6774 24.3829 33.6656 24.3908C33.6538 24.3986 33.6421 24.4064 33.6302 24.4141C33.6184 24.4217 33.6066 24.4292 33.5948 24.4366C33.583 24.444 33.5712 24.4515 33.5593 24.4587C33.5476 24.4659 33.5358 24.4731 33.5239 24.4802L33.4885 24.5011C33.4767 24.508 33.4649 24.5148 33.4531 24.5216C33.4413 24.5283 33.4295 24.5348 33.4176 24.5414C33.4058 24.5479 33.3941 24.5545 33.3822 24.5609C33.3705 24.5673 33.3586 24.5734 33.3468 24.5796C33.335 24.5858 33.3233 24.5922 33.3114 24.5983C33.2996 24.6043 33.2878 24.61 33.276 24.6159C33.2642 24.6218 33.2524 24.6277 33.2405 24.6335C33.2288 24.6392 33.2169 24.6448 33.2051 24.6503L33.1697 24.6669L33.1343 24.6829C33.1225 24.6882 33.1107 24.6933 33.0988 24.6984C33.087 24.7035 33.0753 24.7088 33.0634 24.7137C33.0517 24.7187 33.0398 24.7234 33.028 24.7282C33.0162 24.733 33.0045 24.738 32.9926 24.7427C32.9808 24.7473 32.969 24.7518 32.9572 24.7563C32.9454 24.7608 32.9336 24.7653 32.9218 24.7697L32.8863 24.7828C32.8745 24.787 32.8627 24.7912 32.8509 24.7953C32.8391 24.7994 32.8274 24.8037 32.8155 24.8077C32.8037 24.8117 32.7918 24.8154 32.78 24.8192L32.7446 24.8307C32.7329 24.8344 32.721 24.838 32.7092 24.8416L32.6738 24.8521C32.662 24.8556 32.6502 24.8591 32.6384 24.8625C32.6266 24.8658 32.6148 24.8689 32.6029 24.8721C32.5911 24.8752 32.5794 24.8785 32.5675 24.8816L32.5321 24.8905L32.4967 24.8992L32.4613 24.9076C32.4495 24.9103 32.4377 24.9127 32.4258 24.9153C32.414 24.9179 32.4023 24.9206 32.3904 24.923L32.355 24.9301L32.3196 24.9369C32.3078 24.9391 32.296 24.9415 32.2841 24.9435C32.2724 24.9456 32.2605 24.9474 32.2487 24.9494L32.2133 24.9553L32.1779 24.9606L32.1425 24.9655C32.1306 24.9671 32.1189 24.969 32.107 24.9705C32.0953 24.972 32.0834 24.9732 32.0716 24.9745C32.0598 24.9759 32.048 24.9773 32.0362 24.9786C32.0244 24.9798 32.0126 24.9811 32.0008 24.9823C31.989 24.9834 31.9771 24.9844 31.9653 24.9854C31.9535 24.9864 31.9417 24.9876 31.9299 24.9886C31.9181 24.9895 31.9063 24.9902 31.8945 24.991L31.8591 24.9933C31.8473 24.994 31.8355 24.9948 31.8237 24.9954C31.8119 24.996 31.8 24.9963 31.7882 24.9967L31.7528 24.9981L31.7174 24.999C31.7056 24.9993 31.6938 24.9993 31.682 24.9995L31.6465 24.9999L31.6392 25H31.6111H31.5757H31.5403H31.5049H31.4694H31.434H31.3986H31.3632H31.3277H31.2923H31.2569H31.2215H31.1861H31.1507H31.1152H31.0798H31.0444H31.0089H30.9735H30.9381H30.9027H30.8673H30.8319H30.7964H30.761H30.7256H30.6902H30.6547H30.6193H30.5839H30.5485H30.5131H30.4776H30.4422H30.4068H30.3714H30.3359H30.3005H30.2651H30.2297H30.1942H30.1588H30.1234H30.088H30.0526H30.0171H29.9817H29.9463H29.9109H29.8754H29.84H29.8046H29.7692H29.7338H29.6983H29.6629H29.6275H29.5921H29.5566H29.5212H29.4858H29.4504H29.415H29.3796H29.3441H29.3087H29.2733H29.2378H29.2024H29.167H29.1316H29.0962H29.0608H29.0253H28.9899H28.9545H28.9191H28.8836H28.8482H28.8128H28.7774H28.742H28.7065H28.6711H28.6357H28.6003H28.5648H28.5294H28.494H28.4586H28.4232H28.3877H28.3523H28.3169H28.2815H28.246H28.2106H28.1752H28.1398H28.1044H28.0689H28.0335H27.9981H27.9627H27.9273H27.8918H27.8564H27.821H27.7856H27.7501H27.7147H27.6793H27.6439H27.6085H27.573H27.5376H27.5022H27.4668H27.4313H27.3959H27.3605H27.3251H27.2897H27.2542H27.2188H27.1834H27.148H27.1125H27.0771H27.0417H27.0063H26.9709H26.9354H26.9H26.8646H26.8292H26.7937H26.7583H26.7229H26.6875H26.6521H26.6167H26.5812H26.5458H26.5104H26.4749H26.4395H26.4041H26.3687H26.3333H26.2568V17.5249H26.3333H26.3687H26.4041H26.4395H26.4749H26.5104H26.5458H26.5812H26.6167H26.6521H26.6875H26.7229H26.7583H26.7937H26.8292H26.8646H26.9H26.9354H26.9709H27.0063H27.0417H27.0771H27.1125H27.148H27.1834H27.2188H27.2542H27.2897H27.3251H27.3605H27.3959H27.4313H27.4668H27.5022H27.5376H27.573H27.6085H27.6439H27.6793H27.7147H27.7501H27.7856H27.821H27.8564H27.8918H27.9273H27.9627H27.9981H28.0335H28.0689H28.1044H28.1398H28.1752H28.2106H28.246H28.2815H28.3169H28.3523H28.3877H28.4232H28.4586H28.494H28.5294H28.5648H28.6003H28.6357H28.6711H28.7065H28.742H28.7774H28.8128H28.8482H28.8836H28.9191H28.9545H28.9899H29.0253H29.0608H29.0962H29.1316H29.167H29.2024H29.2378H29.2733H29.3087H29.3441H29.3796H29.415H29.4504H29.4858H29.5212H29.5566H29.5921H29.6275H29.6629H29.6983H29.7338H29.7692H29.8046H29.84H29.8754H29.9109H29.9463H29.9817H30.0171H30.0526H30.088H30.1234H30.1588H30.1942H30.2297H30.2651H30.3005H30.3359H30.3714H30.4068H30.4422H30.4776H30.5131H30.5485H30.5839H30.6193H30.6547H30.6902H30.7256H30.761H30.7964H30.8319H30.8673H30.9027H30.9381H30.9735H31.0089H31.0444H31.0798H31.1152H31.1507H31.1861H31.2215H31.2569H31.2923H31.3277H31.3632H31.3986H31.434H31.4694H31.5049H31.5403H31.5757H31.6111H31.6465H31.682H31.7174H31.7528H31.7882H31.8237H31.8591H31.8945H31.9299H31.9487L31.9653 17.5247L32.0008 17.5244L32.0362 17.5237C32.048 17.5234 32.0598 17.5232 32.0716 17.5228C32.0835 17.5224 32.0952 17.5218 32.107 17.5213L32.1425 17.5197L32.1779 17.5175L32.2133 17.5151L32.2487 17.5123L32.2841 17.5091C32.2959 17.508 32.3078 17.5069 32.3196 17.5056C32.3314 17.5044 32.3432 17.503 32.355 17.5016L32.3904 17.4973C32.4023 17.4958 32.4141 17.4943 32.4258 17.4927C32.4377 17.491 32.4495 17.4892 32.4613 17.4875C32.4731 17.4857 32.4849 17.4839 32.4967 17.482L32.5321 17.476L32.5675 17.4697C32.5793 17.4675 32.5912 17.4653 32.6029 17.463C32.6148 17.4607 32.6266 17.4582 32.6384 17.4557L32.6738 17.448C32.6856 17.4454 32.6975 17.4428 32.7092 17.44C32.7211 17.4372 32.7329 17.4342 32.7446 17.4313C32.7565 17.4284 32.7683 17.4254 32.78 17.4223C32.7919 17.4192 32.8037 17.4161 32.8155 17.4128C32.8273 17.4095 32.8391 17.4061 32.8509 17.4027C32.8627 17.3993 32.8746 17.3958 32.8863 17.3922L32.9218 17.3811C32.9336 17.3773 32.9454 17.3734 32.9572 17.3694C32.969 17.3655 32.9808 17.3615 32.9926 17.3573C33.0045 17.3532 33.0163 17.349 33.028 17.3447C33.0399 17.3403 33.0517 17.3357 33.0634 17.3312C33.0753 17.3267 33.0871 17.322 33.0988 17.3173C33.1107 17.3125 33.1226 17.3078 33.1343 17.3028C33.1462 17.2978 33.1579 17.2927 33.1697 17.2876C33.1816 17.2824 33.1934 17.277 33.2051 17.2716C33.217 17.2662 33.2288 17.2607 33.2405 17.2551C33.2524 17.2494 33.2642 17.2437 33.276 17.2379C33.2879 17.2319 33.2996 17.2259 33.3114 17.2197C33.3233 17.2135 33.3351 17.2072 33.3468 17.2008C33.3587 17.1943 33.3705 17.1878 33.3822 17.1811C33.3941 17.1744 33.406 17.1675 33.4176 17.1606C33.4295 17.1535 33.4414 17.1464 33.4531 17.1392C33.465 17.1318 33.4768 17.1243 33.4885 17.1167C33.5004 17.1089 33.5122 17.1011 33.5239 17.0931C33.5358 17.085 33.5476 17.0768 33.5593 17.0685C33.5713 17.0601 33.5831 17.0515 33.5948 17.0428C33.6067 17.0339 33.6185 17.025 33.6302 17.0159C33.6421 17.0065 33.6539 16.9972 33.6656 16.9876C33.6775 16.9779 33.6894 16.968 33.701 16.958C33.713 16.9477 33.7248 16.9373 33.7364 16.9267C33.7484 16.9159 33.7602 16.9049 33.7718 16.8938C33.7839 16.8824 33.7957 16.8708 33.8073 16.8591C33.8193 16.8469 33.8311 16.8347 33.8427 16.8222C33.8547 16.8094 33.8665 16.7963 33.8781 16.7832C33.8902 16.7695 33.902 16.7556 33.9136 16.7415C33.9256 16.7269 33.9374 16.7121 33.949 16.6971C33.961 16.6814 33.9729 16.6656 33.9844 16.6495C33.9966 16.6324 34.0083 16.615 34.0198 16.5974C34.032 16.5788 34.0438 16.56 34.0552 16.5409C34.0675 16.5204 34.0793 16.4996 34.0906 16.4786C34.103 16.4557 34.1149 16.4325 34.1261 16.4089C34.1386 16.3826 34.1504 16.3559 34.1615 16.3288C34.1742 16.2977 34.1861 16.2662 34.1969 16.2341C34.2103 16.1945 34.222 16.1542 34.2323 16.1132C34.2475 16.0532 34.2593 15.9916 34.2678 15.9286C34.278 15.852 34.2834 15.7734 34.2834 15.6926C34.2834 15.6139 34.2781 15.5374 34.2678 15.4632C34.2593 15.4022 34.2474 15.3428 34.2323 15.2849C34.222 15.2454 34.2102 15.2067 34.1969 15.1688C34.1861 15.1377 34.1743 15.107 34.1615 15.0769C34.1504 15.0508 34.1386 15.0251 34.1261 14.9998C34.1148 14.9771 34.103 14.9546 34.0906 14.9325C34.0793 14.9122 34.0675 14.892 34.0552 14.8722C34.0439 14.8538 34.032 14.8357 34.0198 14.8178C34.0083 14.8009 33.9966 14.7841 33.9844 14.7677C33.9729 14.7521 33.9611 14.7369 33.949 14.7217C33.9374 14.7072 33.9256 14.6929 33.9136 14.6788C33.902 14.6653 33.8902 14.6518 33.8781 14.6386C33.8665 14.6259 33.8548 14.6133 33.8427 14.6009C33.8311 14.5889 33.8193 14.5771 33.8073 14.5654C33.7957 14.5541 33.7838 14.5429 33.7718 14.5319C33.7602 14.5212 33.7484 14.5106 33.7364 14.5002C33.7248 14.49 33.713 14.48 33.701 14.4701C33.6894 14.4604 33.6775 14.4508 33.6656 14.4414C33.6539 14.4322 33.6421 14.423 33.6302 14.4141C33.6185 14.4053 33.6067 14.3966 33.5948 14.388C33.5831 14.3796 33.5712 14.3713 33.5593 14.3631C33.5476 14.3551 33.5358 14.3472 33.5239 14.3393C33.5122 14.3317 33.5004 14.3241 33.4885 14.3166C33.4768 14.3093 33.465 14.302 33.4531 14.2948C33.4414 14.2878 33.4296 14.2809 33.4176 14.2741C33.4059 14.2673 33.3941 14.2607 33.3822 14.2542C33.3705 14.2477 33.3587 14.2414 33.3468 14.2351C33.3351 14.2289 33.3233 14.2228 33.3114 14.2168C33.2996 14.2109 33.2878 14.205 33.276 14.1992C33.2642 14.1935 33.2524 14.1878 33.2405 14.1823C33.2288 14.1768 33.217 14.1715 33.2051 14.1663C33.1934 14.161 33.1816 14.1559 33.1697 14.1508C33.1579 14.1458 33.1461 14.1409 33.1343 14.136C33.1225 14.1312 33.1108 14.1264 33.0988 14.1217C33.0871 14.1171 33.0753 14.1126 33.0634 14.1081C33.0517 14.1037 33.0399 14.0995 33.028 14.0952C33.0163 14.091 33.0045 14.0869 32.9926 14.0827C32.9808 14.0787 32.969 14.0747 32.9572 14.0707C32.9454 14.0669 32.9336 14.0631 32.9218 14.0594C32.91 14.0557 32.8981 14.0521 32.8863 14.0485L32.8509 14.0382C32.8391 14.0348 32.8273 14.0314 32.8155 14.0282C32.8037 14.025 32.7919 14.0219 32.78 14.0189C32.7683 14.0158 32.7565 14.0129 32.7446 14.0099C32.7329 14.007 32.7211 14.0042 32.7092 14.0014C32.6975 13.9986 32.6856 13.996 32.6738 13.9934C32.662 13.9908 32.6502 13.9883 32.6384 13.9858C32.6266 13.9833 32.6148 13.9809 32.6029 13.9786L32.5675 13.9718L32.5321 13.9655C32.5203 13.9634 32.5085 13.9614 32.4967 13.9595L32.4613 13.9539C32.4495 13.9521 32.4377 13.9504 32.4258 13.9488L32.3904 13.9439L32.355 13.9395L32.3196 13.9355L32.2841 13.9318L32.2487 13.9285L32.2133 13.9255L32.1806 13.923L32.1806 13.8806L32.2133 13.8755L32.2487 13.8697C32.2606 13.8677 32.2724 13.8656 32.2841 13.8635L32.3196 13.8567C32.3314 13.8543 32.3432 13.8519 32.355 13.8494L32.3904 13.8417C32.4023 13.839 32.4141 13.8363 32.4258 13.8335C32.4377 13.8306 32.4495 13.8276 32.4613 13.8246C32.4732 13.8216 32.4849 13.8185 32.4967 13.8153C32.5085 13.8121 32.5204 13.8088 32.5321 13.8054C32.544 13.802 32.5558 13.7986 32.5675 13.795C32.5794 13.7914 32.5912 13.7877 32.6029 13.784C32.6148 13.7802 32.6266 13.7763 32.6384 13.7723C32.6503 13.7683 32.662 13.7641 32.6738 13.76C32.6857 13.7557 32.6975 13.7515 32.7092 13.7471C32.7211 13.7426 32.7329 13.7381 32.7446 13.7335C32.7565 13.7288 32.7683 13.724 32.78 13.7192C32.792 13.7143 32.8038 13.7093 32.8155 13.7042C32.8274 13.699 32.8392 13.6937 32.8509 13.6883C32.8628 13.6829 32.8746 13.6773 32.8863 13.6717C32.8982 13.666 32.91 13.6602 32.9218 13.6543C32.9336 13.6482 32.9455 13.6421 32.9572 13.636C32.9691 13.6296 32.9809 13.6232 32.9926 13.6167C33.0045 13.6101 33.0163 13.6034 33.028 13.5966C33.0399 13.5896 33.0517 13.5826 33.0634 13.5754C33.0754 13.5681 33.0872 13.5607 33.0988 13.5532C33.1108 13.5456 33.1226 13.5377 33.1343 13.5298C33.1462 13.5218 33.158 13.5136 33.1697 13.5053C33.1817 13.4968 33.1935 13.4882 33.2051 13.4795C33.2171 13.4705 33.2289 13.4615 33.2405 13.4523C33.2525 13.4429 33.2643 13.4334 33.276 13.4237C33.2879 13.4137 33.2997 13.4036 33.3114 13.3934C33.3234 13.3828 33.3352 13.3721 33.3468 13.3613C33.3588 13.3501 33.3706 13.3388 33.3822 13.3273C33.3942 13.3155 33.4061 13.3035 33.4176 13.2914C33.4297 13.2787 33.4415 13.2659 33.4531 13.253C33.4651 13.2395 33.4769 13.2258 33.4885 13.212C33.5006 13.1975 33.5124 13.1828 33.5239 13.168C33.536 13.1524 33.5478 13.1365 33.5593 13.1205C33.5715 13.1035 33.5833 13.0864 33.5948 13.069C33.607 13.0504 33.6188 13.0317 33.6302 13.0128C33.6425 12.9922 33.6543 12.9714 33.6656 12.9504C33.678 12.9272 33.6898 12.9038 33.701 12.8801C33.7136 12.8535 33.7254 12.8265 33.7364 12.7992C33.7493 12.7674 33.7611 12.7352 33.7718 12.7025C33.7854 12.6615 33.7972 12.6198 33.8073 12.5775C33.8236 12.509 33.8354 12.4391 33.8427 12.3679C33.8485 12.3118 33.8515 12.2549 33.8515 12.1974C33.8515 12.1367 33.8484 12.0775 33.8427 12.0199C33.8354 11.9461 33.8235 11.8749 33.8073 11.8061C33.7972 11.7632 33.7853 11.7212 33.7718 11.6803C33.7611 11.6475 33.7493 11.6154 33.7364 11.5839C33.7254 11.5568 33.7136 11.5301 33.701 11.5039C33.6898 11.4806 33.678 11.4576 33.6656 11.435C33.6543 11.4143 33.6424 11.394 33.6302 11.3739C33.6187 11.3553 33.607 11.3369 33.5948 11.3189C33.5833 11.3019 33.5715 11.2853 33.5593 11.2689C33.5478 11.2533 33.536 11.238 33.5239 11.2229C33.5123 11.2084 33.5006 11.1941 33.4885 11.1801C33.4769 11.1667 33.4651 11.1536 33.4531 11.1406C33.4415 11.1281 33.4297 11.1158 33.4176 11.1037C33.406 11.0919 33.3942 11.0804 33.3822 11.069C33.3706 11.0579 33.3588 11.047 33.3468 11.0362C33.3352 11.0258 33.3233 11.0155 33.3114 11.0054C33.2997 10.9955 33.2879 10.9858 33.276 10.9762C33.2643 10.9668 33.2525 10.9576 33.2405 10.9485C33.2289 10.9397 33.2171 10.931 33.2051 10.9224C33.1934 10.914 33.1816 10.9057 33.1697 10.8975C33.158 10.8895 33.1462 10.8817 33.1343 10.8739C33.1226 10.8663 33.1108 10.8588 33.0988 10.8514C33.0872 10.8441 33.0753 10.837 33.0634 10.83C33.0517 10.823 33.0399 10.8162 33.028 10.8095C33.0163 10.8029 33.0045 10.7964 32.9926 10.79C32.9809 10.7837 32.9691 10.7775 32.9572 10.7714C32.9454 10.7654 32.9336 10.7595 32.9218 10.7536C32.91 10.7479 32.8982 10.7422 32.8863 10.7366C32.8746 10.7311 32.8628 10.7257 32.8509 10.7204C32.8392 10.7152 32.8274 10.7102 32.8155 10.7051C32.8038 10.7001 32.7919 10.6952 32.78 10.6904C32.7683 10.6856 32.7565 10.6809 32.7446 10.6763C32.7329 10.6718 32.7211 10.6672 32.7092 10.6628C32.6975 10.6585 32.6857 10.6542 32.6738 10.6501C32.662 10.6459 32.6502 10.6419 32.6384 10.6379C32.6266 10.634 32.6148 10.6301 32.6029 10.6264C32.5912 10.6226 32.5794 10.6189 32.5675 10.6153C32.5557 10.6117 32.544 10.6081 32.5321 10.6047C32.5204 10.6013 32.5085 10.5981 32.4967 10.5949C32.4849 10.5916 32.4731 10.5885 32.4613 10.5854L32.4258 10.5764C32.4141 10.5735 32.4023 10.5707 32.3904 10.5679C32.3786 10.5652 32.3668 10.5626 32.355 10.56L32.3196 10.5524C32.3078 10.55 32.296 10.5475 32.2841 10.5452C32.2724 10.543 32.2605 10.5409 32.2487 10.5387L32.2133 10.5325C32.2015 10.5305 32.1898 10.5284 32.1779 10.5266L32.1425 10.5212L32.107 10.5162L32.0716 10.5115L32.0362 10.5073L32.0008 10.5035L31.9653 10.5L31.9299 10.4969L31.8945 10.4941L31.8591 10.4916L31.8237 10.4896L31.8096 10.4888L31.7882 10.4875L31.7528 10.4854L31.7174 10.4834L31.682 10.4816L31.6465 10.4799L31.6111 10.4783L31.5757 10.4771L31.5403 10.476L31.5049 10.4752L31.4694 10.4747L31.4499 10.4746H31.434H31.3986H31.3632H31.3277H31.2923H31.2569H31.2215H31.1861H31.1507H31.1152H31.0798H31.0444H31.0089H30.9735H30.9381H30.9027H30.8673H30.8319H30.7964H30.761H30.7256H30.6902H30.6547H30.6193H30.5839H30.5485H30.5131H30.4776H30.4422H30.4068H30.3714H30.3359H30.3005H30.2651H30.2297H30.1942H30.1588H30.1234H30.088H30.0526H30.0171H29.9817H29.9463H29.9109H29.8754H29.84H29.8046H29.7692H29.7338H29.6983H29.6629H29.6275H29.5921H29.5566H29.5212H29.4858H29.4504H29.415H29.3796H29.3441H29.3087H29.2733H29.2378H29.2024H29.167H29.1316H29.0962H29.0608H29.0253H28.9899H28.9545H28.9191H28.8836H28.8482H28.8128H28.7774H28.742H28.7065H28.6711H28.6357H28.6003H28.5648H28.5294H28.494H28.4586H28.4232H28.3877H28.3523H28.3169H28.2815H28.246H28.2106H28.1752H28.1398H28.1044H28.0689H28.0335H27.9981H27.9627H27.9273H27.8918H27.8564H27.821H27.7856H27.7501H27.7147H27.6793H27.6439H27.6085H27.573H27.5376H27.5022H27.4668H27.4313H27.3959H27.3605H27.3251H27.2897H27.2542H27.2188H27.1834H27.148H27.1125H27.0771H27.0417H27.0063H26.9709H26.9354H26.9H26.8646H26.8292H26.7937H26.7583H26.7229H26.6875H26.6521H26.6167H26.5812H26.5458H26.5104H26.4749H26.4395H26.4041H26.3687H26.3333H26.2568V6.66697C26.2568 6.41081 26.2832 6.16084 26.3333 5.91949C26.344 5.86781 26.3558 5.81656 26.3687 5.76573C26.3797 5.72223 26.3916 5.67905 26.4041 5.6362C26.4153 5.59792 26.4271 5.5599 26.4395 5.52215C26.4509 5.48766 26.4626 5.45334 26.4749 5.41931C26.4864 5.38775 26.4981 5.35637 26.5104 5.32521C26.5219 5.29612 26.5336 5.26717 26.5458 5.23845C26.5573 5.21135 26.5691 5.18436 26.5812 5.15758C26.5927 5.13215 26.6046 5.10689 26.6167 5.08178C26.6282 5.05782 26.64 5.03403 26.6521 5.01036C26.6636 4.9876 26.6755 4.96501 26.6875 4.94251C26.6991 4.92084 26.7109 4.89931 26.7229 4.87789C26.7345 4.85713 26.7463 4.83654 26.7583 4.81603C26.77 4.79614 26.7817 4.77635 26.7937 4.75672C26.8054 4.73768 26.8172 4.71879 26.8292 4.69999C26.8408 4.68178 26.8527 4.66374 26.8646 4.64576C26.8763 4.62816 26.888 4.61062 26.9 4.59322C26.9117 4.57618 26.9234 4.55914 26.9354 4.5423C26.9471 4.52599 26.959 4.50989 26.9709 4.49379C26.9825 4.47795 26.9944 4.46222 27.0063 4.44659C27.018 4.43119 27.0297 4.41573 27.0417 4.40054C27.0534 4.38575 27.0653 4.3712 27.0771 4.3566C27.0888 4.3422 27.1006 4.32791 27.1125 4.31371C27.1243 4.29969 27.136 4.28567 27.148 4.27183C27.1596 4.25833 27.1715 4.24508 27.1834 4.23176C27.1952 4.21856 27.2069 4.20533 27.2188 4.19231C27.2305 4.17955 27.2424 4.1669 27.2542 4.15429C27.2659 4.14185 27.2778 4.12951 27.2897 4.11722C27.3014 4.1051 27.3131 4.09299 27.3251 4.08102C27.3368 4.06926 27.3486 4.05767 27.3605 4.04608C27.3723 4.03456 27.384 4.02291 27.3959 4.01156C27.4076 4.00044 27.4195 3.98959 27.4313 3.97862C27.4431 3.96771 27.4549 3.95677 27.4668 3.946C27.4785 3.93541 27.4904 3.92503 27.5022 3.91462C27.514 3.90426 27.5257 3.89391 27.5376 3.8837C27.5494 3.87364 27.5612 3.86372 27.573 3.85381C27.5848 3.84398 27.5966 3.83419 27.6085 3.82451C27.6202 3.81491 27.632 3.80544 27.6439 3.79602L27.6793 3.76819L27.7147 3.74108C27.7265 3.7322 27.7383 3.72337 27.7501 3.71463C27.7619 3.70597 27.7737 3.69735 27.7856 3.68881L27.821 3.66368C27.8327 3.65543 27.8445 3.64725 27.8564 3.63915L27.8918 3.61519L27.9273 3.59187C27.939 3.58421 27.9508 3.57659 27.9627 3.56908L27.9981 3.54696C28.0099 3.53966 28.0217 3.53236 28.0335 3.5252C28.0453 3.5181 28.0571 3.51121 28.0689 3.50425C28.0807 3.4973 28.0925 3.49029 28.1044 3.48349C28.1161 3.47677 28.128 3.47029 28.1398 3.46369C28.1516 3.45709 28.1633 3.45037 28.1752 3.44392C28.1869 3.43755 28.1988 3.43139 28.2106 3.42514C28.2224 3.4189 28.2342 3.41262 28.246 3.40649C28.2578 3.40042 28.2696 3.39452 28.2815 3.3886C28.2932 3.3827 28.305 3.37678 28.3169 3.371L28.3523 3.3539C28.3641 3.34829 28.3759 3.34284 28.3877 3.33735C28.3995 3.3319 28.4113 3.32635 28.4232 3.32101C28.4349 3.31573 28.4468 3.31069 28.4586 3.30553C28.4704 3.30036 28.4821 3.29511 28.494 3.29007C28.5057 3.28508 28.5176 3.28033 28.5294 3.27546C28.5412 3.27062 28.553 3.26572 28.5648 3.261L28.6003 3.24707L28.6357 3.2336C28.6475 3.22915 28.6593 3.22463 28.6711 3.22032C28.6829 3.21603 28.6947 3.21202 28.7065 3.20785C28.7184 3.20368 28.7301 3.19943 28.742 3.19538C28.7537 3.19137 28.7656 3.18758 28.7774 3.18368L28.8128 3.17221C28.8246 3.16846 28.8364 3.16467 28.8482 3.16104C28.86 3.15743 28.8718 3.15402 28.8836 3.15053C28.8954 3.14701 28.9072 3.14338 28.9191 3.14C28.9308 3.13666 28.9427 3.13355 28.9545 3.13032C28.9663 3.1271 28.9781 3.12384 28.9899 3.12073L29.0253 3.11158C29.0371 3.10862 29.0489 3.1058 29.0608 3.10296C29.0726 3.10011 29.0843 3.09706 29.0962 3.09433C29.1079 3.09163 29.1198 3.08917 29.1316 3.08656L29.167 3.07885L29.2024 3.07154C29.2142 3.0692 29.226 3.067 29.2378 3.06477C29.2497 3.06251 29.2614 3.0601 29.2733 3.05796C29.2851 3.05582 29.2969 3.054 29.3087 3.05201L29.3441 3.04614C29.3559 3.04426 29.3677 3.04233 29.3796 3.04057C29.3913 3.03881 29.4032 3.03725 29.415 3.03561C29.4268 3.03397 29.4385 3.03218 29.4504 3.03065C29.4622 3.02913 29.474 3.02778 29.4858 3.02637L29.5212 3.02232C29.533 3.02103 29.5448 3.01959 29.5566 3.01842C29.5684 3.01725 29.5803 3.01634 29.5921 3.01528L29.6275 3.01214L29.6629 3.00947C29.6747 3.00862 29.6865 3.00795 29.6983 3.00722C29.7101 3.00651 29.7219 3.0056 29.7338 3.00499C29.7455 3.00437 29.7574 3.00402 29.7692 3.00352L29.8046 3.0022C29.8164 3.00182 29.8282 3.00132 29.84 3.00106C29.8518 3.00079 29.8636 3.00076 29.8754 3.00059C29.8872 3.00041 29.8991 3.00021 29.9109 3.00015L29.9198 3.00003H29.9463H29.9817H30.0171H30.0526H30.088H30.1234H30.1588H30.1942H30.2297H30.2651H30.3005H30.3359H30.3714H30.4068H30.4422H30.4776H30.5131H30.5485H30.5839H30.6193H30.6547H30.6902H30.7256H30.761H30.7964H30.8319H30.8673H30.9027H30.9381H30.9735H31.0089H31.0444H31.0798H31.1152H31.1507H31.1861H31.2215H31.2569H31.2923H31.3277H31.3632H31.3986H31.434H31.4694H31.5049H31.5403H31.5757H31.6111H31.6465H31.682H31.7174H31.7528H31.7882H31.8237H31.8591H31.8945H31.9299H31.9653H32.0008H32.0362H32.0716H32.107H32.1425H32.1779H32.2133H32.2487H32.2841H32.3196H32.355H32.3904H32.4258H32.4613H32.4967H32.5321H32.5675H32.6029H32.6384H32.6738H32.7092H32.7446H32.78H32.8155H32.8509H32.8863H32.9218H32.9572H32.9926H33.028H33.0634H33.0988H33.1343H33.1697H33.2051H33.2405H33.276H33.3114H33.3468H33.3822H33.4176H33.4531H33.4885H33.5239H33.5593H33.5948H33.6302H33.6656H33.701H33.7364H33.7718H33.8073H33.8427H33.8781H33.9136H33.949H33.9844H34.0198H34.0552H34.0906H34.1261H34.1615H34.1969H34.2323H34.2678H34.3032H34.3386H34.374H34.4094H34.4449H34.4803H34.5157H34.5511H34.5866H34.622H34.6574H34.6928H34.7283H34.7637H34.7991H34.8345H34.87H34.9054H34.9408H34.9762H35.0116H35.0471H35.0825H35.1179H35.1533H35.1887H35.2242H35.2596L35.295 3Z" fill="#479951"/>
<path fill-rule="evenodd" clip-rule="evenodd" d="M6.07595 15.7588C6.05061 15.7468 6.02531 15.7347 6 15.7224V6.66694C6 6.41151 6.02619 6.16219 6.07595 5.92148C6.08664 5.8698 6.0985 5.81859 6.11133 5.76772C6.12231 5.72417 6.13414 5.68096 6.14667 5.63805C6.15786 5.5998 6.16966 5.56184 6.18202 5.52412C6.19335 5.48959 6.20507 5.45522 6.2174 5.42113C6.22882 5.3896 6.2405 5.35824 6.25275 5.32712C6.26417 5.29802 6.27597 5.26901 6.28812 5.24027C6.2996 5.21316 6.31137 5.18624 6.32347 5.15949C6.33498 5.13405 6.34678 5.10883 6.35882 5.08372C6.37033 5.05973 6.38219 5.03591 6.39419 5.01221C6.40573 4.98945 6.41753 4.96686 6.42954 4.94439C6.44111 4.92271 6.45291 4.90118 6.46489 4.87977C6.47648 4.85903 6.48826 4.83841 6.50026 4.81794C6.51189 4.79805 6.5236 4.77822 6.53561 4.75857C6.54724 4.73956 6.55904 4.7207 6.57099 4.70193C6.58256 4.68374 6.59445 4.66567 6.60634 4.64769C6.61799 4.63009 6.62973 4.61255 6.64168 4.59516C6.65343 4.57809 6.66505 4.56104 6.67706 4.54418C6.68866 4.5279 6.70055 4.51182 6.71241 4.49572C6.72409 4.47988 6.73586 4.46416 6.74778 4.44853C6.7595 4.43316 6.77118 4.41767 6.78313 4.40247C6.79476 4.38772 6.80665 4.3732 6.81848 4.35862C6.83016 4.34422 6.84194 4.32988 6.85386 4.31565C6.86557 4.30166 6.87728 4.2877 6.8892 4.27388C6.90086 4.26036 6.91272 4.24707 6.92458 4.23372C6.93629 4.22049 6.94801 4.2073 6.95993 4.19427C6.97158 4.18151 6.98344 4.16893 6.99527 4.15634C7.00699 4.14388 7.01876 4.13153 7.03065 4.11924C7.04237 4.10712 7.05411 4.09501 7.066 4.08304C7.07768 4.07128 7.08954 4.05969 7.10138 4.04811C7.11315 4.03658 7.1248 4.02496 7.13672 4.01361C7.14838 4.0025 7.16027 3.99164 7.17207 3.98067C7.18384 3.96973 7.19553 3.95876 7.20745 3.948C7.21913 3.93744 7.23099 3.92708 7.24279 3.91667C7.25457 3.90631 7.26628 3.89593 7.27817 3.88572C7.28988 3.87566 7.30169 3.86578 7.31352 3.85586C7.32523 3.84604 7.337 3.83621 7.34887 3.82653C7.36058 3.81697 7.37241 3.80749 7.38424 3.79805C7.39599 3.78869 7.40773 3.77942 7.41959 3.77021C7.4313 3.76109 7.44313 3.75208 7.45497 3.74311C7.46671 3.73422 7.47848 3.72536 7.49031 3.71662L7.52566 3.69087C7.5374 3.68239 7.54918 3.67397 7.56104 3.66564C7.57275 3.6574 7.58455 3.64924 7.59638 3.64115C7.60813 3.63308 7.6199 3.62507 7.63173 3.61716C7.64348 3.60932 7.65528 3.60161 7.66711 3.59389C7.67885 3.58624 7.6906 3.57852 7.70246 3.57099C7.71417 3.56354 7.726 3.55626 7.73783 3.54893C7.74961 3.54162 7.76132 3.53423 7.77318 3.52708C7.78486 3.52001 7.79673 3.51314 7.80853 3.50619C7.82033 3.49924 7.83201 3.49217 7.8439 3.48534C7.85559 3.47862 7.86748 3.47219 7.87925 3.46559C7.89105 3.45899 7.90277 3.45231 7.91463 3.44582C7.92634 3.43943 7.93817 3.43327 7.94998 3.42702C7.96175 3.42077 7.97349 3.4145 7.98532 3.40837C7.99707 3.40229 8.00887 3.39634 8.0207 3.39039L8.05605 3.37285C8.06782 3.36707 8.07959 3.36129 8.09142 3.35566C8.10317 3.35005 8.11497 3.34463 8.12677 3.33914C8.13857 3.33366 8.15026 3.32805 8.16212 3.32272C8.17383 3.31741 8.18569 3.31242 8.1975 3.30726C8.20927 3.3021 8.22101 3.29684 8.23284 3.2918C8.24459 3.28681 8.25642 3.282 8.26822 3.27713L8.30357 3.2627L8.33891 3.24868L8.37429 3.23525C8.38609 3.23079 8.39778 3.22618 8.40964 3.22184C8.42135 3.21756 8.43324 3.21357 8.44501 3.2094C8.45679 3.20524 8.46853 3.20102 8.48036 3.19697L8.51571 3.18515L8.55109 3.17368C8.56286 3.16992 8.5746 3.16608 8.58643 3.16244C8.59815 3.15884 8.61001 3.1554 8.62178 3.15191C8.63358 3.14839 8.64533 3.14481 8.65716 3.14141C8.6689 3.13804 8.6807 3.1349 8.6925 3.13164L8.72788 3.12205C8.73965 3.11894 8.7514 3.11578 8.76323 3.11278C8.77497 3.10979 8.7868 3.10706 8.79858 3.10419C8.81035 3.10131 8.82212 3.09832 8.83395 3.09557C8.8457 3.09284 8.85753 3.09029 8.8693 3.08767L8.90468 3.07999C8.91645 3.07747 8.92819 3.07492 8.94002 3.07254C8.95177 3.07019 8.9636 3.06802 8.97537 3.06576C8.98717 3.0635 8.99892 3.06116 9.01075 3.05902C9.02252 3.05688 9.03429 3.05494 9.0461 3.05292L9.08147 3.04705C9.09324 3.04517 9.10499 3.04315 9.11682 3.04136C9.12856 3.03957 9.14039 3.03807 9.15217 3.0364C9.16394 3.03476 9.17571 3.033 9.18754 3.03144L9.22289 3.02702L9.25827 3.023C9.27007 3.02168 9.28178 3.02015 9.29362 3.01895C9.30536 3.01775 9.31719 3.01687 9.32896 3.01578L9.36434 3.01267C9.37611 3.01167 9.38788 3.01071 9.39969 3.00986C9.41146 3.00901 9.42326 3.00833 9.43506 3.0076C9.44687 3.00686 9.45861 3.00601 9.47041 3.00537C9.48215 3.00472 9.49396 3.00428 9.50576 3.00375L9.54113 3.00241C9.55291 3.00199 9.56465 3.00138 9.57648 3.00109C9.58823 3.00079 9.60006 3.00082 9.61183 3.00065C9.6236 3.00047 9.6354 3.00026 9.64721 3.00021L9.66291 3H9.68255H9.71793H9.75328H9.78862H9.824H9.85935H9.89473H9.93007H9.96542H10.0008H10.0361H10.0715H10.1069H10.1422H10.1776H10.2129H10.2483H10.2837H10.319H10.3544H10.3897H10.4251H10.4605H10.4958H10.5312H10.5665H10.6019H10.6373H10.6726H10.708H10.7433H10.7787H10.8141H10.8494H10.8848H10.9201H10.9555H10.9908H11.0262H11.0616H11.0969H11.1323H11.1676H11.203H11.2384H11.2737H11.3091H11.3444H11.3798H11.4152H11.4505H11.4859H11.5212H11.5566H11.592H11.6273H11.6627H11.698H11.7334H11.7687H11.8041H11.8394H11.8748H11.9102H11.9455H11.9809H12.0162H12.0516H12.087H12.1223H12.1577H12.193H12.2284H12.2638H12.2991H12.3345H12.3698H12.4052H12.4406H12.4759H12.5113H12.5466H12.582H12.6174H12.6527H12.6881H12.7234H12.7588H12.7941H12.8295H12.8649H12.9002H12.9356H12.9709H13.0063H13.0417H13.077H13.1124H13.1477H13.1831H13.2185H13.2538H13.2892H13.3245H13.3599H13.3953H13.4306H13.466H13.5013H13.5367H13.5721H13.6074H13.6427H13.6781H13.7135H13.7488H13.7842H13.8195H13.8549H13.8903H13.9256H13.961H13.9963H14.0317H14.0671H14.1024H14.1378H14.1731H14.2085H14.2439H14.2792H14.3146H14.3499H14.3853H14.4207H14.456H14.4914H14.5267H14.5621H14.5974H14.6328H14.6682H14.7035H14.7389H14.7742H14.8096H14.845H14.8803H14.9157H14.951H14.9864H15.0218H15.0518V21.3334C15.0518 21.4928 15.0415 21.6499 15.0218 21.8041C15.0123 21.8783 15.0003 21.9517 14.9864 22.0244C14.9758 22.0797 14.9641 22.1347 14.951 22.1891C14.9401 22.2349 14.9283 22.2804 14.9157 22.3256C14.9045 22.3652 14.8927 22.4046 14.8803 22.4436C14.8691 22.479 14.8572 22.5141 14.845 22.549C14.8336 22.5813 14.8218 22.6134 14.8096 22.6453C14.7982 22.6751 14.7864 22.7046 14.7742 22.734C14.7628 22.7617 14.751 22.7892 14.7389 22.8165C14.7274 22.8425 14.7156 22.8682 14.7035 22.8939C14.692 22.9183 14.6802 22.9426 14.6682 22.9667C14.6566 22.9899 14.6448 23.0129 14.6328 23.0358C14.6212 23.0578 14.6095 23.0797 14.5974 23.1015C14.5858 23.1225 14.5741 23.1435 14.5621 23.1643C14.5505 23.1844 14.5387 23.2043 14.5267 23.2242C14.5152 23.2433 14.5033 23.2623 14.4914 23.2813C14.4798 23.2998 14.4679 23.3182 14.456 23.3364C14.4443 23.3543 14.4326 23.3721 14.4207 23.3898C14.409 23.4069 14.3972 23.4238 14.3853 23.4407C14.3737 23.4573 14.3618 23.4736 14.3499 23.49C14.3382 23.506 14.3265 23.522 14.3146 23.5378C14.3029 23.5533 14.2911 23.5687 14.2792 23.584C14.2676 23.5989 14.2557 23.6137 14.2439 23.6284C14.2321 23.643 14.2204 23.6576 14.2085 23.672C14.1969 23.686 14.185 23.6999 14.1731 23.7138C14.1614 23.7274 14.1497 23.741 14.1378 23.7545C14.126 23.7678 14.1144 23.7812 14.1024 23.7943C14.0908 23.8072 14.0789 23.8198 14.0671 23.8325C14.0553 23.8451 14.0436 23.8577 14.0317 23.8701C14.02 23.8823 14.0082 23.8943 13.9963 23.9063C13.9846 23.9182 13.9729 23.93 13.961 23.9417C13.9493 23.9533 13.9375 23.9648 13.9256 23.9762C13.9139 23.9874 13.9021 23.9985 13.8903 24.0096C13.8785 24.0206 13.8668 24.0316 13.8549 24.0425C13.8432 24.0531 13.8314 24.0636 13.8195 24.0741C13.8078 24.0846 13.7961 24.0951 13.7842 24.1054C13.7725 24.1155 13.7606 24.1253 13.7488 24.1353C13.7371 24.1453 13.7254 24.1553 13.7135 24.1651C13.7018 24.1747 13.6899 24.1841 13.6781 24.1936C13.6664 24.203 13.6546 24.2125 13.6427 24.2218C13.6311 24.231 13.6192 24.2399 13.6074 24.2489C13.5956 24.2579 13.5839 24.2669 13.5721 24.2758C13.5604 24.2845 13.5485 24.2929 13.5367 24.3015C13.5249 24.3101 13.5132 24.3187 13.5013 24.3271C13.4896 24.3354 13.4778 24.3435 13.466 24.3516C13.4542 24.3598 13.4425 24.368 13.4306 24.376C13.4189 24.3839 13.4071 24.3915 13.3953 24.3993C13.3835 24.407 13.3718 24.4149 13.3599 24.4225C13.3482 24.43 13.3363 24.4372 13.3245 24.4446C13.3128 24.4519 13.301 24.4594 13.2892 24.4666C13.2774 24.4737 13.2656 24.4807 13.2538 24.4876C13.242 24.4946 13.2303 24.5017 13.2185 24.5085C13.2067 24.5153 13.1949 24.5219 13.1831 24.5286C13.1713 24.5352 13.1596 24.5419 13.1477 24.5483C13.136 24.5548 13.1242 24.5612 13.1124 24.5675L13.077 24.5861C13.0652 24.5923 13.0535 24.5984 13.0417 24.6044C13.0299 24.6104 13.0181 24.6162 13.0063 24.622C12.9945 24.6278 12.9828 24.6338 12.9709 24.6395C12.9592 24.6451 12.9474 24.6505 12.9356 24.656C12.9238 24.6615 12.9121 24.6671 12.9002 24.6725C12.8885 24.6778 12.8766 24.6829 12.8649 24.6882L12.8295 24.7036L12.7941 24.7186C12.7824 24.7235 12.7706 24.7283 12.7588 24.733C12.747 24.7378 12.7353 24.7427 12.7234 24.7474C12.7117 24.752 12.6999 24.7563 12.6881 24.7608C12.6763 24.7653 12.6646 24.7698 12.6527 24.7742C12.641 24.7785 12.6292 24.7827 12.6174 24.7869L12.582 24.7993L12.5466 24.8115C12.5349 24.8154 12.5231 24.8191 12.5113 24.8229C12.4995 24.8267 12.4878 24.8307 12.4759 24.8344C12.4642 24.8381 12.4523 24.8414 12.4406 24.845L12.4052 24.8555L12.3698 24.8655C12.3581 24.8688 12.3463 24.8719 12.3345 24.8751C12.3227 24.8783 12.3109 24.8816 12.2991 24.8846C12.2874 24.8877 12.2755 24.8904 12.2638 24.8933C12.252 24.8962 12.2402 24.8991 12.2284 24.9019L12.193 24.91L12.1577 24.9177C12.1459 24.9203 12.1342 24.923 12.1223 24.9254C12.1106 24.9278 12.0987 24.9299 12.087 24.9322C12.0752 24.9345 12.0634 24.9368 12.0516 24.939L12.0162 24.9453C12.0045 24.9474 11.9927 24.9492 11.9809 24.9512C11.9691 24.9531 11.9573 24.9552 11.9455 24.957C11.9338 24.9588 11.922 24.9604 11.9102 24.9621L11.8748 24.967C11.863 24.9686 11.8513 24.9702 11.8394 24.9717C11.8277 24.9732 11.8159 24.9744 11.8041 24.9757C11.7923 24.9771 11.7806 24.9786 11.7687 24.9798C11.757 24.981 11.7452 24.9821 11.7334 24.9832L11.698 24.9863C11.6862 24.9873 11.6745 24.9886 11.6627 24.9894C11.6509 24.9903 11.6391 24.9909 11.6273 24.9917L11.592 24.9939L11.5566 24.9958C11.5448 24.9963 11.533 24.9967 11.5212 24.9971C11.5094 24.9976 11.4977 24.9981 11.4859 24.9985C11.4741 24.9988 11.4623 24.9989 11.4505 24.9991L11.4152 24.9996C11.4042 24.9997 11.3933 25 11.3824 25H11.3798H11.3444H11.3091H11.2737H11.2384H11.203H11.1676H11.1323H11.0969H11.0616H11.0262H10.9908H10.9555H10.9201H10.8848H10.8494H10.8141H10.7787H10.7433H10.708H10.6726H10.6373H10.6019H10.5665H10.5312H10.4958H10.4605H10.4251H10.3897H10.3544H10.319H10.2837H10.2483H10.2129H10.1776H10.1422H10.1069H10.0715H10.0361H10.0008H9.96542H9.93007H9.89473H9.85935H9.824H9.78862H9.75328H9.71793H9.68255H9.64721H9.61183H9.57648H9.54113H9.50576H9.47041H9.43506H9.39969H9.36434H9.32896H9.29362H9.25827H9.22289H9.18754H9.15217H9.11682H9.08147H9.0461H9.01075H8.97537H8.94002H8.90468H8.8693H8.83395H8.79858H8.76323H8.72788H8.6925H8.65716H8.62178H8.58643H8.55109H8.51571H8.48036H8.44501H8.40964H8.37429H8.33891H8.30357H8.26822H8.23284H8.1975H8.16212H8.12677H8.09142H8.05605H8.0207H7.98532H7.94998H7.91463H7.87925H7.8439H7.80853H7.77318H7.73783H7.70246H7.66711H7.63173H7.59638H7.56104H7.52566H7.49031H7.45497H7.41959H7.38424H7.34887H7.31352H7.27817H7.24279H7.20745H7.17207H7.13672H7.10138H7.066H7.03065H6.99527H6.95993H6.92458H6.8892H6.85386H6.81848H6.78313H6.74778H6.71241H6.67706H6.64168H6.60634H6.57099H6.53561H6.50026H6.46489H6.42954H6.39419H6.35882H6.32347H6.28812H6.25275H6.2174H6.18202H6.14667H6.11133H6.07595H6V17.2727C6 17.2727 6.02613 17.2799 6.07595 17.2924L6.11133 17.3013L6.14667 17.3099L6.18202 17.3184L6.2174 17.3267L6.25275 17.3349L6.28812 17.343L6.32347 17.351L6.35882 17.3589L6.39419 17.3666L6.42954 17.3743L6.46489 17.3818L6.50026 17.3892L6.53561 17.3966L6.57099 17.4038L6.60634 17.411L6.64168 17.4181L6.67706 17.425L6.71241 17.4319L6.74778 17.4387L6.78313 17.4454L6.81848 17.4521L6.85386 17.4586L6.8892 17.465L6.92458 17.4714L6.95993 17.4777L6.99527 17.4839L7.03065 17.49L7.066 17.496L7.10138 17.502L7.13672 17.5079L7.17207 17.5137L7.20745 17.5194L7.24279 17.525L7.27817 17.5306L7.31352 17.5361L7.34887 17.5415L7.38424 17.5468L7.41959 17.5521L7.45497 17.5572L7.49031 17.5623L7.52566 17.5674L7.56104 17.5723L7.59638 17.5772L7.63173 17.582L7.66711 17.5867L7.70246 17.5913L7.73783 17.5959L7.77318 17.6003L7.80853 17.6048L7.8439 17.6091L7.87925 17.6133L7.91463 17.6175L7.94998 17.6216L7.98532 17.6256L8.0207 17.6296L8.05605 17.6335L8.09142 17.6373L8.12677 17.641L8.16212 17.6446L8.1975 17.6482L8.23284 17.6517L8.26822 17.6551L8.30357 17.6585L8.33891 17.6617L8.37429 17.665L8.40964 17.668L8.44501 17.6711L8.48036 17.674L8.51571 17.6769L8.55109 17.6798L8.58643 17.6824L8.62178 17.6851L8.65716 17.6877L8.6925 17.6902L8.72788 17.6926L8.76323 17.6949L8.79858 17.6972L8.83395 17.6994L8.8693 17.7015L8.90468 17.7036L8.94002 17.7055L8.97537 17.7074L9.01075 17.7092L9.0461 17.7109L9.08147 17.7125L9.11682 17.714L9.15217 17.7155L9.18754 17.717L9.22289 17.7182L9.25827 17.7195L9.29362 17.7206L9.32896 17.7217L9.36434 17.7227L9.39969 17.7236L9.43506 17.7244L9.47041 17.7252L9.50576 17.7258L9.54113 17.7264L9.57648 17.7269L9.61183 17.7273L9.64721 17.7277L9.68255 17.7279L9.71793 17.728L9.75328 17.7281L9.76693 17.7282L9.78862 17.7281L9.824 17.7278L9.85935 17.7276L9.89473 17.7274L9.93007 17.7272L9.96542 17.7266L10.0008 17.7259L10.0361 17.7253L10.0715 17.7246L10.1069 17.7238L10.1422 17.7226L10.1776 17.7216L10.2129 17.7205L10.2483 17.7193L10.2837 17.7177L10.319 17.7162L10.3544 17.7146L10.3897 17.7131L10.4251 17.7111L10.4605 17.7091L10.4958 17.707L10.5312 17.705L10.5665 17.7026L10.6019 17.7001L10.6373 17.6975L10.6726 17.695L10.708 17.6922L10.7433 17.6891L10.7787 17.6861L10.8141 17.683L10.8494 17.6797L10.8848 17.6761L10.9201 17.6725L10.9555 17.6689L10.9908 17.6649L11.0262 17.6608L11.0616 17.6566L11.0969 17.6525L11.1323 17.6479L11.1676 17.6432L11.203 17.6385L11.2384 17.6336C11.2503 17.6319 11.2619 17.6301 11.2737 17.6283L11.3091 17.623L11.3444 17.6177L11.3798 17.6121C11.3917 17.6102 11.4033 17.6081 11.4152 17.6061L11.4505 17.6002C11.4622 17.5982 11.4742 17.5963 11.4859 17.5943C11.4978 17.5921 11.5094 17.5899 11.5212 17.5877L11.5566 17.5811L11.592 17.5745L11.6273 17.5676C11.6392 17.5652 11.6508 17.5627 11.6627 17.5603L11.698 17.553L11.7334 17.5457C11.7453 17.5431 11.7569 17.5403 11.7687 17.5377L11.8041 17.5297C11.8158 17.527 11.8278 17.5245 11.8394 17.5218C11.8514 17.519 11.863 17.516 11.8748 17.5132L11.9102 17.5044C11.9219 17.5015 11.9339 17.4987 11.9455 17.4958C11.9574 17.4927 11.9691 17.4896 11.9809 17.4865L12.0162 17.477C12.028 17.4739 12.04 17.4708 12.0516 17.4676C12.0635 17.4643 12.0752 17.4609 12.087 17.4576L12.1223 17.4473C12.1341 17.4439 12.146 17.4406 12.1577 17.4371L12.193 17.4262L12.2284 17.4151C12.2402 17.4115 12.2521 17.4078 12.2638 17.4041L12.2991 17.3923L12.3345 17.3803C12.3462 17.3763 12.3582 17.3724 12.3698 17.3684C12.3818 17.3642 12.3934 17.3598 12.4052 17.3555L12.4406 17.3427C12.4523 17.3383 12.4642 17.334 12.4759 17.3296C12.4879 17.3251 12.4995 17.3204 12.5113 17.3158C12.5231 17.3112 12.535 17.3066 12.5466 17.3019L12.582 17.2876L12.6174 17.2727C12.6291 17.2678 12.6411 17.2629 12.6527 17.2579C12.6647 17.2527 12.6762 17.2473 12.6881 17.242L12.7234 17.2261L12.7588 17.2097C12.7707 17.2041 12.7824 17.1984 12.7941 17.1927C12.8059 17.187 12.8179 17.1814 12.8295 17.1756C12.8415 17.1696 12.8531 17.1634 12.8649 17.1574C12.8767 17.1514 12.8886 17.1454 12.9002 17.1392C12.9122 17.133 12.9238 17.1265 12.9356 17.1202C12.9475 17.1137 12.9593 17.1073 12.9709 17.1008C12.9828 17.0941 12.9946 17.0874 13.0063 17.0807C13.0182 17.0739 13.03 17.0669 13.0417 17.06C13.0535 17.053 13.0654 17.046 13.077 17.0389C13.089 17.0316 13.1006 17.0242 13.1124 17.0168C13.1242 17.0094 13.1361 17.0019 13.1477 16.9944C13.1597 16.9867 13.1713 16.9787 13.1831 16.9709C13.1949 16.9629 13.2068 16.955 13.2185 16.947C13.2304 16.9387 13.2421 16.9303 13.2538 16.9219C13.2656 16.9135 13.2776 16.905 13.2892 16.8964C13.3011 16.8876 13.3128 16.8787 13.3245 16.8697C13.3364 16.8606 13.3483 16.8515 13.3599 16.8423C13.3718 16.8329 13.3836 16.8234 13.3953 16.8138C13.4072 16.8041 13.4189 16.7942 13.4306 16.7843C13.4425 16.7742 13.4544 16.7641 13.466 16.7539C13.478 16.7434 13.4896 16.7326 13.5013 16.7219C13.5132 16.7111 13.5251 16.7002 13.5367 16.6892C13.5487 16.6778 13.5604 16.6663 13.5721 16.6547C13.584 16.6429 13.5958 16.6309 13.6074 16.6189C13.6193 16.6067 13.6312 16.5944 13.6427 16.582C13.6548 16.569 13.6664 16.5559 13.6781 16.5427C13.6901 16.5292 13.7019 16.5156 13.7135 16.5019C13.7254 16.4877 13.7373 16.4736 13.7488 16.4593C13.7608 16.4444 13.7727 16.4295 13.7842 16.4145C13.7963 16.3988 13.8079 16.3829 13.8195 16.3669C13.8316 16.3503 13.8434 16.3336 13.8549 16.3167C13.867 16.2992 13.8788 16.2815 13.8903 16.2637C13.9023 16.245 13.9141 16.2262 13.9256 16.2073C13.9377 16.1873 13.9495 16.1672 13.961 16.1469C13.9731 16.1254 13.9849 16.1038 13.9963 16.0819C14.0086 16.0586 14.0203 16.0351 14.0317 16.0114C14.044 15.986 14.0557 15.9603 14.0671 15.9344C14.0794 15.9063 14.0912 15.878 14.1024 15.8495C14.1148 15.818 14.1267 15.7863 14.1378 15.7543C14.1504 15.718 14.1621 15.6813 14.1731 15.6443C14.186 15.6011 14.1978 15.5574 14.2085 15.5133C14.2218 15.4586 14.2337 15.4033 14.2439 15.3473C14.259 15.2641 14.2707 15.1795 14.2792 15.0937C14.2911 14.9742 14.2969 14.8525 14.2969 14.729V10.4747H14.2792H14.2439H14.2085H14.1731H14.1378H14.1024H14.0671H14.0317H13.9963H13.961H13.9256H13.8903H13.8549H13.8195H13.7842H13.7488H13.7135H13.6781H13.6427H13.6074H13.5721H13.5367H13.5013H13.466H13.4306H13.3953H13.3599H13.3245H13.2892H13.2538H13.2185H13.1831H13.1477H13.1124H13.077H13.0417H13.0063H12.9709H12.9356H12.9002H12.8649H12.8295H12.7941H12.7588H12.7234H12.6881H12.6527H12.6174H12.582H12.5466H12.5113H12.4759H12.4406H12.4052H12.3698H12.3345H12.2991H12.2638H12.2284H12.193H12.1577H12.1223H12.087H12.0516H12.0162H11.9809H11.9455H11.9102H11.8748H11.8394H11.8041H11.7687H11.7334H11.698H11.6627H11.6273H11.592H11.5566H11.5212H11.4859H11.4505H11.4152H11.3798H11.3444H11.3091H11.2737H11.2384H11.203H11.1676H11.1408V14.729C11.1408 14.7956 11.1379 14.8611 11.1323 14.9254C11.125 15.0072 11.1132 15.087 11.0969 15.1646C11.0868 15.2126 11.075 15.2596 11.0616 15.3058C11.0508 15.3426 11.0391 15.3788 11.0262 15.4144C11.0152 15.4447 11.0034 15.4745 10.9908 15.5038C10.9797 15.5301 10.9679 15.5559 10.9555 15.5813C10.9442 15.6045 10.9325 15.6274 10.9201 15.6499C10.9088 15.6706 10.8969 15.6909 10.8848 15.7111C10.8734 15.73 10.8616 15.7487 10.8494 15.767C10.8379 15.7843 10.8261 15.8013 10.8141 15.8181C10.8025 15.8341 10.7908 15.8499 10.7787 15.8655C10.7672 15.8803 10.7554 15.8948 10.7433 15.9092C10.7318 15.9229 10.72 15.9365 10.708 15.9499C10.6964 15.9628 10.6846 15.9755 10.6726 15.9881C10.661 16.0002 10.6493 16.0121 10.6373 16.0239C10.6257 16.0352 10.6139 16.0465 10.6019 16.0575C10.5903 16.0682 10.5785 16.0787 10.5665 16.0891C10.5549 16.0991 10.5431 16.1091 10.5312 16.1188C10.5196 16.1283 10.5077 16.1377 10.4958 16.1469C10.4842 16.1559 10.4724 16.1648 10.4605 16.1735C10.4488 16.182 10.437 16.1904 10.4251 16.1986C10.4135 16.2067 10.4017 16.2146 10.3897 16.2225C10.3781 16.2301 10.3663 16.2376 10.3544 16.245C10.3427 16.2522 10.3309 16.2593 10.319 16.2663C10.3074 16.2731 10.2956 16.2798 10.2837 16.2864C10.272 16.2929 10.2602 16.2992 10.2483 16.3055C10.2366 16.3117 10.2249 16.3177 10.2129 16.3236C10.2013 16.3294 10.1895 16.3351 10.1776 16.3408C10.1659 16.3463 10.1541 16.3518 10.1422 16.3571C10.1305 16.3623 10.1188 16.3675 10.1069 16.3725C10.0952 16.3774 10.0834 16.3821 10.0715 16.3869C10.0598 16.3915 10.048 16.3961 10.0361 16.4005C10.0244 16.4049 10.0127 16.4093 10.0008 16.4135C9.98908 16.4176 9.97731 16.4218 9.96542 16.4257C9.95374 16.4296 9.94193 16.4334 9.93007 16.4372C9.91839 16.4408 9.90656 16.4444 9.89473 16.4479C9.88301 16.4513 9.87121 16.4547 9.85935 16.458C9.84761 16.4612 9.83586 16.4645 9.824 16.4675C9.81229 16.4705 9.80049 16.4734 9.78862 16.4763C9.77694 16.4791 9.76514 16.4818 9.75328 16.4844C9.74156 16.487 9.72979 16.4896 9.71793 16.4921C9.70619 16.4945 9.69444 16.4969 9.68255 16.4992C9.67084 16.5014 9.65904 16.5035 9.64721 16.5056C9.63546 16.5076 9.62369 16.5097 9.61183 16.5116L9.57648 16.517C9.56477 16.5187 9.55297 16.5202 9.54113 16.5218C9.52939 16.5233 9.51765 16.5249 9.50576 16.5262L9.47041 16.5302C9.4587 16.5314 9.44689 16.5324 9.43506 16.5335C9.42329 16.5346 9.41155 16.5356 9.39969 16.5366C9.38797 16.5375 9.37617 16.5383 9.36434 16.539C9.3526 16.5398 9.34079 16.5404 9.32896 16.541C9.31719 16.5417 9.30548 16.5423 9.29362 16.5427C9.2819 16.5432 9.27007 16.5435 9.25827 16.5438L9.22289 16.5447C9.21118 16.5449 9.19938 16.5449 9.18754 16.545L9.17424 16.5451L9.15217 16.545L9.11682 16.5448L9.08147 16.5443L9.0461 16.5436L9.01075 16.5426L8.97537 16.5415L8.94002 16.54L8.90468 16.5384L8.8693 16.5366L8.83395 16.5345L8.79858 16.5322L8.76323 16.5297L8.72788 16.527L8.6925 16.524L8.65716 16.5208L8.62178 16.5175L8.58643 16.5138L8.55109 16.51L8.51571 16.506L8.48036 16.5017L8.44501 16.4972L8.40964 16.4926L8.37429 16.4877L8.33891 16.4825L8.30357 16.4772L8.26822 16.4717L8.23284 16.466L8.1975 16.4601L8.16212 16.4539L8.12677 16.4475L8.09142 16.441L8.05605 16.4342L8.0207 16.4273L7.98532 16.4201L7.94998 16.4127L7.91463 16.4052L7.87925 16.3974L7.8439 16.3895L7.80853 16.3813L7.77318 16.373L7.73783 16.3644L7.70246 16.3557L7.66711 16.3468L7.63173 16.3376L7.59638 16.3282L7.56104 16.3188L7.52566 16.3091L7.49031 16.2992L7.45497 16.2891L7.41959 16.2788L7.38424 16.2683L7.34887 16.2577L7.31352 16.2469L7.27817 16.2359L7.24279 16.2247L7.20745 16.2133L7.17207 16.2018L7.13672 16.19L7.10138 16.1781L7.066 16.166L7.03065 16.1538L6.99527 16.1413L6.95993 16.1287L6.92458 16.1159L6.8892 16.1029L6.85386 16.0898L6.81848 16.0764L6.78313 16.063L6.74778 16.0493L6.71241 16.0355L6.67706 16.0215L6.64168 16.0073L6.60634 15.993L6.57099 15.9785L6.53561 15.9639L6.50026 15.9491L6.46489 15.9341L6.42954 15.9189L6.39419 15.9036L6.35882 15.8881L6.32347 15.8725L6.28812 15.8568L6.25275 15.8408L6.2174 15.8247L6.18202 15.8085L6.14667 15.7921L6.11133 15.7755L6.07595 15.7588Z" fill="#265797"/>
<path fill-rule="evenodd" clip-rule="evenodd" d="M16.3513 11.4043C16.3255 11.4251 16.3002 11.4461 16.2754 11.4673V6.66694C16.2754 6.41166 16.3016 6.16248 16.3513 5.92187C16.362 5.87021 16.3738 5.81903 16.3867 5.76819C16.3977 5.72458 16.4095 5.68131 16.422 5.63834C16.4332 5.60006 16.445 5.56204 16.4574 5.52429C16.4687 5.4898 16.4805 5.45548 16.4928 5.42145C16.5042 5.38992 16.5159 5.35854 16.5281 5.32741C16.5396 5.29832 16.5513 5.26937 16.5635 5.24062C16.575 5.21352 16.5867 5.18659 16.5988 5.15981C16.6103 5.13438 16.6222 5.10912 16.6342 5.08401C16.6457 5.06002 16.6575 5.03626 16.6696 5.01256C16.6811 4.9898 16.6929 4.96721 16.7049 4.94471C16.7165 4.92304 16.7283 4.90151 16.7403 4.88009C16.7519 4.85936 16.7636 4.83871 16.7757 4.81823C16.7873 4.79834 16.799 4.77854 16.811 4.75889C16.8226 4.73991 16.8344 4.72105 16.8464 4.70231C16.858 4.68407 16.8698 4.66603 16.8817 4.64802C16.8934 4.63039 16.9051 4.61288 16.9171 4.59548C16.9288 4.57841 16.9405 4.56134 16.9525 4.5445C16.964 4.52819 16.9759 4.51215 16.9878 4.49607C16.9995 4.48023 17.0113 4.46448 17.0232 4.44885C17.0349 4.43345 17.0466 4.41802 17.0585 4.40283C17.0701 4.38807 17.0821 4.37352 17.0939 4.35894C17.1056 4.34454 17.1174 4.3302 17.1292 4.316C17.141 4.30198 17.1527 4.28802 17.1646 4.2742C17.1763 4.26071 17.1881 4.24739 17.2 4.23408C17.2117 4.22088 17.2234 4.20762 17.2353 4.19456C17.247 4.18181 17.2588 4.16919 17.2707 4.15661C17.2823 4.14417 17.2942 4.13182 17.306 4.11953C17.3178 4.10742 17.3295 4.0953 17.3414 4.08334C17.3531 4.0716 17.3649 4.06002 17.3767 4.04843C17.3885 4.0369 17.4002 4.02529 17.4121 4.01391C17.4238 4.00279 17.4357 3.99194 17.4475 3.98097C17.4592 3.97002 17.4709 3.95905 17.4828 3.94829C17.4945 3.93773 17.5064 3.92735 17.5182 3.91693C17.5299 3.90655 17.5417 3.89619 17.5536 3.88599C17.5653 3.87593 17.5771 3.86604 17.5889 3.85613C17.6007 3.8463 17.6124 3.83647 17.6243 3.82676C17.636 3.8172 17.6478 3.80773 17.6596 3.79831C17.6714 3.78896 17.6831 3.77966 17.695 3.77045C17.7067 3.76135 17.7185 3.75235 17.7304 3.74337C17.7421 3.73449 17.7539 3.72563 17.7657 3.71689C17.7774 3.7082 17.7892 3.69964 17.8011 3.6911C17.8128 3.68265 17.8246 3.67421 17.8364 3.66588C17.8482 3.65763 17.86 3.64951 17.8718 3.64138C17.8835 3.63332 17.8953 3.62528 17.9072 3.61736C17.9189 3.60953 17.9307 3.60181 17.9425 3.5941C17.9543 3.58641 17.966 3.57873 17.9779 3.57119C17.9896 3.56374 18.0014 3.55647 18.0133 3.54913C18.025 3.54183 18.0367 3.53444 18.0486 3.52728C18.0603 3.52018 18.0722 3.51332 18.084 3.50637C18.0958 3.49941 18.1075 3.49232 18.1193 3.48551C18.131 3.47879 18.1429 3.47234 18.1547 3.46574C18.1665 3.45914 18.1782 3.45248 18.19 3.44603C18.2018 3.43964 18.2136 3.43348 18.2254 3.4272C18.2372 3.42095 18.2489 3.41467 18.2608 3.40854L18.2961 3.39056L18.3315 3.37299C18.3432 3.36724 18.355 3.36143 18.3668 3.3558C18.3786 3.3502 18.3904 3.34477 18.4022 3.33929C18.414 3.33383 18.4257 3.3282 18.4376 3.32286C18.4493 3.31755 18.4611 3.31257 18.4729 3.3074C18.4847 3.30224 18.4965 3.29699 18.5083 3.29195C18.52 3.28696 18.5318 3.28212 18.5436 3.27725L18.579 3.26282C18.5908 3.2581 18.6025 3.25337 18.6144 3.24877C18.6261 3.24419 18.6379 3.23979 18.6497 3.23533C18.6615 3.23088 18.6732 3.22627 18.6851 3.22193C18.6968 3.21765 18.7087 3.21366 18.7205 3.20949C18.7322 3.20533 18.744 3.2011 18.7558 3.19706C18.7676 3.19301 18.7794 3.18914 18.7912 3.18523L18.8265 3.17377C18.8383 3.17001 18.8501 3.16617 18.8619 3.1625C18.8736 3.15889 18.8855 3.15549 18.8973 3.152C18.909 3.14848 18.9208 3.14487 18.9326 3.14147C18.9444 3.1381 18.9562 3.13496 18.968 3.1317L19.0033 3.12211C19.0151 3.119 19.0269 3.11583 19.0387 3.11284C19.0505 3.10988 19.0623 3.10709 19.0741 3.10422C19.0858 3.10134 19.0976 3.09835 19.1094 3.09559C19.1212 3.09287 19.133 3.09031 19.1448 3.0877L19.1802 3.08002C19.192 3.07753 19.2037 3.07494 19.2155 3.07257C19.2272 3.07019 19.2391 3.06805 19.2509 3.06579C19.2627 3.06353 19.2744 3.06116 19.2862 3.05902L19.3216 3.05292L19.357 3.04708C19.3688 3.04517 19.3805 3.04315 19.3923 3.04136C19.4041 3.03957 19.4159 3.03807 19.4277 3.0364C19.4394 3.03476 19.4512 3.03303 19.463 3.03147L19.4984 3.02704L19.5337 3.023C19.5455 3.02168 19.5573 3.02015 19.5691 3.01895C19.5809 3.01775 19.5927 3.01687 19.6045 3.01578L19.6398 3.01267C19.6516 3.01167 19.6634 3.01071 19.6752 3.00986C19.687 3.00901 19.6988 3.00833 19.7105 3.0076C19.7223 3.00686 19.7341 3.00601 19.7459 3.00537C19.7577 3.00472 19.7695 3.00428 19.7813 3.00375L19.8166 3.00241C19.8284 3.00199 19.8402 3.00138 19.852 3.00109C19.8638 3.00079 19.8756 3.00082 19.8874 3.00065C19.8992 3.00047 19.9109 3.00026 19.9227 3.00021L19.9383 3H19.9581H19.9935H20.0288H20.0642H20.0995H20.1349H20.1703H20.2056H20.241H20.2763H20.3117H20.3471H20.3824H20.4178H20.4531H20.4885H20.5239H20.5592H20.5946H20.6299H20.6653H20.7006H20.736H20.7714H20.8067H20.8421H20.8775H20.9129H20.9482H20.9835H21.0189H21.0543H21.0896H21.125H21.1604H21.1957H21.2311H21.2664H21.3018H21.3372H21.3725H21.4079H21.4432H21.4786H21.514H21.5493H21.5847H21.62H21.6554H21.6908H21.7261H21.7615H21.7969H21.8322H21.8676H21.9029H21.9383H21.9737H22.009H22.0444H22.0798H22.1151H22.1504H22.1858H22.2212H22.2565H22.2919H22.3273H22.3626H22.398H22.4333H22.4687H22.5041H22.5394H22.5748H22.6101H22.6455H22.6809H22.7162H22.7516H22.7869H22.8223H22.8577H22.893H22.9284H22.9638H22.9991H23.0345H23.0698H23.1052H23.1406H23.1759H23.2113H23.2467H23.282H23.3174H23.3527H23.3881H23.4235H23.4588H23.4942H23.5295H23.5649H23.6002H23.6356H23.671H23.7063H23.7417H23.777H23.8124H23.8478H23.8831H23.9185H23.9539H23.9892H24.0246H24.0599H24.0953H24.1307H24.166H24.2014H24.2368H24.2721H24.3075H24.3428H24.3782H24.4136H24.4489H24.4843H24.5196H24.555H24.5904H24.6257H24.6611H24.6964H24.7318H24.7671H24.8025H24.8379H24.8732H24.9086H24.9439H24.9793H25.0147H25.05H25.0854H25.1208H25.1561H25.1915H25.2268H25.2622H25.2976H25.3275V21.3334C25.3275 21.4928 25.3173 21.6498 25.2976 21.8038C25.2881 21.878 25.2761 21.9514 25.2622 22.0241C25.2516 22.0795 25.2399 22.1344 25.2268 22.1888C25.2159 22.2347 25.2041 22.2802 25.1915 22.3254C25.1803 22.365 25.1685 22.4044 25.1561 22.4434C25.1449 22.4788 25.133 22.5139 25.1208 22.5488C25.1094 22.5811 25.0976 22.6132 25.0854 22.6451C25.074 22.6748 25.0622 22.7044 25.05 22.7338C25.0386 22.7615 25.0268 22.789 25.0147 22.8163C25.0032 22.8423 24.9914 22.868 24.9793 22.8936C24.9678 22.9181 24.956 22.9424 24.9439 22.9665C24.9324 22.9897 24.9206 23.0127 24.9086 23.0356C24.897 23.0576 24.8853 23.0795 24.8732 23.1013C24.8616 23.1224 24.8499 23.1434 24.8379 23.1642C24.8263 23.1842 24.8145 23.2041 24.8025 23.2239C24.7909 23.2431 24.7791 23.2621 24.7671 23.2811C24.7555 23.2996 24.7438 23.318 24.7318 23.3362C24.7201 23.3541 24.7084 23.372 24.6964 23.3896C24.6848 23.4067 24.673 23.4236 24.6611 23.4405C24.6495 23.4571 24.6376 23.4734 24.6257 23.4898C24.614 23.5058 24.6023 23.5218 24.5904 23.5377C24.5787 23.5531 24.5669 23.5684 24.555 23.5837C24.5434 23.5987 24.5315 23.6135 24.5196 23.6282C24.5079 23.6428 24.4962 23.6574 24.4843 23.6718C24.4726 23.6858 24.4608 23.6997 24.4489 23.7136C24.4372 23.7273 24.4254 23.7408 24.4136 23.7543C24.4018 23.7676 24.3901 23.7809 24.3782 23.7941C24.3665 23.807 24.3546 23.8196 24.3428 23.8323C24.3311 23.8449 24.3194 23.8575 24.3075 23.8699C24.2958 23.8821 24.2839 23.8941 24.2721 23.9061C24.2604 23.918 24.2487 23.9297 24.2368 23.9415C24.225 23.9531 24.2133 23.9646 24.2014 23.976C24.1897 23.9872 24.1779 23.9983 24.166 24.0094C24.1543 24.0204 24.1426 24.0315 24.1307 24.0424C24.119 24.053 24.1071 24.0634 24.0953 24.0739C24.0835 24.0844 24.0719 24.095 24.0599 24.1053C24.0483 24.1154 24.0364 24.1252 24.0246 24.1352C24.0128 24.1451 24.0011 24.1552 23.9892 24.1649C23.9775 24.1746 23.9656 24.1839 23.9539 24.1934C23.9421 24.2028 23.9304 24.2124 23.9185 24.2217C23.9068 24.2308 23.8949 24.2397 23.8831 24.2487C23.8714 24.2577 23.8597 24.2667 23.8478 24.2756C23.8361 24.2843 23.8242 24.2928 23.8124 24.3014C23.8006 24.3099 23.7889 24.3186 23.777 24.327C23.7654 24.3352 23.7535 24.3433 23.7417 24.3515C23.7299 24.3596 23.7182 24.3679 23.7063 24.3759C23.6946 24.3837 23.6828 24.3914 23.671 24.3991C23.6592 24.4069 23.6475 24.4148 23.6356 24.4224C23.6239 24.4299 23.612 24.4371 23.6002 24.4444C23.5885 24.4518 23.5768 24.4593 23.5649 24.4665C23.5532 24.4736 23.5413 24.4805 23.5295 24.4875C23.5178 24.4945 23.506 24.5015 23.4942 24.5084C23.4824 24.5152 23.4706 24.5218 23.4588 24.5285L23.4235 24.5482L23.3881 24.5674L23.3527 24.586C23.341 24.5921 23.3292 24.5983 23.3174 24.6043C23.3056 24.6103 23.2938 24.616 23.282 24.6219C23.2702 24.6277 23.2585 24.6337 23.2467 24.6394C23.2349 24.645 23.2231 24.6504 23.2113 24.6559C23.1995 24.6614 23.1878 24.667 23.1759 24.6724C23.1642 24.6777 23.1523 24.6829 23.1406 24.6881L23.1052 24.7035L23.0698 24.7185L23.0345 24.733C23.0227 24.7377 23.0109 24.7426 22.9991 24.7473C22.9874 24.7519 22.9755 24.7562 22.9638 24.7607C22.952 24.7652 22.9402 24.7697 22.9284 24.7741C22.9166 24.7785 22.9048 24.7826 22.893 24.7868L22.8577 24.7993L22.8223 24.8114C22.8106 24.8153 22.7987 24.819 22.7869 24.8228C22.7751 24.8266 22.7634 24.8306 22.7516 24.8343C22.7399 24.838 22.728 24.8413 22.7162 24.8449L22.6809 24.8554L22.6455 24.8655C22.6337 24.8687 22.6219 24.8719 22.6101 24.875C22.5983 24.8782 22.5867 24.8815 22.5748 24.8846C22.563 24.8876 22.5512 24.8903 22.5394 24.8932C22.5276 24.8961 22.5159 24.899 22.5041 24.9018L22.4687 24.91L22.4333 24.9177C22.4215 24.9202 22.4098 24.9229 22.398 24.9253C22.3863 24.9278 22.3744 24.9299 22.3626 24.9322L22.3273 24.9389L22.2919 24.9453C22.2802 24.9473 22.2684 24.9492 22.2565 24.9511C22.2447 24.9531 22.233 24.9552 22.2212 24.957C22.2094 24.9588 22.1976 24.9603 22.1858 24.962L22.1504 24.967C22.1387 24.9686 22.1269 24.9702 22.1151 24.9717C22.1034 24.9731 22.0915 24.9744 22.0798 24.9757C22.068 24.9771 22.0562 24.9785 22.0444 24.9798C22.0326 24.981 22.0208 24.982 22.009 24.9832L21.9737 24.9863C21.9619 24.9873 21.9501 24.9885 21.9383 24.9894C21.9266 24.9903 21.9147 24.9909 21.9029 24.9916L21.8676 24.9939L21.8322 24.9958C21.8205 24.9963 21.8086 24.9967 21.7969 24.9971C21.7851 24.9975 21.7733 24.9981 21.7615 24.9984C21.7497 24.9988 21.7379 24.9989 21.7261 24.9991L21.6908 24.9996C21.6797 24.9997 21.6688 25 21.6578 25H21.6554H21.62H21.5847H21.5493H21.514H21.4786H21.4432H21.4079H21.3725H21.3372H21.3018H21.2664H21.2311H21.1957H21.1604H21.125H21.0896H21.0543H21.0189H20.9835H20.9482H20.9129H20.8775H20.8421H20.8067H20.7714H20.736H20.7006H20.6653H20.6299H20.5946H20.5592H20.5239H20.4885H20.4531H20.4178H20.3824H20.3471H20.3117H20.2763H20.241H20.2056H20.1703H20.1349H20.0995H20.0642H20.0288H19.9935H19.9581H19.9227H19.8874H19.852H19.8166H19.7813H19.7459H19.7105H19.6752H19.6398H19.6045H19.5691H19.5337H19.4984H19.463H19.4277H19.3923H19.357H19.3216H19.2862H19.2509H19.2155H19.1802H19.1448H19.1094H19.0741H19.0387H19.0033H18.968H18.9326H18.8973H18.8619H18.8265H18.7912H18.7558H18.7205H18.6851H18.6497H18.6144H18.579H18.5436H18.5083H18.4729H18.4376H18.4022H18.3668H18.3315H18.2961H18.2608H18.2254H18.19H18.1547H18.1193H18.084H18.0486H18.0133H17.9779H17.9425H17.9072H17.8718H17.8364H17.8011H17.7657H17.7304H17.695H17.6596H17.6243H17.5889H17.5536H17.5182H17.4828H17.4475H17.4121H17.3767H17.3414H17.306H17.2707H17.2353H17.2H17.1646H17.1292H17.0939H17.0585H17.0232H16.9878H16.9525H16.9171H16.8817H16.8464H16.811H16.7757H16.7403H16.7049H16.6696H16.6342H16.5988H16.5635H16.5281H16.4928H16.4574H16.422H16.3867H16.3513H16.2754V16.5341C16.3002 16.5554 16.3255 16.5763 16.3513 16.5972C16.363 16.6066 16.3748 16.616 16.3867 16.6253C16.3984 16.6345 16.4101 16.6437 16.422 16.6528C16.4338 16.6618 16.4455 16.6708 16.4574 16.6797C16.4691 16.6884 16.4809 16.697 16.4928 16.7056C16.5044 16.7141 16.5163 16.7226 16.5281 16.731C16.5398 16.7393 16.5516 16.7476 16.5635 16.7559L16.5988 16.7801C16.6105 16.788 16.6223 16.7958 16.6342 16.8036L16.6696 16.8267C16.6813 16.8342 16.693 16.8418 16.7049 16.8492C16.7166 16.8566 16.7284 16.8638 16.7403 16.8711L16.7757 16.8926C16.7874 16.8997 16.7991 16.9067 16.811 16.9137C16.8227 16.9205 16.8345 16.9273 16.8464 16.934L16.8817 16.9541L16.9171 16.9737L16.9525 16.9928C16.9642 16.9991 16.9759 17.0054 16.9878 17.0117C16.9995 17.0178 17.0113 17.0238 17.0232 17.0298L17.0585 17.0478L17.0939 17.0654L17.1292 17.0824C17.141 17.0881 17.1527 17.0938 17.1646 17.0993L17.2 17.1156L17.2353 17.1318L17.2707 17.1474L17.306 17.1629L17.3414 17.1779L17.3767 17.1927L17.4121 17.2072L17.4475 17.2212L17.4828 17.2352L17.5182 17.2486C17.53 17.2531 17.5417 17.2576 17.5536 17.262L17.5889 17.2749C17.6007 17.2792 17.6124 17.2835 17.6243 17.2878C17.636 17.2919 17.6479 17.2959 17.6596 17.3L17.695 17.3124L17.7304 17.3242C17.7421 17.3281 17.7538 17.3321 17.7657 17.336C17.7774 17.3399 17.7893 17.3435 17.8011 17.3473L17.8364 17.3587L17.8718 17.3695L17.9072 17.3803L17.9425 17.3907L17.9779 17.4011L18.0133 17.4111L18.0486 17.421L18.084 17.4306L18.1193 17.44L18.1547 17.4493L18.19 17.4583L18.2254 17.4672L18.2608 17.4757L18.2961 17.4843L18.3315 17.4924L18.3668 17.5005L18.4022 17.5084L18.4376 17.5161L18.4729 17.5237L18.5083 17.531L18.5436 17.5383L18.579 17.5452L18.6144 17.5521L18.6497 17.5588L18.6851 17.5653L18.7205 17.5718L18.7558 17.5779L18.7912 17.584L18.8265 17.5899L18.8619 17.5956L18.8973 17.6013L18.9326 17.6067L18.968 17.6121L19.0033 17.6173L19.0387 17.6223L19.0741 17.6273L19.1094 17.6319L19.1448 17.6366L19.1802 17.6411L19.2155 17.6454L19.2509 17.6498L19.2862 17.6538L19.3216 17.6578L19.357 17.6617L19.3923 17.6654L19.4277 17.669L19.463 17.6725L19.4984 17.6758L19.5337 17.6791L19.5691 17.6823L19.6045 17.6852L19.6398 17.6882L19.6752 17.691L19.7105 17.6936L19.7459 17.6963L19.7813 17.6987L19.8166 17.7011L19.852 17.7034L19.8874 17.7055L19.9227 17.7075L19.9581 17.7096L19.9935 17.7113L20.0288 17.7131L20.0642 17.7148L20.0995 17.7162L20.1349 17.7177L20.1703 17.7191L20.2056 17.7203L20.241 17.7214L20.2763 17.7226L20.3117 17.7235L20.3471 17.7243L20.3824 17.7252L20.4178 17.7258L20.4531 17.7264L20.4885 17.727L20.5239 17.7274L20.5592 17.7277L20.5946 17.728L20.6299 17.7282L20.6653 17.7282L20.7006 17.7283L20.736 17.7282L20.7714 17.728L20.8067 17.7278L20.8421 17.7275L20.8775 17.727L20.9129 17.7266L20.9482 17.7261L20.9835 17.7254L21.0189 17.7247L21.0543 17.7239L21.0896 17.723L21.125 17.7221L21.1604 17.7211L21.1957 17.72L21.2311 17.7188L21.2664 17.7176L21.3018 17.7163L21.3372 17.7149L21.3725 17.7134L21.4079 17.7119L21.4252 17.7112L21.4432 17.7103L21.4786 17.7086L21.514 17.7067L21.5493 17.7048L21.5847 17.7027L21.62 17.7005L21.6554 17.6981L21.6908 17.6957L21.7261 17.6931L21.7615 17.6905L21.7969 17.6876L21.8322 17.6848L21.8676 17.6818L21.9029 17.6786L21.9383 17.6754L21.9737 17.6721L22.009 17.6687L22.0444 17.6652L22.0798 17.6616L22.1151 17.6579L22.1504 17.6541L22.1858 17.6502L22.2212 17.6462L22.2565 17.6421L22.2919 17.638L22.3273 17.6337L22.3626 17.6294L22.398 17.6249L22.4333 17.6204L22.4687 17.6159L22.5041 17.6111L22.5394 17.6064L22.5748 17.6016L22.6101 17.5966L22.6455 17.5916L22.6809 17.5865L22.7162 17.5814L22.7516 17.5761L22.7869 17.5708L22.8223 17.5654L22.8577 17.56L22.893 17.5544L22.9284 17.5488L22.9638 17.5431L22.9991 17.5374L23.0345 17.5315L23.0698 17.5256L23.1052 17.5196L23.1406 17.5136L23.1759 17.5075L23.2113 17.5013L23.2467 17.495L23.282 17.4887L23.3174 17.4823L23.3527 17.4758L23.3881 17.4693L23.4235 17.4626L23.4588 17.456L23.4942 17.4492L23.5295 17.4424L23.5649 17.4355L23.6002 17.4286L23.6356 17.4215L23.671 17.4144L23.7063 17.4073L23.7417 17.4L23.777 17.3927L23.8124 17.3853L23.8478 17.3779L23.8831 17.3704L23.9185 17.3628L23.9539 17.3551L23.9892 17.3474L24.0246 17.3395L24.0599 17.3316L24.0953 17.3236L24.1307 17.3155L24.166 17.3074L24.2014 17.2991L24.2368 17.2907L24.2721 17.2822L24.3073 17.2735V15.7224L24.2721 15.7399L24.2368 15.7574L24.2014 15.7746L24.166 15.7918L24.1307 15.8088L24.0953 15.8256L24.0599 15.8422L24.0246 15.8587L23.9892 15.875L23.9539 15.8911L23.9185 15.907L23.8831 15.9228L23.8478 15.9383L23.8124 15.9537L23.777 15.9689L23.7417 15.984L23.7063 15.9988L23.671 16.0135L23.6356 16.0279L23.6002 16.0422L23.5649 16.0562L23.5295 16.0701L23.4942 16.0838L23.4588 16.0973L23.4235 16.1105L23.3881 16.1236L23.3527 16.1365L23.3174 16.1492L23.282 16.1617L23.2467 16.174L23.2113 16.186L23.1759 16.1979L23.1406 16.2096L23.1052 16.2211L23.0698 16.2324L23.0345 16.2435L22.9991 16.2543L22.9638 16.265L22.9284 16.2755L22.893 16.2858L22.8577 16.2959L22.8223 16.3057L22.7869 16.3154L22.7516 16.3248L22.7162 16.3341L22.6809 16.3432L22.6455 16.352L22.6101 16.3607L22.5748 16.3692L22.5394 16.3775L22.5041 16.3855L22.4687 16.3934L22.4333 16.4011L22.398 16.4085L22.3626 16.4158L22.3273 16.4229L22.2919 16.4298L22.2565 16.4365L22.2212 16.443L22.1858 16.4493L22.1504 16.4554L22.1151 16.4613L22.0798 16.467L22.0444 16.4726L22.009 16.4779L21.9737 16.483L21.9383 16.488L21.9029 16.4927L21.8676 16.4973L21.8322 16.5017L21.7969 16.5059L21.7615 16.5099L21.7261 16.5137L21.6908 16.5174L21.6554 16.5208L21.62 16.5241L21.5847 16.5272L21.5493 16.53L21.5279 16.5317L21.514 16.5327L21.4786 16.5351L21.4432 16.5374L21.4079 16.5393L21.3725 16.5411L21.3372 16.5427L21.3018 16.5439L21.2664 16.545L21.2311 16.5458L21.1957 16.5463L21.1604 16.5468C21.1485 16.5468 21.1368 16.5467 21.125 16.5466L21.0896 16.5465L21.0543 16.546L21.0189 16.5452L20.9835 16.5443C20.9717 16.5439 20.96 16.5434 20.9482 16.5429C20.9364 16.5424 20.9246 16.542 20.9129 16.5415L20.8775 16.5395L20.8421 16.5374L20.8067 16.5349L20.7714 16.5321C20.7596 16.5312 20.7477 16.5303 20.736 16.5293C20.7242 16.5282 20.7125 16.5269 20.7006 16.5257L20.6653 16.5222L20.6299 16.518L20.5946 16.5138L20.5592 16.5091L20.5239 16.5041C20.5121 16.5024 20.5002 16.5007 20.4885 16.4988C20.4766 16.497 20.4649 16.495 20.4531 16.493C20.4414 16.491 20.4295 16.4892 20.4178 16.4871C20.4059 16.485 20.3942 16.4827 20.3824 16.4805C20.3706 16.4783 20.3587 16.4762 20.3471 16.4739C20.3352 16.4716 20.3235 16.469 20.3117 16.4665C20.2999 16.464 20.288 16.4617 20.2763 16.4591C20.2645 16.4565 20.2527 16.4537 20.241 16.451L20.2056 16.4427C20.1937 16.4398 20.182 16.4367 20.1703 16.4337C20.1584 16.4307 20.1466 16.4277 20.1349 16.4246C20.123 16.4214 20.1113 16.4181 20.0995 16.4148C20.0877 16.4115 20.0759 16.4082 20.0642 16.4047C20.0523 16.4012 20.0406 16.3976 20.0288 16.394C20.017 16.3904 20.0052 16.3868 19.9935 16.383C19.9816 16.3792 19.9698 16.3753 19.9581 16.3713C19.9463 16.3674 19.9344 16.3634 19.9227 16.3593C19.9109 16.3552 19.8991 16.3509 19.8874 16.3466C19.8756 16.3423 19.8637 16.338 19.852 16.3336C19.8401 16.3291 19.8284 16.3244 19.8166 16.3197C19.8048 16.3151 19.793 16.3105 19.7813 16.3057C19.7694 16.3008 19.7577 16.2956 19.7459 16.2906C19.7341 16.2855 19.7222 16.2805 19.7105 16.2753C19.6987 16.27 19.6869 16.2645 19.6752 16.259C19.6634 16.2535 19.6515 16.248 19.6398 16.2424C19.628 16.2366 19.6162 16.2308 19.6045 16.2249C19.5926 16.2189 19.5808 16.2128 19.5691 16.2067C19.5573 16.2005 19.5454 16.1944 19.5337 16.188C19.5218 16.1815 19.5101 16.1748 19.4984 16.1682C19.4866 16.1615 19.4747 16.1548 19.463 16.1479C19.4511 16.1409 19.4394 16.1337 19.4277 16.1265C19.4158 16.1193 19.404 16.1118 19.3923 16.1044C19.3805 16.0968 19.3686 16.0893 19.357 16.0816C19.345 16.0737 19.3333 16.0655 19.3216 16.0574C19.3097 16.0492 19.2979 16.0408 19.2862 16.0324C19.2744 16.0239 19.2625 16.0153 19.2509 16.0066C19.2389 15.9976 19.2272 15.9884 19.2155 15.9793C19.2036 15.9699 19.1918 15.9606 19.1802 15.951C19.1683 15.9413 19.1564 15.9317 19.1448 15.9217C19.1328 15.9115 19.1211 15.9011 19.1094 15.8907C19.0975 15.88 19.0857 15.8692 19.0741 15.8583C19.0622 15.8472 19.0503 15.836 19.0387 15.8246C19.0268 15.813 19.0149 15.8014 19.0033 15.7895C18.9914 15.7773 18.9796 15.7647 18.968 15.7522C18.956 15.7393 18.9443 15.7262 18.9326 15.7131C18.9207 15.6995 18.9089 15.6858 18.8973 15.672C18.8853 15.6577 18.8735 15.6433 18.8619 15.6287C18.8499 15.6137 18.8381 15.5984 18.8265 15.583C18.8146 15.567 18.8027 15.5509 18.7912 15.5346C18.7792 15.5176 18.7673 15.5004 18.7558 15.483C18.7438 15.4649 18.732 15.4465 18.7205 15.428C18.7084 15.4085 18.6966 15.3887 18.6851 15.3688C18.673 15.3479 18.6612 15.3266 18.6497 15.3051C18.6376 15.2823 18.6258 15.2592 18.6144 15.2358C18.6022 15.2109 18.5904 15.1857 18.579 15.1602C18.5668 15.1328 18.5549 15.1051 18.5436 15.0769C18.5312 15.0458 18.5196 15.0141 18.5083 14.982C18.4958 14.9465 18.484 14.9106 18.4729 14.874C18.4602 14.8315 18.4483 14.7884 18.4376 14.7445C18.4242 14.6899 18.4125 14.6341 18.4022 14.5773C18.387 14.4932 18.3751 14.4066 18.3668 14.3178C18.3573 14.2151 18.3525 14.1094 18.3525 14.0006C18.3525 13.8917 18.3573 13.7859 18.3668 13.6832C18.3751 13.5943 18.387 13.5077 18.4022 13.4235C18.4125 13.3667 18.4242 13.3109 18.4376 13.2562C18.4483 13.2124 18.4602 13.1692 18.4729 13.1267C18.484 13.0901 18.4958 13.0541 18.5083 13.0186C18.5196 12.9865 18.5312 12.9548 18.5436 12.9236C18.5549 12.8955 18.5668 12.8678 18.579 12.8403C18.5904 12.8148 18.6022 12.7896 18.6144 12.7647C18.6258 12.7413 18.6376 12.7182 18.6497 12.6954C18.6612 12.6739 18.673 12.6526 18.6851 12.6316C18.6966 12.6117 18.7084 12.5919 18.7205 12.5724C18.732 12.5538 18.7438 12.5355 18.7558 12.5173C18.7673 12.4999 18.7792 12.4828 18.7912 12.4658C18.8027 12.4494 18.8146 12.4333 18.8265 12.4173C18.8381 12.4019 18.8499 12.3867 18.8619 12.3716C18.8735 12.357 18.8853 12.3426 18.8973 12.3283C18.9089 12.3145 18.9207 12.3008 18.9326 12.2872C18.9443 12.274 18.956 12.2609 18.968 12.2481C18.9796 12.2355 18.9914 12.223 19.0033 12.2107C19.0149 12.1988 19.0268 12.1872 19.0387 12.1756C19.0503 12.1642 19.0622 12.153 19.0741 12.1419C19.0857 12.131 19.0975 12.1202 19.1094 12.1095C19.1211 12.0991 19.1328 12.0887 19.1448 12.0785C19.1564 12.0685 19.1683 12.0589 19.1802 12.0492C19.1918 12.0396 19.2036 12.0302 19.2155 12.0209C19.2272 12.0117 19.2389 12.0025 19.2509 11.9935C19.2625 11.9848 19.2744 11.9762 19.2862 11.9677C19.2979 11.9593 19.3097 11.951 19.3216 11.9427C19.3333 11.9346 19.345 11.9264 19.357 11.9185C19.3686 11.9108 19.3805 11.9033 19.3923 11.8957C19.404 11.8882 19.4158 11.8808 19.4277 11.8735C19.4394 11.8664 19.4511 11.8592 19.463 11.8522C19.4747 11.8453 19.4866 11.8386 19.4984 11.8319C19.5101 11.8253 19.5218 11.8186 19.5337 11.8121C19.5454 11.8057 19.5573 11.7996 19.5691 11.7934C19.5808 11.7872 19.5926 11.7812 19.6045 11.7752C19.6162 11.7693 19.628 11.7635 19.6398 11.7577C19.6515 11.752 19.6634 11.7465 19.6752 11.741C19.6869 11.7356 19.6987 11.73 19.7105 11.7247C19.7222 11.7195 19.7341 11.7145 19.7459 11.7094C19.7577 11.7044 19.7694 11.6992 19.7813 11.6943C19.793 11.6895 19.8048 11.6849 19.8166 11.6803C19.8284 11.6756 19.8401 11.6709 19.852 11.6664C19.8637 11.662 19.8756 11.6577 19.8874 11.6534C19.8991 11.6491 19.9109 11.6448 19.9227 11.6406C19.9344 11.6366 19.9463 11.6326 19.9581 11.6286C19.9698 11.6247 19.9816 11.6208 19.9935 11.617C20.0052 11.6132 20.017 11.6096 20.0288 11.6059C20.0406 11.6023 20.0523 11.5988 20.0642 11.5953L20.0995 11.5852C20.1113 11.5819 20.123 11.5785 20.1349 11.5754C20.1466 11.5722 20.1584 11.5692 20.1703 11.5662C20.182 11.5632 20.1937 11.5602 20.2056 11.5573L20.241 11.549C20.2527 11.5463 20.2645 11.5435 20.2763 11.5409C20.288 11.5383 20.2999 11.5359 20.3117 11.5334C20.3235 11.531 20.3352 11.5284 20.3471 11.526C20.3587 11.5237 20.3706 11.5216 20.3824 11.5194C20.3942 11.5172 20.4059 11.5149 20.4178 11.5128C20.4295 11.5107 20.4414 11.5089 20.4531 11.5069C20.4649 11.505 20.4766 11.503 20.4885 11.5011L20.5239 11.4959L20.5592 11.4908L20.5946 11.4861L20.6299 11.4819L20.6653 11.4778L20.7006 11.4742C20.7125 11.473 20.7242 11.4717 20.736 11.4707C20.7477 11.4696 20.7596 11.4688 20.7714 11.4678L20.8067 11.465L20.8421 11.4625L20.8775 11.4604L20.9129 11.4585C20.9246 11.4579 20.9364 11.4575 20.9482 11.457C20.96 11.4566 20.9717 11.456 20.9835 11.4556L21.0189 11.4547L21.0543 11.4539L21.0896 11.4534L21.125 11.4533C21.1368 11.4532 21.1485 11.4531 21.1604 11.4531L21.1957 11.4536L21.2311 11.4541L21.2664 11.4549L21.3018 11.456L21.3372 11.4572L21.3725 11.4588L21.4079 11.4606L21.4432 11.4625L21.4786 11.4649L21.514 11.4672L21.5279 11.4682L21.5493 11.4699L21.5847 11.4727L21.62 11.4757L21.6554 11.479L21.6908 11.4823L21.7261 11.4859L21.7615 11.4897L21.7969 11.4937L21.8322 11.4978L21.8676 11.5021L21.9029 11.5066L21.9383 11.5113L21.9737 11.5162L22.009 11.5213L22.0444 11.5265L22.0798 11.532L22.1151 11.5377L22.1504 11.5435L22.1858 11.5496L22.2212 11.5558L22.2565 11.5622L22.2919 11.5688L22.3273 11.5757L22.3626 11.5827L22.398 11.5899L22.4333 11.5973L22.4687 11.6049L22.5041 11.6128L22.5394 11.6208L22.5748 11.629L22.6101 11.6374L22.6455 11.646L22.6809 11.6548L22.7162 11.6639L22.7516 11.6731L22.7869 11.6825L22.8223 11.6922L22.8577 11.702L22.893 11.7121L22.9284 11.7223L22.9638 11.7328L22.9991 11.7435L23.0345 11.7543L23.0698 11.7654L23.1052 11.7767L23.1406 11.7882L23.1759 11.7999L23.2113 11.8118L23.2467 11.8239L23.282 11.8362L23.3174 11.8487L23.3527 11.8615L23.3881 11.8744L23.4235 11.8875L23.4588 11.9009L23.4942 11.9144L23.5295 11.9281L23.5649 11.9421L23.6002 11.9562L23.6356 11.9705L23.671 11.9851L23.7063 11.9998L23.7417 12.0148L23.777 12.0299L23.8124 12.0452L23.8478 12.0607L23.8831 12.0764L23.9185 12.0923L23.9539 12.1084L23.9892 12.1246L24.0246 12.1411L24.0599 12.1577L24.0953 12.1745L24.1307 12.1914L24.166 12.2085L24.2014 12.2259L24.2368 12.2433L24.2721 12.2609L24.3073 12.2786V10.7264L24.2721 10.7178L24.2368 10.7092L24.2014 10.7009L24.166 10.6926L24.1307 10.6844L24.0953 10.6763L24.0599 10.6683L24.0246 10.6604L23.9892 10.6526L23.9539 10.6448L23.9185 10.6371L23.8831 10.6296L23.8478 10.622L23.8124 10.6146L23.777 10.6072L23.7417 10.5999L23.7063 10.5927L23.671 10.5855L23.6356 10.5784L23.6002 10.5714L23.5649 10.5645L23.5295 10.5576L23.4942 10.5508L23.4588 10.544L23.4235 10.5374L23.3881 10.5308L23.3527 10.5242L23.3174 10.5178L23.282 10.5114L23.2467 10.505L23.2113 10.4988L23.1759 10.4926L23.1406 10.4865L23.1052 10.4805L23.0698 10.4745L23.0345 10.4686L22.9991 10.4627L22.9638 10.457L22.9284 10.4513L22.893 10.4457L22.8577 10.4402L22.8223 10.4347L22.7869 10.4293L22.7516 10.424L22.7162 10.4188L22.6809 10.4136L22.6455 10.4086L22.6101 10.4036L22.5748 10.3987L22.5394 10.3938L22.5041 10.3891L22.4687 10.3844L22.4333 10.3798L22.398 10.3753L22.3626 10.3709L22.3273 10.3666L22.2919 10.3623L22.2565 10.3582L22.2212 10.3541L22.1858 10.3502L22.1504 10.3463L22.1151 10.3425L22.0798 10.3388L22.0444 10.3352L22.009 10.3317L21.9737 10.3283L21.9383 10.325L21.9029 10.3218L21.8676 10.3187L21.8322 10.3157L21.7969 10.3128L21.7615 10.3101L21.7261 10.3075L21.6908 10.3048L21.6554 10.3025L21.62 10.3001L21.5847 10.2979L21.5493 10.2958L21.514 10.2939L21.4786 10.2921L21.4432 10.2904L21.4252 10.2895L21.4079 10.2888L21.3725 10.2873L21.3372 10.2858L21.3018 10.2844L21.2664 10.2831L21.2311 10.2819L21.1957 10.2807L21.1604 10.2796L21.125 10.2786L21.0896 10.2777L21.0543 10.2768L21.0189 10.276L20.9835 10.2753L20.9482 10.2746L20.9129 10.2741L20.8775 10.2737L20.8421 10.2732L20.8067 10.2729L20.7714 10.2727L20.736 10.2725L20.7006 10.2724L20.6653 10.2725L20.6299 10.2725L20.5946 10.2727L20.5592 10.273L20.5239 10.2733L20.4885 10.2737L20.4531 10.2743L20.4178 10.2749L20.3824 10.2755L20.3471 10.2764L20.3117 10.2773L20.2763 10.2781L20.241 10.2793L20.2056 10.2805L20.1703 10.2816L20.1349 10.2831L20.0995 10.2845L20.0642 10.286L20.0288 10.2877L19.9935 10.2895L19.9581 10.2912L19.9227 10.2932L19.8874 10.2953L19.852 10.2973L19.8166 10.2997L19.7813 10.3021L19.7459 10.3044L19.7105 10.3071L19.6752 10.3098L19.6398 10.3126L19.6045 10.3155L19.5691 10.3185L19.5337 10.3216L19.4984 10.325L19.463 10.3283L19.4277 10.3318L19.3923 10.3355L19.357 10.3391L19.3216 10.3431L19.2862 10.347L19.2509 10.3511L19.2155 10.3554L19.1802 10.3597L19.1448 10.3643L19.1094 10.3689L19.0741 10.3736L19.0387 10.3786L19.0033 10.3836L18.968 10.3888L18.9326 10.3942L18.8973 10.3995L18.8619 10.4052L18.8265 10.411L18.7912 10.4169L18.7558 10.423L18.7205 10.4291L18.6851 10.4356L18.6497 10.4421L18.6144 10.4488L18.579 10.4557L18.5436 10.4626L18.5083 10.4699L18.4729 10.4772L18.4376 10.4848L18.4022 10.4925L18.3668 10.5004L18.3315 10.5085L18.2961 10.5167L18.2608 10.5252L18.2254 10.5338L18.19 10.5427L18.1547 10.5517L18.1193 10.5609L18.084 10.5704L18.0486 10.58L18.0133 10.5899L17.9779 10.5999L17.9425 10.6103L17.9072 10.6207L17.8718 10.6315L17.8364 10.6424L17.8011 10.6537C17.7893 10.6575 17.7774 10.6612 17.7657 10.665L17.7304 10.6769C17.7186 10.6808 17.7067 10.6847 17.695 10.6887L17.6596 10.701L17.6243 10.7133C17.6124 10.7175 17.6007 10.7219 17.5889 10.7262C17.5771 10.7305 17.5652 10.7347 17.5536 10.7391L17.5182 10.7525C17.5064 10.757 17.4945 10.7614 17.4828 10.7659L17.4475 10.7799L17.4121 10.794L17.3767 10.8085L17.3414 10.8232L17.306 10.8383L17.2707 10.8537L17.2353 10.8694L17.2 10.8855L17.1646 10.9018C17.1527 10.9074 17.141 10.9131 17.1292 10.9187L17.0939 10.9358L17.0585 10.9534L17.0232 10.9714C17.0113 10.9774 16.9995 10.9834 16.9878 10.9896C16.9759 10.9958 16.9642 11.0021 16.9525 11.0084L16.9171 11.0276L16.8817 11.0471C16.8698 11.0538 16.8581 11.0605 16.8464 11.0673C16.8345 11.074 16.8227 11.0808 16.811 11.0876C16.7991 11.0946 16.7874 11.1016 16.7757 11.1087C16.7638 11.1158 16.752 11.123 16.7403 11.1302C16.7284 11.1375 16.7166 11.1447 16.7049 11.1521C16.693 11.1596 16.6813 11.1671 16.6696 11.1747L16.6342 11.1978C16.6223 11.2056 16.6105 11.2134 16.5988 11.2213L16.5635 11.2455C16.5516 11.2537 16.5398 11.262 16.5281 11.2703C16.5163 11.2788 16.5044 11.2872 16.4928 11.2958C16.4809 11.3044 16.4691 11.313 16.4574 11.3217C16.4455 11.3306 16.4338 11.3396 16.422 11.3486C16.4101 11.3577 16.3984 11.3669 16.3867 11.3761C16.3748 11.3854 16.363 11.3948 16.3513 11.4043Z" fill="#CA4638"/>
</svg>
