<svg width="42" height="28" viewBox="0 0 42 28" fill="none" xmlns="http://www.w3.org/2000/svg">
<g id="Mastercard">
<rect x="1.12467" y="0.291667" width="40.25" height="27.4167" rx="1.45833" fill="white"/>
<rect x="1.12467" y="0.291667" width="40.25" height="27.4167" rx="1.45833" stroke="#D4DCDD" stroke-width="0.583333"/>
<g id="Mastercard_2">
<path id="Left" fill-rule="evenodd" clip-rule="evenodd" d="M26.7051 21.939C31.1019 21.939 34.6662 18.3333 34.6662 13.8855C34.6662 9.4377 31.1019 5.83203 26.7051 5.83203C24.7345 5.83203 22.9312 6.55628 21.541 7.756C20.1509 6.55633 18.3476 5.83211 16.3771 5.83211C11.9803 5.83211 8.41602 9.43778 8.41602 13.8856C8.41602 18.3334 11.9803 21.9391 16.3771 21.9391C18.3476 21.9391 20.1509 21.2148 21.5411 20.0151C22.9313 21.2148 24.7346 21.939 26.7051 21.939Z" fill="#ED0006"/>
<path id="Right" fill-rule="evenodd" clip-rule="evenodd" d="M21.541 20.0151C23.2527 18.5379 24.3381 16.3399 24.3381 13.8855C24.3381 11.4311 23.2527 9.2331 21.541 7.75594C22.9312 6.55626 24.7345 5.83203 26.705 5.83203C31.1018 5.83203 34.6661 9.4377 34.6661 13.8855C34.6661 18.3333 31.1018 21.939 26.705 21.939C24.7345 21.939 22.9312 21.2148 21.541 20.0151Z" fill="#F9A000"/>
<path id="Middle" fill-rule="evenodd" clip-rule="evenodd" d="M21.5412 20.0131C23.2529 18.5359 24.3383 16.3379 24.3383 13.8835C24.3383 11.429 23.2529 9.23106 21.5412 7.75391C19.8295 9.23106 18.7441 11.429 18.7441 13.8835C18.7441 16.3379 19.8295 18.5359 21.5412 20.0131Z" fill="#FF5E00"/>
</g>
</g>
</svg>
