<svg width="42" height="28" viewBox="0 0 42 28" fill="none" xmlns="http://www.w3.org/2000/svg">
<rect x="1.12516" y="0.291667" width="40.25" height="27.4167" rx="1.45833" fill="white"/>
<rect x="1.12516" y="0.291667" width="40.25" height="27.4167" rx="1.45833" stroke="#D4DCDD" stroke-width="0.583333"/>
<path fill-rule="evenodd" clip-rule="evenodd" d="M27.7338 12.4219C27.5925 13.3502 26.8835 13.3502 26.1977 13.3502H25.8075L26.0812 11.617C26.0977 11.5123 26.188 11.4351 26.2942 11.4351H26.473C26.9397 11.4351 27.3807 11.4351 27.608 11.701C27.744 11.8602 27.7852 12.096 27.7338 12.4219ZM27.4353 10H24.8491C24.6723 10 24.5218 10.1287 24.4942 10.3034L23.4485 16.9347C23.4278 17.0654 23.5289 17.1837 23.6614 17.1837H24.9883C25.1121 17.1837 25.2175 17.0937 25.2367 16.9714L25.5333 15.0915C25.5609 14.9168 25.7114 14.7881 25.8882 14.7881H26.7065C28.41 14.7881 29.3931 13.9637 29.6501 12.3298C29.7657 11.6153 29.6547 11.0537 29.3201 10.6607C28.9523 10.2285 28.3005 10 27.4353 10Z" fill="#0070E0"/>
<path fill-rule="evenodd" clip-rule="evenodd" d="M9.28796 12.4219C9.14663 13.3502 8.43762 13.3502 7.75198 13.3502H7.36179L7.6354 11.617C7.65202 11.5123 7.74233 11.4351 7.84833 11.4351H8.02721C8.49399 11.4351 8.93497 11.4351 9.1622 11.701C9.29831 11.8602 9.33945 12.096 9.28796 12.4219ZM8.9896 10H6.40336C6.22657 10 6.07605 10.1287 6.04851 10.3034L5.00267 16.9347C4.98209 17.0654 5.08321 17.1837 5.2156 17.1837H6.45043C6.62722 17.1837 6.77785 17.0551 6.8054 16.8805L7.0876 15.0915C7.11504 14.9168 7.26567 14.7881 7.44246 14.7881H8.26083C9.96419 14.7881 10.9474 13.9637 11.2044 12.3298C11.32 11.6153 11.209 11.0537 10.8744 10.6607C10.5065 10.2285 9.8547 10 8.9896 10Z" fill="#003087"/>
<path fill-rule="evenodd" clip-rule="evenodd" d="M14.9934 14.8022C14.8738 15.5099 14.3121 15.9849 13.5956 15.9849C13.2365 15.9849 12.9489 15.8694 12.7641 15.6506C12.5809 15.4337 12.512 15.1248 12.57 14.7807C12.6816 14.0795 13.2523 13.5891 13.9578 13.5891C14.3095 13.5891 14.595 13.7058 14.7835 13.9266C14.9732 14.1489 15.0477 14.4599 14.9934 14.8022ZM16.7192 12.392H15.4809C15.3748 12.392 15.2845 12.469 15.268 12.574L15.2134 12.9202L15.1269 12.7947C14.8587 12.4055 14.2611 12.2754 13.6642 12.2754C12.2961 12.2754 11.1274 13.3122 10.8999 14.7663C10.7815 15.4917 10.9495 16.1849 11.3609 16.6688C11.7387 17.1134 12.278 17.2984 12.9206 17.2984C14.0234 17.2984 14.635 16.59 14.635 16.59L14.5796 16.9341C14.559 17.065 14.6601 17.1835 14.7926 17.1835H15.9078C16.0846 17.1835 16.2351 17.0549 16.2627 16.8802L16.9321 12.6411C16.9528 12.5102 16.8517 12.392 16.7192 12.392Z" fill="#003087"/>
<path fill-rule="evenodd" clip-rule="evenodd" d="M33.4387 14.8022C33.3191 15.5099 32.7575 15.9849 32.041 15.9849C31.6817 15.9849 31.3943 15.8694 31.2094 15.6506C31.0262 15.4337 30.9573 15.1248 31.0154 14.7807C31.1269 14.0795 31.6975 13.5891 32.4032 13.5891C32.7548 13.5891 33.0404 13.7058 33.2288 13.9266C33.4185 14.1489 33.493 14.4599 33.4387 14.8022ZM35.1645 12.392H33.9261C33.82 12.392 33.7297 12.469 33.7132 12.574L33.6587 12.9202L33.5722 12.7947C33.304 12.4055 32.7063 12.2754 32.1095 12.2754C30.7414 12.2754 29.5726 13.3122 29.3452 14.7663C29.2268 15.4917 29.3949 16.1849 29.8061 16.6688C30.1841 17.1134 30.7233 17.2984 31.3658 17.2984C32.4686 17.2984 33.0802 16.59 33.0802 16.59L33.025 16.9341C33.0042 17.065 33.1053 17.1835 33.2379 17.1835H34.3531C34.5298 17.1835 34.6804 17.0549 34.708 16.8802L35.3774 12.6411C35.3981 12.5102 35.297 12.392 35.1645 12.392Z" fill="#0070E0"/>
<path fill-rule="evenodd" clip-rule="evenodd" d="M23.315 12.3921H22.0703C21.9513 12.3921 21.8399 12.4511 21.7731 12.5496L20.0561 15.0784L19.3284 12.6484C19.283 12.4963 19.143 12.3921 18.9843 12.3921H17.7607C17.613 12.3921 17.509 12.5374 17.5566 12.6772L18.9272 16.7002L17.6381 18.5192C17.5369 18.6619 17.639 18.8594 17.8139 18.8594H19.0575C19.1753 18.8594 19.2857 18.8016 19.3528 18.7047L23.4923 12.7306C23.5913 12.5876 23.489 12.3921 23.315 12.3921Z" fill="#003087"/>
<path fill-rule="evenodd" clip-rule="evenodd" d="M36.6241 10.1821L35.5627 16.9347C35.5422 17.0655 35.6433 17.1837 35.7757 17.1837H36.8432C37.02 17.1837 37.1705 17.0551 37.1981 16.8805L38.2446 10.2492C38.2653 10.1183 38.1642 10 38.0317 10H36.8371C36.731 10 36.6406 10.0773 36.6241 10.1821Z" fill="#0070E0"/>
</svg>
