<svg width="41" height="28" viewBox="0 0 41 28" fill="none" xmlns="http://www.w3.org/2000/svg">
<g id="Visa">
<rect x="0.291667" y="0.291667" width="40.25" height="27.4167" rx="1.45833" fill="white"/>
<rect x="0.291667" y="0.291667" width="40.25" height="27.4167" rx="1.45833" stroke="#D4DCDD" stroke-width="0.583333"/>
<path id="visa-logo" fill-rule="evenodd" clip-rule="evenodd" d="M12.3961 18.9692H9.92243L8.06745 11.8923C7.9794 11.5668 7.79246 11.279 7.51747 11.1433C6.8312 10.8025 6.07497 10.5312 5.25 10.3944V10.1219H9.23495C9.78493 10.1219 10.1974 10.5312 10.2662 11.0065L11.2286 16.1113L13.7011 10.1219H16.1061L12.3961 18.9692ZM17.481 18.9692H15.1448L17.0685 10.1219H19.4047L17.481 18.9692ZM22.4273 12.573C22.496 12.0965 22.9085 11.824 23.3897 11.824C24.1459 11.7556 24.9697 11.8924 25.6572 12.2321L26.0697 10.3272C25.3822 10.0548 24.626 9.91797 23.9397 9.91797C21.6722 9.91797 20.0223 11.1434 20.0223 12.8442C20.0223 14.1381 21.191 14.8175 22.016 15.2268C22.9085 15.6349 23.2522 15.9073 23.1835 16.3154C23.1835 16.9276 22.496 17.2 21.8097 17.2C20.9848 17.2 20.1598 16.996 19.4048 16.6551L18.9923 18.5612C19.8173 18.9009 20.7098 19.0377 21.5347 19.0377C24.0772 19.1049 25.6572 17.8806 25.6572 16.043C25.6572 13.7289 22.4273 13.5932 22.4273 12.573ZM33.8334 18.9692L31.9784 10.1219H29.9859C29.5735 10.1219 29.161 10.3944 29.0235 10.8025L25.5885 18.9692H27.9935L28.4735 17.6764H31.4284L31.7034 18.9692H33.8334ZM30.3296 12.5045L31.0159 15.8388H29.0922L30.3296 12.5045Z" fill="#172B85"/>
</g>
</svg>
