<svg width="142" height="44" viewBox="0 0 142 44" fill="none" xmlns="http://www.w3.org/2000/svg">
<path d="M7.62839 25.2012L19.8385 13.2228C20.4681 12.6054 21.3169 12.2635 22.1983 12.2722C23.0798 12.2808 23.9218 12.6394 24.5391 13.2691L18.998 7.61352C18.3807 6.98402 17.5388 6.62555 16.6574 6.61686C15.7759 6.60817 14.9272 6.94999 14.2975 7.56719L2.08705 19.5457C1.45793 20.1634 1.09966 21.0057 1.09098 21.8876C1.0823 22.7697 1.42392 23.619 2.04075 24.2489L7.58352 29.906C6.96646 29.276 6.62465 28.4267 6.63326 27.5448C6.64189 26.6628 7.00022 25.8203 7.62945 25.2027" fill="#FCBA1E"/>
<path d="M12.285 29.9517L24.4937 17.9733C25.123 17.3556 25.4812 16.5131 25.4898 15.6312C25.4985 14.7492 25.1567 13.8999 24.5395 13.27L30.0819 18.9246C30.699 19.5545 31.0408 20.4037 31.0321 21.2857C31.0235 22.1677 30.6652 23.01 30.0361 23.6278L17.827 35.6074C17.1974 36.2246 16.3487 36.5665 15.4673 36.5578C14.5858 36.5492 13.7439 36.1908 13.1265 35.5614L7.58301 29.9057C8.20035 30.5354 9.0423 30.8939 9.92376 30.9025C10.8052 30.9111 11.6555 30.5691 12.285 29.9517Z" fill="#DF9026"/>
<path d="M30.0819 18.9256L24.5395 13.27C25.1565 13.8999 25.4982 14.7493 25.4896 15.6312C25.4808 16.5132 25.1224 17.3556 24.4932 17.9733L24.1543 18.3057L27.3704 21.586C27.9872 22.216 28.3288 23.0653 28.3201 23.9472C28.3115 24.8291 27.9533 25.6715 27.324 26.2893L30.0349 23.6302C30.6641 23.0126 31.0225 22.1702 31.0312 21.2883C31.04 20.4063 30.6982 19.5569 30.0811 18.927" fill="#AC722A"/>
<path d="M16.2835 10.2754L19.4997 13.5557L19.8386 13.223C20.4681 12.6056 21.317 12.2637 22.1984 12.2723C23.0799 12.2809 23.9218 12.6394 24.5391 13.2689L18.9967 7.61333C18.3794 6.98389 17.5373 6.62548 16.656 6.61686C15.7746 6.60824 14.9259 6.95012 14.2962 7.56736L13.9573 7.90012L16.2835 10.2754Z" fill="#FFC841"/>
<path d="M36.0674 25.5026V18.2596C36.0674 14.588 37.8402 12.3184 44.158 12.3184C50.4757 12.3184 52.2486 14.5213 52.2486 18.1929V25.4025C52.2486 29.0741 50.4757 31.3437 44.158 31.3437C37.8402 31.3437 36.0674 29.1741 36.0674 25.5026ZM49.1541 25.0687V18.56C49.1541 15.7563 48.0904 14.8217 44.158 14.8217C40.1932 14.8217 39.1295 15.823 39.1295 18.5934V25.1355C39.1295 27.9392 40.1932 28.8738 44.158 28.8738C48.0904 28.8738 49.1541 27.8725 49.1541 25.0687Z" fill="#FCBA1E"/>
<path d="M54.6343 28.6065L55.9559 28.5732V15.2221L54.6343 15.1219V12.7188H63.2084C67.6567 12.7188 69.3327 13.8202 69.3327 16.3903V18.5599C69.3327 20.5959 68.1079 22.0311 65.5293 22.2314C67.6888 22.4317 69.2039 22.7988 69.3972 24.9017L69.7195 28.5398L71.1378 28.6065V30.9764H67.012C66.8509 30.8096 66.7218 30.6426 66.6897 30.1087L66.3672 25.7695C66.2383 23.8669 64.949 23.3663 61.8223 23.3663H59.0181V28.5065L60.3396 28.5398V30.943H54.6343V28.6065ZM62.596 20.9631C65.497 20.9631 66.3028 20.3289 66.3028 18.7268V17.2581C66.3028 15.7895 65.7549 15.1553 62.596 15.1553H59.0503V20.9297H62.596V20.9631Z" fill="#FCBA1E"/>
<path d="M72.9106 25.5026V18.2596C72.9106 14.588 74.6834 12.3184 81.0013 12.3184C87.3189 12.3184 89.0917 14.5213 89.0917 18.1929V25.4025C89.0917 29.0741 87.3189 31.3437 81.0013 31.3437C74.6834 31.3437 72.9106 29.1741 72.9106 25.5026ZM85.9973 25.0687V18.56C85.9973 15.7563 84.9336 14.8217 81.0013 14.8217C77.0365 14.8217 75.9728 15.823 75.9728 18.5934V25.1355C75.9728 27.9392 77.0365 28.8738 81.0013 28.8738C84.9336 28.8738 85.9973 27.8725 85.9973 25.0687Z" fill="#FCBA1E"/>
<g clip-path="url(#clip0_2890_11557)">
<path fill-rule="evenodd" clip-rule="evenodd" d="M100.328 29.5999C104.092 29.5999 105.329 28.8917 105.329 26.7952V25.3042C105.329 23.2077 104.143 22.652 100.328 22.652H95.78V29.5999H100.328ZM100.076 20.9091C103.561 20.9091 104.597 20.2019 104.597 18.2568V16.9172C104.597 14.997 103.663 14.492 100.076 14.492H95.78V20.9091H100.076ZM91.9905 29.6248L93.5064 29.5999V14.492L91.9397 14.4412V12.7231H100.479C105.431 12.7231 106.821 13.6584 106.821 16.3604V18.206C106.821 20.2268 105.786 21.4907 102.627 21.667C106.34 21.8184 107.654 22.8801 107.654 25.2794V27.1996C107.654 29.9783 105.759 31.3428 100.757 31.3428H91.9905V29.6248Z" fill="#CB5B28"/>
<path fill-rule="evenodd" clip-rule="evenodd" d="M110.233 29.4993L118.166 21.9449C119.277 20.8842 120.287 19.6711 120.287 18.3833V17.0437C120.287 15.4521 119.455 14.1136 116.119 14.1136C112.809 14.1136 111.774 15.3764 111.774 17.1453V18.4082H109.728V17.1453C109.728 14.3914 111.369 12.3198 116.372 12.3198C121.4 12.3198 122.46 14.492 122.46 16.8674V18.1811C122.46 20.2527 121.097 21.7686 119.605 23.1321L112.911 29.4237V29.4745H121.147L121.197 27.3012H123.269V31.3429H110.687C110.409 31.3429 110.233 31.1666 110.233 30.8887V29.4993Z" fill="#CB5B28"/>
<path fill-rule="evenodd" clip-rule="evenodd" d="M133.324 29.5999C137.088 29.5999 138.326 28.8917 138.326 26.7952V25.3042C138.326 23.2077 137.139 22.652 133.324 22.652H128.776V29.5999H133.324ZM133.071 20.9091C136.557 20.9091 137.594 20.2019 137.594 18.2568V16.9172C137.594 14.997 136.659 14.492 133.071 14.492H128.776V20.9091H133.071ZM124.987 29.6248L126.503 29.5999V14.492L124.936 14.4412V12.7231H133.476C138.428 12.7231 139.817 13.6584 139.817 16.3604V18.206C139.817 20.2268 138.782 21.4907 135.623 21.667C139.337 21.8184 140.65 22.8801 140.65 25.2794V27.1996C140.65 29.9783 138.756 31.3428 133.754 31.3428H124.987V29.6248Z" fill="#CB5B28"/>
</g>
<defs>
<clipPath id="clip0_2890_11557">
<rect width="49.3256" height="21.33" fill="white" transform="translate(92.1819 11.335)"/>
</clipPath>
</defs>
</svg>
