<?xml version="1.0" encoding="UTF-8"?><svg id="Layer_1" xmlns="http://www.w3.org/2000/svg" width="28" height="28" viewBox="0 0 28 28"><defs><style>.cls-1{fill:#b48c50;stroke-width:0px;}</style></defs><path class="cls-1" d="M26.97,11.51L16.49,1.03c-1.37-1.37-3.62-1.37-4.99,0L1.03,11.51c-1.37,1.37-1.37,3.62,0,4.99l5.24,5.24,5.24,5.24c1.37,1.37,3.62,1.37,4.99,0l10.48-10.48c1.37-1.37,1.37-3.62,0-4.99ZM20.98,12.01l-8.97,8.97c-1.37,1.37-3.62,1.37-4.99,0-1.37-1.37-1.37-3.62,0-4.99L15.99,7.02c1.37-1.37,3.62-1.37,4.99,0h0c1.37,1.37,1.37,3.62,0,4.99Z"/></svg>
