<svg width="28" height="28" viewBox="0 0 28 28" fill="none" xmlns="http://www.w3.org/2000/svg">
<g id="logo">
<path id="Vector" d="M6.1137 17.3796L17.5321 6.17777C18.121 5.60042 18.9147 5.28065 19.739 5.28879C20.5633 5.29691 21.3507 5.63225 21.928 6.2211L16.7462 0.932188C16.1689 0.343509 15.3816 0.00827447 14.5573 0.000151126C13.733 -0.00797222 12.9393 0.311681 12.3504 0.888865L0.931641 12.0907C0.343311 12.6684 0.00827033 13.4561 0.000151061 14.2808C-0.0079682 15.1057 0.3115 15.8999 0.888345 16.489L6.07174 21.7793C5.49468 21.1902 5.17504 20.3959 5.18309 19.5712C5.19116 18.7464 5.52626 17.9585 6.11469 17.381" fill="#FCBA1E"/>
<path id="Vector_2" d="M10.4684 21.8228L21.8856 10.621C22.474 10.0433 22.8091 9.25551 22.8171 8.43072C22.8252 7.60592 22.5056 6.81169 21.9284 6.22266L27.1115 11.5106C27.6885 12.0996 28.0082 12.8939 28 13.7186C27.992 14.5434 27.6569 15.3312 27.0686 15.9088L15.6511 27.1118C15.0624 27.6889 14.2687 28.0087 13.4444 28.0006C12.62 27.9925 11.8327 27.6574 11.2553 27.0688L6.07129 21.7798C6.6486 22.3686 7.43596 22.7039 8.26028 22.7119C9.0846 22.72 9.8797 22.4002 10.4684 21.8228Z" fill="#DF9026"/>
<path id="Vector_3" d="M27.1106 11.5116L21.9276 6.22266C22.5046 6.81173 22.8241 7.60599 22.8161 8.43079C22.8079 9.25558 22.4728 10.0434 21.8843 10.621L21.5674 10.9318L24.575 13.9995C25.1517 14.5886 25.4713 15.3828 25.4631 16.2076C25.4551 17.0323 25.1201 17.8201 24.5316 18.3978L27.0667 15.9112C27.6551 15.3336 27.9903 14.5458 27.9985 13.721C28.0066 12.8962 27.687 12.102 27.1099 11.5129" fill="#AC722A"/>
<path id="Vector_4" d="M14.2077 3.42153L17.2153 6.48912L17.5322 6.17793C18.1209 5.60062 18.9148 5.28086 19.7391 5.28892C20.5634 5.29698 21.3507 5.63221 21.928 6.22092L16.7449 0.93201C16.1676 0.343385 15.3802 0.00820963 14.556 0.000148857C13.7317 -0.00791328 12.938 0.311799 12.3492 0.889027L12.0322 1.20021L14.2077 3.42153Z" fill="#FFC841"/>
</g>
</svg>
