<svg xmlns="http://www.w3.org/2000/svg" xmlns:xlink="http://www.w3.org/1999/xlink" width="142" zoomAndPan="magnify" viewBox="0 0 106.5 32.999998" height="44" preserveAspectRatio="xMidYMid meet" version="1.0"><defs><g/><clipPath id="bb95902135"><path d="M 0 4.390625 L 23.886719 4.390625 L 23.886719 28.28125 L 0 28.28125 Z M 0 4.390625 " clip-rule="nonzero"/></clipPath></defs><g clip-path="url(#bb95902135)"><path fill="#b48c50" d="M 23 14.210938 L 14.070312 5.28125 C 12.902344 4.113281 10.988281 4.113281 9.816406 5.28125 L 0.886719 14.210938 C -0.28125 15.378906 -0.28125 17.292969 0.886719 18.460938 L 9.816406 27.390625 C 10.984375 28.558594 12.898438 28.558594 14.070312 27.390625 L 23 18.460938 C 24.167969 17.292969 24.167969 15.378906 23 14.210938 Z M 17.890625 14.640625 L 10.246094 22.285156 C 9.078125 23.453125 7.167969 23.453125 5.996094 22.285156 C 4.828125 21.117188 4.828125 19.203125 5.996094 18.03125 L 13.640625 10.386719 C 14.808594 9.21875 16.722656 9.21875 17.890625 10.386719 C 19.058594 11.558594 19.058594 13.472656 17.890625 14.640625 Z M 17.890625 14.640625 " fill-opacity="1" fill-rule="nonzero"/></g><g fill="#b48c50" fill-opacity="1"><g transform="translate(28.202337, 23.612711)"><g><path d="M 8.65625 0.234375 C 7.613281 0.234375 6.640625 0.046875 5.734375 -0.328125 C 4.828125 -0.703125 4.035156 -1.226562 3.359375 -1.90625 C 2.679688 -2.59375 2.148438 -3.398438 1.765625 -4.328125 C 1.390625 -5.253906 1.203125 -6.257812 1.203125 -7.34375 C 1.203125 -8.445312 1.390625 -9.457031 1.765625 -10.375 C 2.148438 -11.300781 2.679688 -12.101562 3.359375 -12.78125 C 4.035156 -13.46875 4.820312 -13.992188 5.71875 -14.359375 C 6.625 -14.734375 7.601562 -14.921875 8.65625 -14.921875 C 9.695312 -14.921875 10.664062 -14.734375 11.5625 -14.359375 C 12.46875 -13.984375 13.257812 -13.457031 13.9375 -12.78125 C 14.613281 -12.101562 15.144531 -11.300781 15.53125 -10.375 C 15.914062 -9.457031 16.109375 -8.445312 16.109375 -7.34375 C 16.109375 -6.257812 15.914062 -5.253906 15.53125 -4.328125 C 15.144531 -3.398438 14.613281 -2.59375 13.9375 -1.90625 C 13.257812 -1.226562 12.46875 -0.703125 11.5625 -0.328125 C 10.664062 0.046875 9.695312 0.234375 8.65625 0.234375 Z M 8.65625 -1.5625 C 9.46875 -1.5625 10.207031 -1.707031 10.875 -2 C 11.539062 -2.289062 12.117188 -2.703125 12.609375 -3.234375 C 13.109375 -3.773438 13.492188 -4.394531 13.765625 -5.09375 C 14.035156 -5.789062 14.171875 -6.539062 14.171875 -7.34375 C 14.171875 -8.144531 14.035156 -8.894531 13.765625 -9.59375 C 13.492188 -10.289062 13.109375 -10.90625 12.609375 -11.4375 C 12.117188 -11.96875 11.539062 -12.378906 10.875 -12.671875 C 10.207031 -12.972656 9.46875 -13.125 8.65625 -13.125 C 7.851562 -13.125 7.113281 -12.972656 6.4375 -12.671875 C 5.769531 -12.378906 5.1875 -11.96875 4.6875 -11.4375 C 4.195312 -10.90625 3.8125 -10.289062 3.53125 -9.59375 C 3.257812 -8.894531 3.125 -8.144531 3.125 -7.34375 C 3.125 -6.539062 3.257812 -5.789062 3.53125 -5.09375 C 3.8125 -4.394531 4.195312 -3.773438 4.6875 -3.234375 C 5.1875 -2.703125 5.769531 -2.289062 6.4375 -2 C 7.113281 -1.707031 7.851562 -1.5625 8.65625 -1.5625 Z M 8.65625 -1.5625 "/></g></g></g><g fill="#b48c50" fill-opacity="1"><g transform="translate(45.494786, 23.612711)"><g><path d="M 1.421875 0 L 1.421875 -10.625 L 3.21875 -10.625 L 3.21875 -8.671875 L 3.015625 -8.9375 C 3.265625 -9.550781 3.644531 -10.003906 4.15625 -10.296875 C 4.664062 -10.585938 5.289062 -10.734375 6.03125 -10.734375 L 6.671875 -10.734375 L 6.671875 -9 L 5.75 -9 C 5 -9 4.394531 -8.765625 3.9375 -8.296875 C 3.476562 -7.835938 3.25 -7.179688 3.25 -6.328125 L 3.25 0 Z M 1.421875 0 "/></g></g></g><g fill="#b48c50" fill-opacity="1"><g transform="translate(52.388128, 23.612711)"><g><path d="M 6.46875 0.234375 C 5.4375 0.234375 4.503906 -0.00390625 3.671875 -0.484375 C 2.847656 -0.960938 2.191406 -1.617188 1.703125 -2.453125 C 1.222656 -3.296875 0.984375 -4.25 0.984375 -5.3125 C 0.984375 -6.382812 1.222656 -7.332031 1.703125 -8.15625 C 2.179688 -8.976562 2.832031 -9.632812 3.65625 -10.125 C 4.488281 -10.613281 5.425781 -10.859375 6.46875 -10.859375 C 7.488281 -10.859375 8.410156 -10.617188 9.234375 -10.140625 C 10.066406 -9.660156 10.722656 -9.003906 11.203125 -8.171875 C 11.679688 -7.347656 11.921875 -6.394531 11.921875 -5.3125 C 11.921875 -4.238281 11.671875 -3.285156 11.171875 -2.453125 C 10.671875 -1.617188 10.007812 -0.960938 9.1875 -0.484375 C 8.363281 -0.00390625 7.457031 0.234375 6.46875 0.234375 Z M 6.46875 -1.53125 C 7.125 -1.53125 7.71875 -1.691406 8.25 -2.015625 C 8.78125 -2.347656 9.195312 -2.800781 9.5 -3.375 C 9.8125 -3.957031 9.96875 -4.601562 9.96875 -5.3125 C 9.96875 -6.039062 9.8125 -6.679688 9.5 -7.234375 C 9.195312 -7.796875 8.78125 -8.242188 8.25 -8.578125 C 7.71875 -8.910156 7.125 -9.078125 6.46875 -9.078125 C 5.789062 -9.078125 5.1875 -8.910156 4.65625 -8.578125 C 4.125 -8.242188 3.703125 -7.796875 3.390625 -7.234375 C 3.078125 -6.679688 2.921875 -6.039062 2.921875 -5.3125 C 2.921875 -4.601562 3.078125 -3.957031 3.390625 -3.375 C 3.703125 -2.800781 4.125 -2.347656 4.65625 -2.015625 C 5.1875 -1.691406 5.789062 -1.53125 6.46875 -1.53125 Z M 6.46875 -1.53125 "/></g></g></g><g fill="#f0f0f0" fill-opacity="1"><g transform="translate(65.274981, 23.612711)"><g><path d="M 1.640625 0 L 1.640625 -14.671875 L 7.796875 -14.671875 C 8.679688 -14.671875 9.441406 -14.515625 10.078125 -14.203125 C 10.710938 -13.890625 11.203125 -13.445312 11.546875 -12.875 C 11.898438 -12.300781 12.078125 -11.625 12.078125 -10.84375 C 12.078125 -10.113281 11.890625 -9.457031 11.515625 -8.875 C 11.140625 -8.289062 10.59375 -7.832031 9.875 -7.5 L 9.859375 -8.234375 C 10.484375 -7.992188 11 -7.679688 11.40625 -7.296875 C 11.820312 -6.910156 12.132812 -6.460938 12.34375 -5.953125 C 12.5625 -5.453125 12.671875 -4.921875 12.671875 -4.359375 C 12.671875 -3.003906 12.234375 -1.9375 11.359375 -1.15625 C 10.492188 -0.382812 9.316406 0 7.828125 0 Z M 3.5625 -1.765625 L 7.90625 -1.765625 C 8.757812 -1.765625 9.441406 -1.992188 9.953125 -2.453125 C 10.460938 -2.921875 10.71875 -3.546875 10.71875 -4.328125 C 10.71875 -5.117188 10.460938 -5.75 9.953125 -6.21875 C 9.441406 -6.6875 8.757812 -6.921875 7.90625 -6.921875 L 3.5625 -6.921875 Z M 3.5625 -8.65625 L 7.765625 -8.65625 C 8.472656 -8.65625 9.039062 -8.859375 9.46875 -9.265625 C 9.90625 -9.679688 10.125 -10.210938 10.125 -10.859375 C 10.125 -11.523438 9.90625 -12.035156 9.46875 -12.390625 C 9.039062 -12.742188 8.472656 -12.921875 7.765625 -12.921875 L 3.5625 -12.921875 Z M 3.5625 -8.65625 "/></g></g></g><g fill="#f0f0f0" fill-opacity="1"><g transform="translate(78.904106, 23.612711)"><g><path d="M 1.0625 0 L 1.0625 -1.34375 L 5.125 -5.734375 C 5.925781 -6.585938 6.566406 -7.289062 7.046875 -7.84375 C 7.523438 -8.394531 7.875 -8.882812 8.09375 -9.3125 C 8.320312 -9.75 8.4375 -10.210938 8.4375 -10.703125 C 8.4375 -11.503906 8.195312 -12.117188 7.71875 -12.546875 C 7.25 -12.984375 6.628906 -13.203125 5.859375 -13.203125 C 5.066406 -13.203125 4.394531 -12.972656 3.84375 -12.515625 C 3.289062 -12.066406 2.910156 -11.425781 2.703125 -10.59375 L 0.953125 -11.046875 C 1.117188 -11.835938 1.429688 -12.519531 1.890625 -13.09375 C 2.347656 -13.675781 2.914062 -14.125 3.59375 -14.4375 C 4.28125 -14.757812 5.035156 -14.921875 5.859375 -14.921875 C 6.742188 -14.921875 7.523438 -14.742188 8.203125 -14.390625 C 8.878906 -14.046875 9.410156 -13.5625 9.796875 -12.9375 C 10.191406 -12.320312 10.390625 -11.609375 10.390625 -10.796875 C 10.390625 -10.253906 10.273438 -9.726562 10.046875 -9.21875 C 9.828125 -8.707031 9.5 -8.164062 9.0625 -7.59375 C 8.625 -7.019531 8.0625 -6.359375 7.375 -5.609375 L 3.75 -1.671875 L 10.703125 -1.671875 L 10.703125 0 Z M 1.0625 0 "/></g></g></g><g fill="#f0f0f0" fill-opacity="1"><g transform="translate(90.701568, 23.612711)"><g><path d="M 1.640625 0 L 1.640625 -14.671875 L 7.796875 -14.671875 C 8.679688 -14.671875 9.441406 -14.515625 10.078125 -14.203125 C 10.710938 -13.890625 11.203125 -13.445312 11.546875 -12.875 C 11.898438 -12.300781 12.078125 -11.625 12.078125 -10.84375 C 12.078125 -10.113281 11.890625 -9.457031 11.515625 -8.875 C 11.140625 -8.289062 10.59375 -7.832031 9.875 -7.5 L 9.859375 -8.234375 C 10.484375 -7.992188 11 -7.679688 11.40625 -7.296875 C 11.820312 -6.910156 12.132812 -6.460938 12.34375 -5.953125 C 12.5625 -5.453125 12.671875 -4.921875 12.671875 -4.359375 C 12.671875 -3.003906 12.234375 -1.9375 11.359375 -1.15625 C 10.492188 -0.382812 9.316406 0 7.828125 0 Z M 3.5625 -1.765625 L 7.90625 -1.765625 C 8.757812 -1.765625 9.441406 -1.992188 9.953125 -2.453125 C 10.460938 -2.921875 10.71875 -3.546875 10.71875 -4.328125 C 10.71875 -5.117188 10.460938 -5.75 9.953125 -6.21875 C 9.441406 -6.6875 8.757812 -6.921875 7.90625 -6.921875 L 3.5625 -6.921875 Z M 3.5625 -8.65625 L 7.765625 -8.65625 C 8.472656 -8.65625 9.039062 -8.859375 9.46875 -9.265625 C 9.90625 -9.679688 10.125 -10.210938 10.125 -10.859375 C 10.125 -11.523438 9.90625 -12.035156 9.46875 -12.390625 C 9.039062 -12.742188 8.472656 -12.921875 7.765625 -12.921875 L 3.5625 -12.921875 Z M 3.5625 -8.65625 "/></g></g></g></svg>