<?xml version="1.0" encoding="UTF-8"?><svg id="Layer_1" xmlns="http://www.w3.org/2000/svg" viewBox="0 0 616.32 616.32"><defs><style>.cls-1{stroke-width:0px;}</style></defs><path class="cls-1" d="M593.67,253.25L363.07,22.65c-30.2-30.2-79.61-30.2-109.81,0L22.65,253.25c-30.2,30.2-30.2,79.61,0,109.81l115.3,115.3,115.3,115.3c30.2,30.2,79.61,30.2,109.81,0l230.61-230.61c30.2-30.2,30.2-79.61,0-109.81ZM461.77,264.37l-197.4,197.4c-30.2,30.2-79.61,30.2-109.81,0-30.2-30.2-30.2-79.61,0-109.81l197.4-197.4c30.2-30.2,79.61-30.2,109.81,0h0c30.2,30.2,30.2,79.61,0,109.81Z"/></svg>